# https://github.com/mikedh/trimesh
v 0.03721790 0.01100000 0.00600000
v 0.03721790 -0.01100000 0.00600000
v 0.03721790 0.01150000 0.00613397
v 0.03721790 0.01186603 0.00650000
v 0.03721790 0.01200000 0.00700000
v 0.03721790 -0.01200000 0.00700000
v 0.03721790 -0.01186603 0.00650000
v 0.03721790 -0.01150000 0.00613397
v 0.03721790 0.01200000 0.04312500
v 0.03721790 -0.01200000 0.04312500
v 0.03721790 0.01186603 0.04362500
v 0.03721790 0.01150000 0.04399103
v 0.03721790 0.01100000 0.04412500
v 0.03721790 -0.01100000 0.04412500
v 0.03721790 -0.01150000 0.04399103
v 0.03721790 -0.01186603 0.04362500
v -0.03250000 -0.02750000 0.00000000
v -0.03250000 0.02750000 0.00000000
v 0.03211940 -0.02941342 0.00000000
v 0.03250000 -0.02750000 0.00000000
v 0.03250000 0.02750000 0.00000000
v -0.03211940 -0.02941342 0.00000000
v 0.02750000 -0.03250000 0.00000000
v -0.02750000 -0.03250000 0.00000000
v 0.03211940 0.02941342 0.00000000
v 0.03103553 0.03103553 0.00000000
v -0.02750000 0.03250000 0.00000000
v 0.02750000 0.03250000 0.00000000
v -0.02941342 -0.03211940 0.00000000
v -0.03103553 -0.03103553 0.00000000
v 0.03103553 -0.03103553 0.00000000
v 0.02941342 -0.03211940 0.00000000
v 0.02941342 0.03211940 0.00000000
v -0.03211940 0.02941342 0.00000000
v -0.03103553 0.03103553 0.00000000
v -0.02941342 0.03211940 0.00000000
v -0.03250000 -0.02750000 0.00400000
v 0.02750000 -0.03250000 0.00400000
v 0.02941342 -0.03211940 0.00400000
v 0.03103553 -0.03103553 0.00400000
v 0.03211940 -0.02941342 0.00400000
v -0.03250000 0.02750000 0.00400000
v -0.02750000 0.03250000 0.00400000
v 0.02750000 0.03250000 0.00400000
v -0.02750000 -0.03250000 0.00400000
v -0.02941342 -0.03211940 0.00400000
v -0.03103553 -0.03103553 0.00400000
v -0.03211940 -0.02941342 0.00400000
v 0.02941342 0.03211940 0.00400000
v 0.03211940 0.02941342 0.00400000
v 0.03103553 0.03103553 0.00400000
v -0.03211940 0.02941342 0.00400000
v -0.03103553 0.03103553 0.00400000
v -0.02941342 0.03211940 0.00400000
v 0.02971790 -0.01659808 0.06025000
v 0.03121790 0.01400000 0.06025000
v 0.03081598 0.01550000 0.06025000
v 0.02971790 0.01659808 0.06025000
v -0.02971790 0.01659808 0.06025000
v 0.03081598 -0.01550000 0.06025000
v 0.03121790 -0.01400000 0.06025000
v -0.03081598 -0.01550000 0.06025000
v -0.02971790 -0.01659808 0.06025000
v -0.03121790 -0.01400000 0.06025000
v -0.03121790 0.01400000 0.06025000
v -0.03081598 0.01550000 0.06025000
v -0.01445683 0.02456115 0.06025000
v -0.00989740 0.02672623 0.06025000
v 0.00989740 -0.02672623 0.06025000
v 0.01445683 -0.02456115 0.06025000
v -0.01445683 -0.02456115 0.06025000
v -0.00989740 -0.02672623 0.06025000
v -0.00502754 -0.02805305 0.06025000
v -0.00000000 -0.02850000 0.06025000
v 0.00502754 -0.02805305 0.06025000
v 0.01445683 0.02456115 0.06025000
v 0.00989740 0.02672623 0.06025000
v 0.00502754 0.02805305 0.06025000
v 0.00000000 0.02850000 0.06025000
v -0.00502754 0.02805305 0.06025000
f 65 52 42
f 66 52 65
f 53 52 66
f 66 59 53
f 79 43 80
f 40 16 60
f 51 9 50
f 57 51 58
f 20 2 8
f 53 59 54
f 54 68 80
f 80 43 54
f 77 76 49
f 49 76 58
f 58 51 49
f 43 79 44
f 1 21 3
f 11 9 51
f 51 57 11
f 67 54 59
f 68 54 67
f 78 44 79
f 49 44 78
f 77 49 78
f 63 62 47
f 73 45 74
f 16 40 10
f 40 41 10
f 19 7 6
f 8 7 19
f 20 8 19
f 55 40 60
f 74 45 38
f 25 3 21
f 12 57 56
f 12 11 57
f 12 56 13
f 63 47 46
f 46 73 72
f 45 73 46
f 48 47 62
f 48 62 64
f 64 37 48
f 40 55 39
f 74 38 75
f 38 39 75
f 75 39 69
f 15 14 61
f 15 61 60
f 60 16 15
f 4 25 5
f 3 25 4
f 63 46 71
f 71 46 72
f 69 39 70
f 70 39 55
f 20 21 2
f 2 21 1
f 42 64 65
f 42 37 64
f 42 18 17
f 17 37 42
f 18 42 34
f 34 42 52
f 53 35 34
f 34 52 53
f 54 35 53
f 54 36 35
f 27 36 54
f 54 43 27
f 44 28 27
f 27 43 44
f 33 51 26
f 33 49 51
f 28 44 33
f 33 44 49
f 40 31 19
f 19 41 40
f 6 10 19
f 19 10 41
f 38 24 23
f 38 45 24
f 56 61 14
f 13 56 14
f 9 5 25
f 25 50 9
f 26 51 25
f 51 50 25
f 48 37 17
f 17 22 48
f 48 22 30
f 30 47 48
f 39 32 31
f 39 31 40
f 23 32 39
f 39 38 23
f 4 2 1
f 4 10 6
f 1 3 4
f 13 14 4
f 6 7 4
f 4 5 9
f 4 8 2
f 4 15 16
f 9 11 4
f 4 7 8
f 16 10 4
f 4 12 13
f 11 12 4
f 14 15 4
f 17 18 29
f 18 34 29
f 29 21 20
f 29 36 27
f 20 19 29
f 27 28 29
f 29 33 26
f 29 34 35
f 35 36 29
f 29 32 23
f 23 24 29
f 26 25 29
f 29 22 17
f 28 33 29
f 30 22 29
f 31 32 29
f 29 19 31
f 29 25 21
f 24 45 29
f 45 46 29
f 29 47 30
f 29 46 47
f 65 64 70
f 70 62 63
f 70 79 80
f 74 75 70
f 80 68 70
f 70 57 58
f 64 62 70
f 58 76 70
f 70 66 65
f 60 61 70
f 59 66 70
f 70 67 59
f 77 78 70
f 70 55 60
f 56 57 70
f 70 76 77
f 70 73 74
f 70 61 56
f 68 67 70
f 70 78 79
f 72 73 70
f 63 71 70
f 70 75 69
f 70 71 72

