# https://github.com/mikedh/trimesh
v 0.06956166 -0.01978425 -0.00311184
v 0.06949413 -0.01947323 -0.00311184
v 0.06956166 -0.01978425 0.00278983
v 0.06949413 -0.01947323 0.00278983
v 0.06941260 -0.01933551 0.00278983
v 0.06941260 -0.01933551 -0.00311184
v 0.06930370 -0.01921822 0.00278983
v 0.06930370 -0.01921822 -0.00311184
v 0.06923527 -0.01916534 0.00278983
v 0.06902467 -0.01906514 -0.00311184
v 0.06919844 -0.01915468 0.00321966
v 0.06766763 -0.01886549 0.00537209
v 0.06801898 -0.01881332 0.00495208
v 0.06809100 -0.01897929 0.00515883
v 0.06836790 -0.01891428 0.00469714
v 0.06847104 -0.01908158 0.00487710
v 0.06866810 -0.01900116 0.00438678
v 0.06879741 -0.01916951 0.00453580
v 0.06891079 -0.01907140 0.00402985
v 0.06906085 -0.01924056 0.00414455
v 0.06937269 -0.01932473 0.00325901
v 0.06925452 -0.01929282 0.00371493
v 0.06908938 -0.01912310 0.00363706
v 0.06951654 -0.01977423 0.00330755
v 0.06948261 -0.01954340 0.00328962
v 0.06936094 -0.01973966 0.00386871
v 0.06935593 -0.01951245 0.00377511
v 0.06916453 -0.01969603 0.00428127
v 0.06914840 -0.01946178 0.00423226
v 0.06886818 -0.01963019 0.00470815
v 0.06886622 -0.01939297 0.00464807
v 0.06850246 -0.01954894 0.00507733
v 0.06851688 -0.01930788 0.00501015
v 0.06801928 -0.01944160 0.00541191
v 0.06811047 -0.01920906 0.00530817
v 0.06760919 -0.01935049 0.00560089
v 0.06765822 -0.01909931 0.00553271
v 0.06933926 -0.01973484 -0.00424528
v 0.06901810 -0.01966349 -0.00483401
v 0.06900907 -0.01942779 -0.00477873
v 0.06838584 -0.01952303 -0.00549351
v 0.06758440 -0.01934498 -0.00593212
v 0.06840523 -0.01928071 -0.00542511
v 0.06763205 -0.01910976 -0.00587138
v 0.06836667 -0.01905347 -0.00528688
v 0.06764516 -0.01885946 -0.00570310
v 0.06827201 -0.01888653 -0.00509873
v 0.06879093 -0.01903671 -0.00454459
v 0.06893080 -0.01920548 -0.00467769
v 0.06857318 -0.01956465 -0.00533749
v 0.06942254 -0.01975335 -0.00401480
v 0.06939349 -0.01952162 -0.00398396
v 0.06928955 -0.01930228 -0.00393065
v 0.06912170 -0.01913246 -0.00386180
v 0.06956166 -0.02222420 0.00278983
v 0.06956166 -0.02222420 -0.00311184
v 0.06778259 -0.02222420 0.00553015
v 0.06798796 -0.02222420 0.00542909
v 0.06854971 -0.02222420 0.00503653
v 0.06886818 -0.02222420 0.00470815
v 0.06913302 -0.02222420 0.00433517
v 0.06941664 -0.02222420 0.00371128
v 0.06947859 -0.02222420 0.00349093
v 0.06946117 -0.02259920 -0.00311184
v 0.06934199 -0.02275453 -0.00311184
v 0.06928212 -0.02275453 -0.00368570
v 0.06918666 -0.02287372 -0.00311184
v 0.06907125 -0.02292784 -0.00311184
v 0.06901721 -0.02292784 -0.00362982
v 0.06745656 -0.02287372 -0.00557959
v 0.06750951 -0.02275453 -0.00572561
v 0.06802858 -0.02275453 -0.00547369
v 0.06951530 -0.02248379 -0.00311184
v 0.06945170 -0.02248379 -0.00372147
v 0.06949706 -0.02222420 -0.00373104
v 0.06933951 -0.02222420 -0.00424478
v 0.06918570 -0.02248379 -0.00446773
v 0.06922688 -0.02222420 -0.00448901
v 0.06873089 -0.02248379 -0.00511644
v 0.06876494 -0.02222420 -0.00514790
v 0.06812003 -0.02248379 -0.00562092
v 0.06814449 -0.02222420 -0.00566030
v 0.06857374 -0.02222420 -0.00533704
v 0.06758440 -0.02222420 -0.00593212
v 0.06756859 -0.02248379 -0.00588854
v 0.06755015 -0.02259920 -0.00583766
v 0.06774878 -0.02297420 -0.00502318
v 0.06732871 -0.02297420 -0.00522705
v 0.06741721 -0.02292784 -0.00547109
v 0.06788573 -0.02292784 -0.00524370
v 0.06840476 -0.02292784 -0.00481506
v 0.06821412 -0.02297420 -0.00463888
v 0.06879119 -0.02292784 -0.00426388
v 0.06856057 -0.02297420 -0.00414472
v 0.06876321 -0.02297420 -0.00357624
v 0.06881166 -0.02297420 -0.00311184
v 0.06903172 -0.02275453 -0.00438817
v 0.06860361 -0.02275453 -0.00499881
v 0.06881166 -0.02297420 0.00278983
v 0.06907125 -0.02292784 0.00278983
v 0.06918666 -0.02287372 0.00278983
v 0.06934199 -0.02275453 0.00278983
v 0.06946117 -0.02259920 0.00278983
v 0.06951530 -0.02248379 0.00278983
v 0.06709005 -0.02259920 0.00564080
v 0.06706833 -0.02275453 0.00552361
v 0.06769318 -0.02275453 0.00532950
v 0.06704003 -0.02287372 0.00537088
v 0.06701899 -0.02292784 0.00525740
v 0.06758300 -0.02292784 0.00508219
v 0.06926499 -0.02275453 0.00343960
v 0.06943351 -0.02248379 0.00348010
v 0.06851900 -0.02248379 0.00500181
v 0.06709991 -0.02248379 0.00569402
v 0.06776372 -0.02248379 0.00548781
v 0.06909329 -0.02248379 0.00431129
v 0.06874935 -0.02297420 0.00331566
v 0.06900175 -0.02292784 0.00337632
v 0.06871268 -0.02292784 0.00408255
v 0.06849018 -0.02297420 0.00394884
v 0.06822473 -0.02292784 0.00466926
v 0.06805270 -0.02297420 0.00447485
v 0.06747735 -0.02297420 0.00484507
v 0.06697169 -0.02297420 0.00500216
v 0.06840414 -0.02275453 0.00487202
v 0.06894474 -0.02275453 0.00422202
v 0.05667524 -0.02287372 0.00729188
v 0.05660690 -0.02297420 0.00692316
v 0.05686259 -0.02222420 -0.00982025
v 0.05682833 -0.02259920 -0.00972579
v 0.05678770 -0.02275453 -0.00961374
v 0.05673474 -0.02287372 -0.00946772
v 0.05660690 -0.02297420 -0.00911518
v 0.05462046 -0.02285485 0.00756522
v 0.05456639 -0.02290470 0.00729189
v 0.05253534 -0.02269662 0.00765891
v 0.05487309 -0.02215644 -0.01054172
v 0.05483786 -0.02243547 -0.01049698
v 0.05476385 -0.02269178 -0.01034108
v 0.05466499 -0.02285723 -0.01009956
v 0.05456639 -0.02290470 -0.00983664
v 0.05289281 -0.02195356 -0.01125984
v 0.05284403 -0.02221828 -0.01122530
v 0.05274856 -0.02249158 -0.01106528
v 0.05263141 -0.02266023 -0.01080595
v 0.05253534 -0.02269662 -0.01055477
v 0.00213369 -0.01579229 -0.02893550
v 0.00202632 -0.01577758 -0.02897312
v 0.00222976 -0.01575589 -0.02918668
v 0.00212281 -0.01573499 -0.02924109
v 0.00236845 -0.01503452 -0.02968357
v 0.00249116 -0.01504923 -0.02964057
v 0.00231627 -0.01531486 -0.02964282
v 0.00244237 -0.01531394 -0.02960603
v 0.00222827 -0.01557178 -0.02948675
v 0.00234691 -0.01558724 -0.02944601
v 0.00223605 -0.01575031 -0.02920192
v 0.00044568 -0.01485106 -0.03000000
v 0.00044568 0.00665000 -0.03000000
v 0.00142133 -0.01493244 -0.02992062
v 0.00096899 0.00665000 -0.02997714
v 0.00249116 0.00665000 -0.02964057
v 0.00149028 0.00665000 -0.02990837
v 0.00377867 0.01211545 -0.02673781
v 0.00396741 0.01162150 -0.02725826
v 0.00344690 0.01119081 -0.02783870
v 0.00423277 0.01065234 -0.02799001
v 0.00290697 0.00774173 -0.02945852
v 0.00309691 0.00718035 -0.02942090
v 0.00268132 0.00696413 -0.02957161
v 0.00153510 0.00738979 -0.02986304
v 0.00450568 0.00739975 -0.02891003
v 0.00356795 0.00730821 -0.02925008
v 0.00449802 0.00885814 -0.02872147
v 0.00363974 0.00816132 -0.02916320
v 0.00345923 0.00903206 -0.02902611
v 0.00217885 0.00949214 -0.02920107
v 0.00244024 0.00892182 -0.02935155
v 0.00188429 0.00882217 -0.02950641
v 0.00239350 0.00793988 -0.02959019
v 0.00166746 0.00811776 -0.02972850
v 0.00217905 0.00752266 -0.02970255
v 0.00252310 0.00678105 -0.02962899
v 0.00268417 0.00833489 -0.02943729
v 0.00323390 0.00988435 -0.02875778
v 0.00172240 0.01288619 -0.02583311
v 0.00203971 0.01251845 -0.02655580
v 0.00166336 0.01184315 -0.02754302
v 0.00196441 0.01134012 -0.02803713
v 0.00162169 0.01054368 -0.02871619
v 0.00189583 0.01309137 -0.02526707
v 0.00211039 0.01326989 -0.02456684
v 0.00245243 0.01300954 -0.02545822
v 0.00251386 0.01340000 -0.02325000
v 0.00288834 0.01329859 -0.02428266
v 0.00327132 0.01297345 -0.02533876
v 0.00363948 0.01240983 -0.02635397
v 0.00313761 0.01196126 -0.02713908
v 0.00311831 0.01313205 -0.02491682
v 0.00280030 0.01257332 -0.02633069
v 0.00267483 0.01140715 -0.02784687
v 0.00296949 0.01068606 -0.02836072
v 0.00254370 0.01011659 -0.02881705
v 0.00236096 0.01202326 -0.02723654
v 0.00226047 0.01076058 -0.02846632
v 0.00101167 0.00768345 -0.02989600
v 0.00082218 0.01053241 -0.02877122
v 0.00088308 0.01080091 -0.02857243
v 0.00133574 0.01100804 -0.02839203
v 0.00105144 0.01142297 -0.02802297
v 0.00133311 0.01219134 -0.02710364
v 0.00045219 0.00718296 -0.02997876
v 0.00048554 0.00796684 -0.02986989
v 0.00113759 0.00869268 -0.02965535
v 0.00057935 0.00903720 -0.02956374
v 0.00134332 0.00965362 -0.02925905
v 0.00427089 0.01047202 -0.02809516
v 0.00442106 0.00956866 -0.02850923
v 0.00023103 -0.01558648 -0.02925000
v 0.00023103 -0.01558648 0.02924979
v 0.00121835 -0.01567805 -0.02918051
v 0.00462500 0.01329952 -0.02262041
v 0.00455795 0.01325349 -0.02364758
v 0.00452774 0.01334668 -0.02262041
v 0.00425000 0.01340000 -0.02262041
v 0.00458678 0.01300207 -0.02464327
v 0.00461354 0.01259906 -0.02558097
v 0.00463762 0.01205659 -0.02643589
v 0.00465847 0.01138879 -0.02718506
v 0.00467568 0.01061451 -0.02780916
v 0.00468887 0.00975401 -0.02829109
v 0.00429216 0.01331767 -0.02365761
v 0.00433317 0.01307367 -0.02466642
v 0.00437190 0.01267396 -0.02561911
v 0.00440730 0.01213016 -0.02648987
v 0.00443838 0.01145655 -0.02725444
v 0.00446432 0.01067212 -0.02789241
v 0.00448437 0.00979790 -0.02838569
v 0.00425000 0.01340000 0.01876472
v 0.00452607 0.01334734 0.01876472
v 0.00462500 0.01329952 0.01876472
v 0.00430260 0.01337021 0.01955376
v 0.00459941 0.01320583 0.02030581
v 0.00435346 0.01328435 0.02031663
v 0.00438924 0.01318922 0.02085334
v 0.00466694 0.01284866 0.02178123
v 0.00446236 0.01289797 0.02195007
v 0.00472690 0.01228812 0.02313669
v 0.00455393 0.01231655 0.02332355
v 0.00459646 0.01194248 0.02396159
v 0.00462500 0.01164264 0.02438972
v 0.00309108 0.01150980 0.02610580
v 0.00243954 0.01230890 0.02545426
v 0.00173586 0.01287482 0.02475057
v 0.00111952 0.01318734 0.02413424
v 0.00026087 0.01338865 0.02327559
v 0.00025000 0.01340000 0.02276472
v 0.00297353 0.01145452 0.02629988
v 0.00237403 0.01223539 0.02566973
v 0.00168719 0.01282503 0.02495975
v 0.00095580 0.01320575 0.02421343
v 0.00027110 0.01337702 0.02352200
v 0.00030800 0.00665000 0.02993503
v 0.00097685 0.00665000 0.02973370
v 0.00099495 0.00783963 0.02962096
v 0.00030706 0.00793206 0.02981230
v 0.00104421 0.00892865 0.02930996
v 0.00030442 0.00915751 0.02945240
v 0.00111623 0.00988722 0.02884590
v 0.00030037 0.01029748 0.02886502
v 0.00274125 0.01109521 0.02694340
v 0.00200669 0.00902299 0.02880930
v 0.00188859 0.00831304 0.02910295
v 0.00120534 0.01071802 0.02826053
v 0.00169580 0.01020736 0.02838271
v 0.00130839 0.01142467 0.02757514
v 0.00183780 0.01084897 0.02782833
v 0.00142559 0.01201448 0.02679474
v 0.00200031 0.01140139 0.02719290
v 0.00155785 0.01248168 0.02592607
v 0.00218489 0.01186076 0.02647873
v 0.00069342 0.01117329 0.02807695
v 0.00075217 0.01191561 0.02725446
v 0.00081818 0.01250652 0.02632901
v 0.00089172 0.01293908 0.02531473
v 0.00215349 0.00965085 0.02843905
v 0.00232421 0.01020184 0.02800425
v 0.00251953 0.01068401 0.02750555
v 0.00029535 0.01130035 0.02807680
v 0.00028965 0.01214084 0.02710680
v 0.00028360 0.01277847 0.02600115
v 0.00027734 0.01319685 0.02478875
v 0.00084264 -0.01510122 0.02978099
v 0.00036564 -0.01500314 0.02992098
v 0.00030800 -0.01498366 0.02993503
v 0.00138305 -0.01520962 -0.02987242
v 0.00132815 -0.01546438 -0.02970847
v 0.00126841 -0.01562950 -0.02945557
v 0.00042507 -0.01510466 -0.02995552
v 0.00040292 -0.01537715 -0.02978282
v 0.00038872 -0.01555184 -0.02951108
v 0.00025000 0.00665000 -0.03000000
v 0.00025000 -0.01485106 -0.03000000
v 0.00025000 0.01142297 -0.02802297
v 0.00025000 0.01053129 -0.02877251
v 0.00025000 0.00754857 -0.02993992
v 0.00025000 0.00843114 -0.02976076
v 0.00025000 0.00952401 -0.02935758
v 0.00025000 0.01316076 -0.02503114
v 0.00025000 0.01275758 -0.02612401
v 0.00025000 0.01217251 -0.02713129
v 0.00025000 0.01340000 -0.02325000
v 0.00025000 0.01333992 -0.02414857
v 0.00023833 -0.01535171 0.02979483
v 0.00023370 -0.01552504 0.02954608
v 0.00070971 -0.01556929 0.02948472
v 0.00111711 -0.01564127 0.02925867
v 0.00014387 -0.01556356 -0.02925000
v 0.00014387 -0.01556356 0.02924979
v 0.00011420 -0.01554711 -0.02925000
v 0.00011420 -0.01554711 0.02924979
v 0.00006584 -0.01550627 -0.02925000
v 0.00006584 -0.01550627 0.02924979
v 0.00003040 -0.01545668 -0.02925000
v 0.00003040 -0.01545668 0.02924979
v -0.00000000 -0.01533720 0.02924979
v -0.00000000 -0.01533720 -0.02925000
v 0.00034755 -0.01485600 -0.02999989
v 0.00023246 -0.01553086 -0.02953133
v 0.00023643 -0.01537519 -0.02977162
v 0.00024237 -0.01514062 -0.02993482
v 0.00024937 -0.01486077 -0.02999958
v -0.00000000 0.01038753 -0.02856797
v -0.00000000 0.00941757 -0.02913138
v -0.00000000 0.01315000 0.02276472
v -0.00000000 -0.01533460 -0.02930023
v -0.00000000 0.00665000 0.02969185
v -0.00000000 0.01313912 0.02326472
v -0.00000000 -0.01526970 0.02949993
v -0.00000000 -0.01518032 0.02961320
v -0.00000000 -0.01513742 0.02964661
v -0.00000000 -0.01499566 0.02969159
v -0.00000000 -0.01498366 0.02969185
v -0.00000000 0.01315000 -0.02325000
v -0.00000000 -0.01485247 -0.02974972
v -0.00000000 -0.01508242 -0.02968499
v -0.00000000 -0.01525586 -0.02952266
v -0.00000000 0.01312817 0.02351067
v -0.00000000 0.00788580 0.02957333
v -0.00000000 0.00906676 0.02922590
v -0.00000000 -0.01484518 -0.02975000
v -0.00000000 0.00665000 -0.02975000
v -0.00000000 0.00836517 -0.02951962
v -0.00000000 0.00751529 -0.02969215
v -0.00000000 0.01309215 -0.02411529
v -0.00000000 0.01291962 -0.02496517
v -0.00000000 0.01253138 -0.02601757
v -0.00000000 0.01113063 0.02789892
v -0.00000000 0.01193959 0.02696387
v -0.00000000 0.01255300 0.02589849
v -0.00000000 0.01016495 0.02865911
v -0.00000000 0.01295524 0.02473062
v -0.00000000 0.01196797 -0.02698753
v -0.00000000 0.01124620 -0.02784619
v 0.00016593 0.01337434 0.02327497
v 0.00015908 0.01338288 0.02276472
v 0.00012500 0.01336651 0.02276472
v 0.00007711 0.01331953 0.02327258
v 0.00007322 0.01332678 0.02276472
v 0.00001844 0.01323326 0.02326882
v 0.00003349 0.01327500 0.02276472
v 0.00001928 0.01322434 0.02351505
v 0.00008085 0.01331206 0.02351904
v 0.00017354 0.01336594 0.02352150
v 0.00019615 0.00665000 0.02993598
v 0.00009508 0.00665000 0.02988806
v 0.00020132 0.00793241 0.02981408
v 0.00002502 0.00665000 0.02980087
v 0.00009470 0.00792303 0.02976568
v 0.00002237 0.00790544 0.02967481
v 0.00019922 0.00915780 0.02945313
v 0.00019602 0.01029707 0.02886437
v 0.00019208 0.01129851 0.02807488
v 0.00018765 0.01213698 0.02710405
v 0.00018300 0.01277221 0.02599830
v 0.00017824 0.01318808 0.02478664
v 0.00009364 0.00913931 0.02940697
v 0.00009203 0.01026982 0.02882205
v 0.00009006 0.01126327 0.02803794
v 0.00008785 0.01209472 0.02707405
v 0.00008553 0.01272436 0.02597651
v 0.00008317 0.01313627 0.02477417
v 0.00002213 0.00910501 0.02932137
v 0.00002178 0.01022019 0.02874493
v 0.00002134 0.01120040 0.02797205
v 0.00002085 0.01202108 0.02702175
v 0.00002034 0.01264288 0.02593942
v 0.00001981 0.01305006 0.02475343
v 0.00019615 -0.01498366 0.02993598
v 0.00009508 -0.01498366 0.02988806
v 0.00002502 -0.01498366 0.02980087
v 0.00026860 -0.01520522 0.02989276
v 0.00025516 -0.01527170 0.02985742
v 0.00029656 -0.01518373 0.02989916
v 0.00028200 -0.01513418 0.02991786
v 0.00031355 -0.01514367 0.02991069
v 0.00029519 -0.01505988 0.02993214
v 0.00081655 -0.01524342 0.02976757
v 0.00117657 -0.01557978 0.02939739
v 0.00024734 -0.01531003 0.02983065
v 0.00123880 -0.01546613 0.02951179
v 0.00070373 -0.01553039 0.02956309
v 0.00072899 -0.01548931 0.02961922
v 0.00077715 -0.01537919 0.02971206
v 0.00000363 -0.01484610 -0.02979244
v 0.00003349 0.00665000 -0.02987500
v 0.00003349 -0.01484797 -0.02987500
v 0.00005361 -0.01484868 -0.02990470
v 0.00012500 0.00665000 -0.02996651
v 0.00012500 -0.01485019 -0.02996651
v 0.00014862 -0.01485050 -0.02997852
v 0.00003349 0.01327500 -0.02325000
v 0.00003349 0.01321604 -0.02413193
v 0.00012500 0.01336651 -0.02325000
v 0.00012500 0.01330673 -0.02414411
v 0.00012500 0.01312846 -0.02502231
v 0.00012500 0.01272728 -0.02610975
v 0.00012500 0.01214511 -0.02711203
v 0.00012500 0.01139929 -0.02799929
v 0.00012500 0.01051203 -0.02874511
v 0.00012500 0.00950975 -0.02932728
v 0.00012500 0.00842231 -0.02972846
v 0.00012500 0.00754411 -0.02990673
v 0.00003349 0.01304019 -0.02499816
v 0.00003349 0.01264448 -0.02607079
v 0.00003349 0.01207024 -0.02705941
v 0.00003349 0.01133458 -0.02793458
v 0.00003349 0.01045941 -0.02867024
v 0.00003349 0.00947079 -0.02924448
v 0.00003349 0.00839816 -0.02964019
v 0.00003349 0.00753193 -0.02981604
v 0.00001565 -0.01537600 0.02948176
v 0.00006675 -0.01545215 0.02951459
v 0.00014576 -0.01550463 0.02953724
v 0.00001662 -0.01524183 0.02967839
v 0.00006915 -0.01529878 0.02973873
v 0.00014957 -0.01533744 0.02977971
v 0.00001631 -0.01507540 -0.02978768
v 0.00001685 -0.01485547 -0.02983991
v 0.00006970 -0.01510959 -0.02986473
v 0.00007213 -0.01485830 -0.02992530
v 0.00015193 -0.01513258 -0.02991661
v 0.00015697 -0.01486017 -0.02998164
v 0.00014770 -0.01535974 -0.02975663
v 0.00006767 -0.01531880 -0.02971688
v 0.00001586 -0.01525894 -0.02965878
v 0.00014488 -0.01550997 -0.02952282
v 0.00006632 -0.01545700 -0.02950128
v 0.00001556 -0.01538039 -0.02947017
v 0.00016174 -0.01526308 0.02984389
v 0.00001797 -0.01518742 0.02972510
v 0.00007506 -0.01523337 0.02979724
v 0.00008892 -0.01505196 0.02987803
v 0.00007897 -0.01517750 0.02983180
v 0.00008390 -0.01511689 0.02985927
v 0.00001944 -0.01509129 0.02977280
v 0.00019131 -0.01505947 0.02992930
v 0.00018116 -0.01513205 0.02991056
v 0.00017108 -0.01520025 0.02988174
v 0.03618516 -0.01001411 -0.01742187
v 0.01915239 -0.01733159 -0.02359858
v 0.02057686 -0.01394295 -0.02308202
v 0.03026978 -0.01354545 -0.01956701
v 0.03100465 -0.01332856 -0.01930051
v 0.03168428 -0.01297206 -0.01905405
v 0.01884956 -0.01806259 -0.02305302
v 0.01899099 -0.01781467 -0.02346099
v 0.01889110 -0.01801180 -0.02320895
v 0.01907533 -0.01758828 -0.02357559
v 0.03016585 -0.00809541 -0.01960469
f 9 222 241
f 241 222 224
f 219 476 146
f 476 149 478
f 385 292 386
f 220 136 135
f 141 146 145
f 145 146 476
f 476 478 145
f 147 476 219
f 147 149 476
f 156 478 157
f 157 478 149
f 303 328 332
f 158 328 303
f 477 478 156
f 153 477 156
f 386 292 262
f 225 239 240
f 240 224 225
f 241 224 240
f 240 239 242
f 248 246 249
f 241 240 243
f 243 240 242
f 247 260 249
f 249 246 247
f 24 27 26
f 29 26 27
f 4 5 21
f 25 27 24
f 25 4 21
f 24 3 25
f 3 4 25
f 249 260 280
f 280 285 284
f 260 285 280
f 284 290 283
f 265 273 267
f 267 273 272
f 291 290 284
f 284 285 291
f 292 385 291
f 291 285 292
f 209 210 189
f 332 328 299
f 299 328 158
f 326 325 442
f 442 325 443
f 443 325 323
f 220 316 315
f 220 135 317
f 317 316 220
f 317 135 134
f 134 316 317
f 36 293 57
f 57 34 36
f 144 477 143
f 144 145 478
f 478 477 144
f 150 157 149
f 84 129 471
f 261 262 292
f 261 285 255
f 292 285 261
f 242 239 256
f 256 262 242
f 256 239 257
f 254 285 260
f 260 247 254
f 255 285 254
f 254 247 255
f 244 243 242
f 242 262 244
f 262 261 244
f 246 243 245
f 245 247 246
f 243 244 245
f 255 247 245
f 245 261 255
f 245 244 261
f 55 3 24
f 21 5 7
f 253 259 249
f 249 280 253
f 253 280 259
f 287 12 288
f 278 280 284
f 284 283 278
f 249 259 250
f 281 250 259
f 251 250 281
f 259 280 281
f 280 278 281
f 272 286 269
f 269 267 272
f 12 35 14
f 14 250 251
f 14 288 12
f 271 288 14
f 37 286 272
f 272 273 37
f 287 286 37
f 37 12 287
f 37 35 12
f 37 265 36
f 37 273 265
f 36 34 37
f 34 35 37
f 385 390 384
f 384 291 385
f 290 291 384
f 189 210 188
f 227 226 47
f 194 225 232
f 232 195 194
f 225 224 232
f 313 312 194
f 194 195 313
f 235 227 228
f 200 197 198
f 205 209 189
f 189 201 205
f 307 433 432
f 306 433 307
f 184 179 178
f 324 327 336
f 336 459 324
f 347 459 336
f 456 459 347
f 347 346 456
f 456 346 448
f 324 459 458
f 459 456 458
f 300 299 296
f 296 297 300
f 332 299 331
f 330 452 331
f 331 300 330
f 299 300 331
f 448 346 415
f 415 449 448
f 351 352 415
f 415 352 416
f 416 449 415
f 417 449 416
f 448 449 417
f 417 450 448
f 36 265 264
f 265 263 264
f 264 293 36
f 264 263 293
f 412 315 316
f 412 314 315
f 413 314 412
f 102 111 101
f 134 135 128
f 138 144 143
f 145 144 140
f 141 145 140
f 140 133 141
f 140 132 133
f 149 147 148
f 148 221 149
f 148 147 219
f 219 221 148
f 330 300 329
f 155 150 297
f 155 153 156
f 156 157 155
f 157 150 155
f 296 153 155
f 155 297 296
f 420 450 451
f 452 450 420
f 479 153 154
f 477 153 479
f 143 477 479
f 479 142 143
f 479 471 142
f 172 42 470
f 470 42 84
f 154 153 151
f 174 42 172
f 397 392 398
f 241 243 23
f 243 19 23
f 246 248 15
f 15 248 249
f 17 243 246
f 17 19 243
f 246 15 17
f 133 132 89
f 287 288 277
f 274 269 275
f 287 277 275
f 275 277 274
f 275 286 287
f 275 269 286
f 258 281 271
f 271 14 258
f 33 31 16
f 16 14 33
f 33 14 35
f 204 200 198
f 187 200 204
f 198 201 204
f 211 187 204
f 204 188 211
f 189 188 204
f 204 201 189
f 84 42 82
f 222 9 10
f 222 10 54
f 223 232 224
f 223 224 222
f 222 54 223
f 226 233 223
f 223 233 232
f 312 313 425
f 198 197 164
f 197 235 164
f 234 235 197
f 227 235 234
f 234 200 196
f 197 200 234
f 196 233 234
f 226 227 234
f 234 233 226
f 441 432 433
f 441 352 354
f 416 352 441
f 453 303 332
f 332 331 453
f 453 331 452
f 452 420 453
f 453 420 421
f 208 209 190
f 209 205 190
f 177 178 179
f 179 216 177
f 185 178 177
f 324 458 322
f 455 458 456
f 455 456 448
f 448 450 455
f 351 415 345
f 345 415 346
f 416 451 418
f 418 417 416
f 451 450 418
f 450 417 418
f 444 446 443
f 444 319 220
f 220 315 444
f 414 404 402
f 414 314 413
f 294 407 293
f 295 407 294
f 293 263 294
f 294 263 295
f 127 316 134
f 127 412 316
f 134 128 127
f 111 102 103
f 129 138 137
f 142 471 137
f 137 471 129
f 143 142 137
f 137 138 143
f 139 140 144
f 144 138 139
f 131 132 139
f 132 140 139
f 139 130 131
f 139 138 130
f 297 150 298
f 298 300 297
f 298 150 149
f 475 470 84
f 154 151 152
f 152 479 154
f 471 479 152
f 152 151 162
f 160 153 296
f 160 151 153
f 160 299 158
f 296 299 160
f 173 168 172
f 168 182 180
f 172 168 175
f 175 174 172
f 175 180 184
f 168 180 175
f 184 178 176
f 176 175 184
f 174 175 176
f 218 174 176
f 185 218 176
f 176 178 185
f 185 177 203
f 203 190 205
f 216 190 203
f 203 177 216
f 202 201 166
f 202 205 201
f 202 203 205
f 202 217 185
f 185 203 202
f 236 235 228
f 359 397 360
f 398 362 360
f 360 397 398
f 391 390 385
f 392 397 391
f 391 385 386
f 386 392 391
f 398 392 373
f 11 7 9
f 11 9 241
f 241 23 11
f 21 7 11
f 11 23 21
f 22 23 19
f 21 23 22
f 27 25 22
f 22 25 21
f 13 15 249
f 249 250 13
f 250 14 13
f 13 14 16
f 16 15 13
f 18 31 29
f 16 31 18
f 18 15 16
f 18 17 15
f 24 26 63
f 26 62 63
f 63 55 24
f 104 55 63
f 29 31 28
f 26 29 28
f 66 65 67
f 133 89 88
f 70 132 131
f 70 89 132
f 279 288 271
f 279 277 288
f 271 281 279
f 279 281 278
f 252 14 251
f 252 258 14
f 251 281 252
f 281 258 252
f 396 395 390
f 396 397 359
f 390 391 396
f 396 391 397
f 389 384 390
f 390 395 389
f 389 395 394
f 358 396 359
f 395 396 358
f 380 337 378
f 52 2 1
f 1 51 52
f 53 2 52
f 42 174 44
f 44 174 218
f 89 70 90
f 78 77 80
f 48 54 53
f 48 223 54
f 47 226 48
f 226 223 48
f 6 2 53
f 8 10 9
f 8 54 10
f 9 7 8
f 53 54 8
f 8 6 53
f 199 233 196
f 195 232 199
f 232 233 199
f 192 313 195
f 195 199 192
f 192 199 191
f 186 200 187
f 312 425 424
f 422 369 424
f 355 344 423
f 423 344 422
f 422 424 423
f 423 424 425
f 208 305 304
f 304 188 210
f 304 209 208
f 210 209 304
f 307 215 214
f 214 216 179
f 214 215 216
f 213 306 307
f 213 206 306
f 307 214 213
f 213 214 206
f 161 160 158
f 438 364 437
f 440 441 354
f 432 441 440
f 437 364 436
f 207 190 216
f 207 305 208
f 208 190 207
f 320 322 458
f 458 455 457
f 318 320 457
f 457 320 458
f 219 318 457
f 457 329 219
f 454 450 452
f 454 455 450
f 454 452 330
f 454 457 455
f 330 329 454
f 329 457 454
f 399 407 295
f 446 444 447
f 315 314 447
f 447 444 315
f 326 442 339
f 411 414 413
f 408 414 105
f 408 57 293
f 408 115 57
f 293 407 408
f 408 407 406
f 406 404 408
f 404 414 408
f 314 414 410
f 406 407 405
f 402 404 405
f 405 404 406
f 413 108 106
f 106 411 413
f 105 414 106
f 414 411 106
f 412 127 409
f 127 108 409
f 413 412 409
f 409 108 413
f 109 108 127
f 109 128 124
f 109 127 128
f 64 65 66
f 301 329 300
f 300 298 301
f 219 329 301
f 301 221 219
f 149 221 301
f 301 298 149
f 470 480 170
f 170 182 168
f 473 480 470
f 171 161 206
f 167 202 166
f 217 202 167
f 165 236 166
f 165 201 198
f 166 201 165
f 198 164 165
f 165 164 235
f 235 236 165
f 371 369 422
f 365 256 257
f 338 348 370
f 370 335 338
f 344 335 370
f 422 344 370
f 370 371 422
f 20 22 19
f 19 17 20
f 17 18 20
f 20 18 29
f 20 29 27
f 27 22 20
f 104 63 112
f 112 103 104
f 111 103 112
f 112 63 62
f 112 116 111
f 62 116 112
f 34 57 58
f 57 115 58
f 1 56 75
f 75 51 1
f 92 93 94
f 131 130 86
f 277 279 276
f 276 282 274
f 274 277 276
f 283 282 276
f 276 278 283
f 276 279 278
f 290 384 383
f 384 389 383
f 394 395 361
f 395 358 361
f 361 350 394
f 337 380 349
f 378 376 379
f 379 380 378
f 376 375 379
f 238 44 218
f 238 218 185
f 185 217 238
f 46 44 230
f 98 77 97
f 87 88 89
f 89 90 87
f 91 93 92
f 92 87 91
f 91 87 90
f 98 97 91
f 91 97 93
f 79 77 98
f 79 80 77
f 79 83 80
f 53 52 49
f 49 48 53
f 47 48 49
f 193 199 196
f 191 199 193
f 193 186 191
f 196 200 193
f 200 186 193
f 313 192 309
f 309 192 191
f 191 186 309
f 181 214 179
f 206 214 181
f 181 171 206
f 181 179 184
f 184 180 181
f 181 180 182
f 182 171 181
f 306 206 212
f 206 161 212
f 364 438 333
f 429 438 437
f 353 440 354
f 363 436 364
f 443 323 321
f 321 444 443
f 319 444 321
f 467 399 400
f 467 400 463
f 407 399 467
f 467 405 407
f 463 400 401
f 461 464 466
f 466 341 461
f 105 115 114
f 114 408 105
f 115 408 114
f 402 469 403
f 403 414 402
f 403 410 414
f 107 115 105
f 105 106 107
f 107 106 108
f 121 125 107
f 110 109 124
f 121 107 110
f 108 109 110
f 110 107 108
f 122 120 121
f 121 110 122
f 118 100 101
f 101 111 118
f 169 173 172
f 172 470 169
f 470 170 169
f 168 173 169
f 169 170 168
f 183 152 162
f 183 170 152
f 182 170 183
f 472 170 480
f 472 473 471
f 480 473 472
f 471 152 472
f 152 170 472
f 470 475 474
f 474 473 470
f 474 475 84
f 84 471 474
f 471 473 474
f 163 171 182
f 163 183 162
f 182 183 163
f 162 151 163
f 151 160 163
f 160 161 163
f 161 171 163
f 166 236 237
f 237 167 166
f 217 167 237
f 237 238 217
f 237 230 238
f 369 371 368
f 373 365 368
f 371 370 368
f 262 256 374
f 256 365 374
f 386 262 374
f 374 365 373
f 374 392 386
f 374 373 392
f 366 365 257
f 257 312 366
f 312 424 366
f 372 370 348
f 372 348 362
f 372 362 398
f 398 373 372
f 373 368 372
f 372 368 370
f 31 33 30
f 30 28 31
f 113 58 115
f 113 59 58
f 115 107 113
f 113 107 125
f 51 75 76
f 76 77 78
f 74 56 73
f 74 75 56
f 73 64 74
f 74 64 66
f 66 97 74
f 74 97 77
f 77 76 74
f 74 76 75
f 69 94 93
f 69 67 68
f 66 67 69
f 69 97 66
f 93 97 69
f 71 70 131
f 131 86 71
f 85 129 84
f 85 138 129
f 84 82 85
f 130 138 85
f 85 86 130
f 289 283 290
f 290 383 289
f 289 282 283
f 388 389 394
f 388 383 389
f 377 375 263
f 377 379 375
f 380 379 387
f 44 238 231
f 231 230 44
f 238 230 231
f 46 230 229
f 229 236 228
f 229 237 236
f 230 237 229
f 40 49 52
f 310 186 187
f 310 309 186
f 310 427 309
f 435 363 357
f 436 363 435
f 434 356 355
f 355 423 434
f 427 435 434
f 357 356 434
f 434 435 357
f 306 212 302
f 303 453 302
f 427 310 311
f 211 188 311
f 188 304 311
f 311 187 211
f 311 310 187
f 430 304 305
f 430 429 304
f 438 429 430
f 430 431 438
f 438 431 439
f 334 333 439
f 439 333 438
f 439 353 334
f 440 353 439
f 432 440 439
f 439 431 432
f 307 432 308
f 432 431 308
f 308 215 307
f 216 215 308
f 308 207 216
f 305 207 308
f 308 430 305
f 431 430 308
f 468 467 463
f 405 467 468
f 468 469 402
f 402 405 468
f 469 464 460
f 460 403 469
f 410 403 460
f 460 447 314
f 314 410 460
f 342 341 466
f 342 401 343
f 466 401 342
f 340 339 445
f 445 339 442
f 446 461 445
f 445 341 340
f 445 461 341
f 445 442 443
f 443 446 445
f 462 461 446
f 464 461 462
f 462 460 464
f 446 447 462
f 447 460 462
f 123 110 124
f 123 122 110
f 99 100 117
f 100 118 117
f 126 125 121
f 111 116 126
f 116 113 126
f 126 113 125
f 367 424 369
f 367 366 424
f 369 368 367
f 367 368 365
f 365 366 367
f 32 30 33
f 59 30 32
f 32 35 34
f 32 33 35
f 34 58 32
f 58 59 32
f 28 30 61
f 61 116 62
f 61 62 26
f 26 28 61
f 94 69 95
f 68 96 95
f 95 69 68
f 72 71 86
f 72 79 98
f 98 91 72
f 72 91 90
f 72 90 70
f 70 71 72
f 382 289 383
f 383 388 382
f 388 387 382
f 266 263 265
f 266 377 263
f 265 267 266
f 394 350 393
f 393 388 394
f 393 387 388
f 380 387 393
f 350 349 393
f 393 349 380
f 38 76 78
f 51 76 38
f 38 52 51
f 38 40 52
f 80 83 50
f 47 49 45
f 49 40 45
f 228 227 45
f 45 227 47
f 45 229 228
f 46 229 45
f 426 423 425
f 426 434 423
f 426 425 313
f 313 309 426
f 309 427 426
f 427 434 426
f 433 306 419
f 306 302 419
f 416 441 419
f 419 441 433
f 419 451 416
f 419 420 451
f 421 420 419
f 419 453 421
f 419 302 453
f 159 161 158
f 159 212 161
f 159 302 212
f 437 436 428
f 428 429 437
f 427 311 428
f 304 429 428
f 428 311 304
f 436 435 428
f 428 435 427
f 465 464 469
f 469 468 465
f 465 468 463
f 466 464 465
f 463 401 465
f 465 401 466
f 119 126 121
f 121 120 119
f 119 118 111
f 111 126 119
f 120 117 119
f 119 117 118
f 116 61 60
f 60 113 116
f 59 113 60
f 60 30 59
f 60 61 30
f 86 85 81
f 81 72 86
f 81 85 82
f 79 72 81
f 82 83 81
f 83 79 81
f 282 289 270
f 289 382 270
f 274 282 270
f 270 269 274
f 268 266 267
f 377 266 268
f 267 269 268
f 269 270 268
f 39 38 78
f 40 38 39
f 78 80 39
f 80 50 39
f 39 50 40
f 41 82 42
f 42 44 41
f 41 83 82
f 41 50 83
f 40 50 43
f 43 45 40
f 50 41 43
f 43 41 44
f 43 44 46
f 46 45 43
f 381 382 387
f 377 268 381
f 381 270 382
f 381 268 270
f 379 377 381
f 381 387 379
f 146 136 220
f 146 220 219
f 136 146 135
f 135 146 141
f 326 327 325
f 325 327 324
f 312 225 194
f 257 239 312
f 312 239 225
f 219 220 319
f 319 318 219
f 128 135 141
f 141 133 128
f 2 4 3
f 2 3 1
f 322 325 324
f 322 323 325
f 1 3 56
f 3 55 56
f 56 55 104
f 104 73 56
f 65 102 67
f 67 102 101
f 101 100 67
f 100 68 67
f 96 68 100
f 96 100 99
f 4 2 6
f 5 4 6
f 5 6 8
f 8 7 5
f 376 400 399
f 399 375 376
f 295 263 399
f 263 375 399
f 64 102 65
f 64 103 102
f 64 73 104
f 104 103 64
f 323 322 321
f 322 320 321
f 318 319 321
f 321 320 318
f 401 400 376
f 401 376 378
f 337 343 401
f 378 337 401
f 347 336 342
f 354 352 342
f 342 327 326
f 342 346 347
f 338 335 342
f 351 345 342
f 342 348 338
f 337 349 342
f 342 352 351
f 342 344 355
f 364 333 342
f 342 336 327
f 342 343 337
f 342 358 359
f 359 360 342
f 350 361 342
f 355 356 342
f 342 353 354
f 342 345 346
f 342 363 364
f 362 348 342
f 342 360 362
f 342 335 344
f 326 339 342
f 342 339 340
f 342 361 358
f 342 349 350
f 342 356 357
f 342 333 334
f 334 353 342
f 357 363 342
f 340 341 342
f 95 128 133
f 133 88 95
f 95 96 99
f 124 128 95
f 95 123 124
f 92 94 95
f 95 87 92
f 99 117 95
f 88 87 95
f 120 122 95
f 122 123 95
f 95 117 120
f 303 302 159
f 158 303 159

