# https://github.com/mikedh/trimesh
v 0.06902467 0.01906514 -0.00311184
v 0.06923527 0.01916534 0.00278983
v 0.06930370 0.01921822 -0.00311184
v 0.06930370 0.01921822 0.00278983
v 0.06941260 0.01933551 0.00278983
v 0.06941260 0.01933551 -0.00311184
v 0.06949413 0.01947323 0.00278983
v 0.06949413 0.01947323 -0.00311184
v 0.06956166 0.01978425 -0.00311184
v 0.06956166 0.01978425 0.00278983
v 0.06937269 0.01932473 0.00325901
v 0.06948261 0.01954340 0.00328962
v 0.06925452 0.01929282 0.00371493
v 0.06935593 0.01951245 0.00377511
v 0.06906085 0.01924056 0.00414455
v 0.06914840 0.01946178 0.00423226
v 0.06879741 0.01916951 0.00453580
v 0.06886622 0.01939297 0.00464807
v 0.06847104 0.01908158 0.00487710
v 0.06851688 0.01930788 0.00501015
v 0.06809100 0.01897929 0.00515883
v 0.06811047 0.01920906 0.00530817
v 0.06766763 0.01886549 0.00537209
v 0.06765822 0.01909931 0.00553271
v 0.06919844 0.01915468 0.00321966
v 0.06908938 0.01912310 0.00363706
v 0.06891079 0.01907140 0.00402985
v 0.06866810 0.01900116 0.00438678
v 0.06836790 0.01891428 0.00469714
v 0.06801898 0.01881332 0.00495208
v 0.06951654 0.01977423 0.00330755
v 0.06940677 0.01974984 0.00374129
v 0.06916453 0.01969603 0.00428127
v 0.06886818 0.01963019 0.00470815
v 0.06850246 0.01954894 0.00507733
v 0.06814293 0.01946907 0.00533925
v 0.06760919 0.01935049 0.00560089
v 0.06956166 0.02222420 0.00278983
v 0.06956166 0.02222420 -0.00311184
v 0.06933926 0.01973484 -0.00424528
v 0.06942254 0.01975335 -0.00401480
v 0.06939349 0.01952162 -0.00398396
v 0.06827201 0.01888653 -0.00509873
v 0.06836667 0.01905347 -0.00528688
v 0.06764516 0.01885946 -0.00570310
v 0.06840523 0.01928071 -0.00542511
v 0.06763205 0.01910976 -0.00587138
v 0.06838584 0.01952303 -0.00549351
v 0.06758440 0.01934498 -0.00593212
v 0.06879093 0.01903671 -0.00454459
v 0.06893080 0.01920548 -0.00467769
v 0.06900907 0.01942779 -0.00477873
v 0.06857318 0.01956465 -0.00533749
v 0.06901810 0.01966349 -0.00483401
v 0.06912170 0.01913246 -0.00386180
v 0.06928955 0.01930228 -0.00393065
v 0.06918666 0.02287372 -0.00311184
v 0.06934199 0.02275453 -0.00311184
v 0.06928212 0.02275453 -0.00368570
v 0.06755015 0.02259920 -0.00583766
v 0.06750951 0.02275453 -0.00572561
v 0.06802858 0.02275453 -0.00547369
v 0.06745656 0.02287372 -0.00557959
v 0.06741721 0.02292784 -0.00547109
v 0.06788573 0.02292784 -0.00524370
v 0.06881166 0.02297420 -0.00311184
v 0.06907125 0.02292784 -0.00311184
v 0.06901721 0.02292784 -0.00362982
v 0.06876321 0.02297420 -0.00357624
v 0.06879119 0.02292784 -0.00426388
v 0.06856057 0.02297420 -0.00414472
v 0.06840476 0.02292784 -0.00481506
v 0.06821412 0.02297420 -0.00463888
v 0.06774878 0.02297420 -0.00502318
v 0.06732871 0.02297420 -0.00522705
v 0.06758440 0.02222420 -0.00593212
v 0.06756859 0.02248379 -0.00588854
v 0.06814449 0.02222420 -0.00566030
v 0.06812003 0.02248379 -0.00562092
v 0.06857374 0.02222420 -0.00533704
v 0.06873089 0.02248379 -0.00511644
v 0.06876494 0.02222420 -0.00514790
v 0.06918570 0.02248379 -0.00446773
v 0.06922688 0.02222420 -0.00448901
v 0.06945170 0.02248379 -0.00372147
v 0.06949706 0.02222420 -0.00373104
v 0.06933951 0.02222420 -0.00424478
v 0.06951530 0.02248379 -0.00311184
v 0.06946117 0.02259920 -0.00311184
v 0.06860361 0.02275453 -0.00499881
v 0.06903172 0.02275453 -0.00438817
v 0.06704003 0.02287372 0.00537088
v 0.06706833 0.02275453 0.00552361
v 0.06769318 0.02275453 0.00532950
v 0.06709005 0.02259920 0.00564080
v 0.06709991 0.02248379 0.00569402
v 0.06776372 0.02248379 0.00548781
v 0.06946117 0.02259920 0.00278983
v 0.06934199 0.02275453 0.00278983
v 0.06926499 0.02275453 0.00343960
v 0.06918666 0.02287372 0.00278983
v 0.06907125 0.02292784 0.00278983
v 0.06900175 0.02292784 0.00337632
v 0.06697169 0.02297420 0.00500216
v 0.06701899 0.02292784 0.00525740
v 0.06758300 0.02292784 0.00508219
v 0.06747735 0.02297420 0.00484507
v 0.06822473 0.02292784 0.00466926
v 0.06805270 0.02297420 0.00447485
v 0.06871268 0.02292784 0.00408255
v 0.06849018 0.02297420 0.00394884
v 0.06874935 0.02297420 0.00331566
v 0.06881166 0.02297420 0.00278983
v 0.06951530 0.02248379 0.00278983
v 0.06947859 0.02222420 0.00349093
v 0.06943351 0.02248379 0.00348010
v 0.06941664 0.02222420 0.00371128
v 0.06913302 0.02222420 0.00433517
v 0.06909329 0.02248379 0.00431129
v 0.06886818 0.02222420 0.00470815
v 0.06851900 0.02248379 0.00500181
v 0.06854971 0.02222420 0.00503653
v 0.06798796 0.02222420 0.00542909
v 0.06778259 0.02222420 0.00553015
v 0.06894474 0.02275453 0.00422202
v 0.06840414 0.02275453 0.00487202
v 0.05660690 0.02297420 0.00692316
v 0.05667524 0.02287372 0.00729188
v 0.05660690 0.02297420 -0.00911518
v 0.05673474 0.02287372 -0.00946772
v 0.05678770 0.02275453 -0.00961374
v 0.05682833 0.02259920 -0.00972579
v 0.05686259 0.02222420 -0.00982025
v 0.05456639 0.02290470 -0.00983664
v 0.05466499 0.02285723 -0.01009956
v 0.05476385 0.02269178 -0.01034108
v 0.05483786 0.02243547 -0.01049698
v 0.05487309 0.02215644 -0.01054172
v 0.05253534 0.02269662 -0.01055477
v 0.05263141 0.02266023 -0.01080595
v 0.05274856 0.02249158 -0.01106528
v 0.05284403 0.02221828 -0.01122530
v 0.05289281 0.02195356 -0.01125984
v 0.05456639 0.02290470 0.00729189
v 0.05253534 0.02269662 0.00765891
v 0.05462046 0.02285485 0.00756522
v 0.00202632 0.01577758 -0.02897312
v 0.00213369 0.01579229 -0.02893550
v 0.00212283 0.01573497 -0.02924115
v 0.00222976 0.01575589 -0.02918668
v 0.00222829 0.01557175 -0.02948678
v 0.00234691 0.01558724 -0.02944601
v 0.00231627 0.01531485 -0.02964283
v 0.00244237 0.01531394 -0.02960603
v 0.00236845 0.01503452 -0.02968357
v 0.00249116 0.01504923 -0.02964057
v 0.00044568 -0.00665000 -0.03000000
v 0.00044568 0.01485106 -0.03000000
v 0.00149028 -0.00665000 -0.02990837
v 0.00142133 0.01493244 -0.02992062
v 0.00200351 -0.00665000 -0.02979424
v 0.00249116 -0.00665000 -0.02964057
v 0.00245243 -0.01300954 -0.02545822
v 0.00288834 -0.01329859 -0.02428266
v 0.00251386 -0.01340000 -0.02325000
v 0.00313761 -0.01196126 -0.02713908
v 0.00363948 -0.01240983 -0.02635397
v 0.00327132 -0.01297345 -0.02533876
v 0.00311831 -0.01313205 -0.02491682
v 0.00166336 -0.01184315 -0.02754302
v 0.00133574 -0.01100804 -0.02839203
v 0.00162169 -0.01054368 -0.02871619
v 0.00377867 -0.01211545 -0.02673781
v 0.00113759 -0.00869268 -0.02965535
v 0.00057935 -0.00903720 -0.02956374
v 0.00048554 -0.00796684 -0.02986989
v 0.00082218 -0.01053241 -0.02877122
v 0.00356795 -0.00730821 -0.02925008
v 0.00450568 -0.00739975 -0.02891003
v 0.00449802 -0.00885814 -0.02872147
v 0.00204792 -0.00709018 -0.02977107
v 0.00252310 -0.00678105 -0.02962899
v 0.00217905 -0.00752266 -0.02970255
v 0.00264859 -0.00693702 -0.02958348
v 0.00268132 -0.00696413 -0.02957161
v 0.00166746 -0.00811776 -0.02972850
v 0.00188429 -0.00882217 -0.02950641
v 0.00134332 -0.00965362 -0.02925905
v 0.00323390 -0.00988435 -0.02875778
v 0.00344690 -0.01119081 -0.02783870
v 0.00296949 -0.01068606 -0.02836072
v 0.00203971 -0.01251845 -0.02655580
v 0.00236096 -0.01202326 -0.02723654
v 0.00196441 -0.01134012 -0.02803713
v 0.00226047 -0.01076058 -0.02846632
v 0.00190439 -0.01003580 -0.02898790
v 0.00217885 -0.00949214 -0.02920107
v 0.00280030 -0.01257332 -0.02633069
v 0.00267483 -0.01140715 -0.02784687
v 0.00254370 -0.01011659 -0.02881705
v 0.00244024 -0.00892182 -0.02935155
v 0.00345923 -0.00903206 -0.02902611
v 0.00268417 -0.00833489 -0.02943729
v 0.00363974 -0.00816132 -0.02916320
v 0.00290697 -0.00774173 -0.02945852
v 0.00239350 -0.00793988 -0.02959019
v 0.00153510 -0.00738979 -0.02986304
v 0.00211039 -0.01326989 -0.02456684
v 0.00189583 -0.01309137 -0.02526707
v 0.00172240 -0.01288619 -0.02583311
v 0.00133311 -0.01219134 -0.02710364
v 0.00105144 -0.01142297 -0.02802297
v 0.00088308 -0.01080091 -0.02857243
v 0.00045219 -0.00718296 -0.02997876
v 0.00396741 -0.01162150 -0.02725826
v 0.00427089 -0.01047202 -0.02809516
v 0.00442106 -0.00956866 -0.02850923
v 0.00309691 -0.00718035 -0.02942090
v 0.00023103 0.01558648 -0.02925000
v 0.00023103 0.01558648 0.02924979
v 0.00121835 0.01567805 -0.02918051
v 0.00462500 -0.01329952 -0.02262041
v 0.00452774 -0.01334668 -0.02262041
v 0.00455795 -0.01325349 -0.02364758
v 0.00425000 -0.01340000 -0.02262041
v 0.00429216 -0.01331767 -0.02365761
v 0.00433317 -0.01307367 -0.02466642
v 0.00458678 -0.01300207 -0.02464327
v 0.00437190 -0.01267396 -0.02561911
v 0.00461354 -0.01259906 -0.02558097
v 0.00440730 -0.01213016 -0.02648987
v 0.00463762 -0.01205659 -0.02643589
v 0.00443838 -0.01145655 -0.02725444
v 0.00465847 -0.01138879 -0.02718506
v 0.00446432 -0.01067212 -0.02789241
v 0.00467568 -0.01061451 -0.02780916
v 0.00448437 -0.00979790 -0.02838569
v 0.00468887 -0.00975401 -0.02829109
v 0.00425000 -0.01340000 0.01876472
v 0.00452607 -0.01334734 0.01876472
v 0.00462500 -0.01329952 0.01876472
v 0.00459941 -0.01320583 0.02030581
v 0.00435346 -0.01328435 0.02031663
v 0.00430260 -0.01337021 0.01955376
v 0.00466694 -0.01284866 0.02178123
v 0.00472690 -0.01228812 0.02313669
v 0.00462500 -0.01164264 0.02438972
v 0.00459646 -0.01194248 0.02396159
v 0.00455393 -0.01231655 0.02332355
v 0.00446236 -0.01289797 0.02195007
v 0.00438924 -0.01318922 0.02085334
v 0.00243954 -0.01230890 0.02545426
v 0.00309108 -0.01150980 0.02610580
v 0.00025000 -0.01340000 0.02276472
v 0.00026087 -0.01338865 0.02327559
v 0.00111952 -0.01318734 0.02413424
v 0.00173586 -0.01287482 0.02475057
v 0.00027110 -0.01337702 0.02352200
v 0.00095580 -0.01320575 0.02421343
v 0.00168719 -0.01282503 0.02495975
v 0.00237403 -0.01223539 0.02566973
v 0.00297353 -0.01145452 0.02629988
v 0.00120534 -0.01071802 0.02826053
v 0.00029427 -0.01147991 0.02789909
v 0.00075217 -0.01191561 0.02725446
v 0.00028965 -0.01214084 0.02710680
v 0.00028360 -0.01277847 0.02600115
v 0.00029535 -0.01130035 0.02807680
v 0.00111623 -0.00988722 0.02884590
v 0.00030037 -0.01029748 0.02886502
v 0.00104421 -0.00892865 0.02930996
v 0.00030442 -0.00915751 0.02945240
v 0.00099495 -0.00783963 0.02962096
v 0.00030706 -0.00793206 0.02981230
v 0.00097685 -0.00665000 0.02973370
v 0.00030800 -0.00665000 0.02993503
v 0.00274125 -0.01109521 0.02694340
v 0.00218489 -0.01186076 0.02647873
v 0.00155785 -0.01248168 0.02592607
v 0.00089172 -0.01293908 0.02531473
v 0.00027734 -0.01319685 0.02478875
v 0.00188859 -0.00831304 0.02910295
v 0.00200669 -0.00902299 0.02880930
v 0.00251953 -0.01068401 0.02750555
v 0.00232421 -0.01020184 0.02800425
v 0.00200031 -0.01140139 0.02719290
v 0.00183780 -0.01084897 0.02782833
v 0.00142559 -0.01201448 0.02679474
v 0.00130839 -0.01142467 0.02757514
v 0.00081818 -0.01250652 0.02632901
v 0.00215349 -0.00965085 0.02843905
v 0.00030800 0.01498366 0.02993503
v 0.00036564 0.01500314 0.02992098
v 0.00084264 0.01510122 0.02978099
v 0.00126841 0.01562950 -0.02945557
v 0.00132815 0.01546438 -0.02970847
v 0.00138305 0.01520962 -0.02987242
v 0.00038872 0.01555184 -0.02951108
v 0.00040292 0.01537715 -0.02978282
v 0.00042507 0.01510466 -0.02995552
v 0.00025000 -0.00665000 -0.03000000
v 0.00025000 0.01485106 -0.03000000
v 0.00025000 -0.01340000 -0.02325000
v 0.00025000 -0.01333992 -0.02414857
v 0.00025000 -0.01316076 -0.02503114
v 0.00025000 -0.01275758 -0.02612401
v 0.00025000 -0.01217251 -0.02713129
v 0.00025000 -0.01142297 -0.02802297
v 0.00025000 -0.01053129 -0.02877251
v 0.00025000 -0.00952401 -0.02935758
v 0.00025000 -0.00843114 -0.02976076
v 0.00025000 -0.00754857 -0.02993992
v 0.00023833 0.01535171 0.02979483
v 0.00034891 0.01542692 0.02972022
v 0.00023370 0.01552504 0.02954608
v 0.00045507 0.01548137 0.02964918
v 0.00080029 0.01559062 0.02942977
v 0.00111854 0.01564144 0.02925800
v -0.00000000 0.01533720 -0.02925000
v -0.00000000 0.01533720 0.02924979
v 0.00003040 0.01545668 0.02924979
v 0.00014387 0.01556356 0.02924979
v 0.00014387 0.01556356 -0.02925000
v 0.00011420 0.01554711 0.02924979
v 0.00011420 0.01554711 -0.02925000
v 0.00006584 0.01550627 0.02924979
v 0.00006584 0.01550627 -0.02925000
v 0.00003040 0.01545668 -0.02925000
v 0.00034755 0.01485600 -0.02999989
v 0.00023246 0.01553086 -0.02953133
v 0.00023643 0.01537519 -0.02977162
v 0.00024237 0.01514062 -0.02993482
v 0.00024937 0.01486077 -0.02999958
v -0.00000000 -0.01016495 0.02865911
v -0.00000000 -0.00906676 0.02922590
v -0.00000000 -0.01312817 0.02351067
v -0.00000000 -0.01315000 0.02276472
v -0.00000000 -0.01313912 0.02326472
v -0.00000000 -0.00665000 0.02969185
v -0.00000000 -0.00788580 0.02957333
v -0.00000000 -0.01315000 -0.02325000
v -0.00000000 -0.01255300 0.02589849
v -0.00000000 -0.01193959 0.02696387
v -0.00000000 -0.01113063 0.02789892
v -0.00000000 0.01498366 0.02969185
v -0.00000000 0.01484518 -0.02975000
v -0.00000000 -0.00665000 -0.02975000
v -0.00000000 -0.00751529 -0.02969215
v -0.00000000 0.01499566 0.02969159
v -0.00000000 -0.01295524 0.02473062
v -0.00000000 -0.01309215 -0.02411529
v -0.00000000 -0.01291962 -0.02496517
v -0.00000000 -0.01253138 -0.02601757
v -0.00000000 0.01525586 -0.02952266
v -0.00000000 0.01508242 -0.02968499
v -0.00000000 0.01533460 -0.02930023
v -0.00000000 0.01485247 -0.02974972
v -0.00000000 0.01526970 0.02949993
v -0.00000000 0.01518032 0.02961320
v -0.00000000 0.01513742 0.02964661
v -0.00000000 -0.00836517 -0.02951962
v -0.00000000 -0.00941757 -0.02913138
v -0.00000000 -0.01038753 -0.02856797
v -0.00000000 -0.01124620 -0.02784619
v -0.00000000 -0.01196797 -0.02698753
v 0.00001797 -0.01323212 0.02326877
v 0.00003349 -0.01327500 0.02276472
v 0.00007711 -0.01331953 0.02327258
v 0.00015908 -0.01338288 0.02276472
v 0.00016708 -0.01337475 0.02327498
v 0.00012500 -0.01336651 0.02276472
v 0.00007322 -0.01332678 0.02276472
v 0.00017354 -0.01336594 0.02352150
v 0.00008085 -0.01331206 0.02351904
v 0.00001928 -0.01322434 0.02351505
v 0.00020132 -0.00793241 0.02981408
v 0.00019615 -0.00665000 0.02993598
v 0.00009470 -0.00792303 0.02976568
v 0.00009508 -0.00665000 0.02988806
v 0.00002237 -0.00790544 0.02967481
v 0.00002502 -0.00665000 0.02980087
v 0.00019922 -0.00915780 0.02945313
v 0.00009364 -0.00913931 0.02940697
v 0.00002213 -0.00910501 0.02932137
v 0.00019602 -0.01029707 0.02886437
v 0.00009203 -0.01026982 0.02882205
v 0.00002178 -0.01022019 0.02874493
v 0.00002134 -0.01120040 0.02797205
v 0.00009006 -0.01126327 0.02803794
v 0.00019208 -0.01129851 0.02807488
v 0.00002085 -0.01202108 0.02702175
v 0.00002034 -0.01264288 0.02593942
v 0.00008785 -0.01209472 0.02707405
v 0.00008553 -0.01272436 0.02597651
v 0.00018765 -0.01213698 0.02710405
v 0.00018300 -0.01277221 0.02599830
v 0.00001981 -0.01305006 0.02475343
v 0.00008317 -0.01313627 0.02477417
v 0.00017824 -0.01318808 0.02478664
v 0.00002502 0.01498366 0.02980087
v 0.00009508 0.01498366 0.02988806
v 0.00019615 0.01498366 0.02993598
v 0.00029519 0.01505988 0.02993214
v 0.00028200 0.01513418 0.02991786
v 0.00031355 0.01514367 0.02991069
v 0.00029656 0.01518373 0.02989916
v 0.00026860 0.01520522 0.02989276
v 0.00025516 0.01527170 0.02985742
v 0.00081655 0.01524342 0.02976757
v 0.00117657 0.01557978 0.02939739
v 0.00072899 0.01548931 0.02961922
v 0.00049760 0.01540498 0.02973907
v 0.00077715 0.01537919 0.02971206
v 0.00123880 0.01546613 0.02951179
v 0.00014862 0.01485050 -0.02997852
v 0.00012500 -0.00665000 -0.02996651
v 0.00001859 0.01484727 -0.02984458
v 0.00003349 0.01484797 -0.02987500
v 0.00003349 -0.00665000 -0.02987500
v 0.00005361 0.01484868 -0.02990470
v 0.00012500 0.01485019 -0.02996651
v 0.00000363 0.01484610 -0.02979244
v 0.00003349 -0.00753193 -0.02981604
v 0.00012500 -0.00754411 -0.02990673
v 0.00012500 -0.00842231 -0.02972846
v 0.00012500 -0.00950975 -0.02932728
v 0.00012500 -0.01051203 -0.02874511
v 0.00012500 -0.01139929 -0.02799929
v 0.00012500 -0.01214511 -0.02711203
v 0.00012500 -0.01272728 -0.02610975
v 0.00012500 -0.01312846 -0.02502231
v 0.00012500 -0.01330673 -0.02414411
v 0.00012500 -0.01336651 -0.02325000
v 0.00003349 -0.00839816 -0.02964019
v 0.00003349 -0.00947079 -0.02924448
v 0.00003349 -0.01045941 -0.02867024
v 0.00003349 -0.01133458 -0.02793458
v 0.00003349 -0.01207024 -0.02705941
v 0.00003349 -0.01264448 -0.02607079
v 0.00003349 -0.01304019 -0.02499816
v 0.00003349 -0.01321604 -0.02413193
v 0.00003349 -0.01327500 -0.02325000
v 0.00014576 0.01550463 0.02953724
v 0.00001565 0.01537600 0.02948176
v 0.00006675 0.01545215 0.02951459
v 0.00014905 0.01533729 0.02977954
v 0.00006832 0.01529818 0.02973810
v 0.00001600 0.01524072 0.02967721
v 0.00001631 0.01507540 -0.02978768
v 0.00001685 0.01485547 -0.02983991
v 0.00007213 0.01485830 -0.02992530
v 0.00015697 0.01486017 -0.02998164
v 0.00015193 0.01513258 -0.02991661
v 0.00006970 0.01510959 -0.02986473
v 0.00001586 0.01525894 -0.02965878
v 0.00006767 0.01531880 -0.02971688
v 0.00001556 0.01538039 -0.02947017
v 0.00006632 0.01545700 -0.02950128
v 0.00014770 0.01535974 -0.02975663
v 0.00014488 0.01550997 -0.02952282
v 0.00016174 0.01526308 0.02984389
v 0.00007506 0.01523337 0.02979724
v 0.00001797 0.01518742 0.02972510
v 0.00001944 0.01509129 0.02977280
v 0.00008892 0.01505196 0.02987803
v 0.00007897 0.01517750 0.02983180
v 0.00008390 0.01511689 0.02985927
v 0.00017108 0.01520025 0.02988174
v 0.00018116 0.01513205 0.02991056
v 0.00019131 0.01505947 0.02992930
v 0.01907533 0.01758828 -0.02357559
v 0.01915239 0.01733159 -0.02359858
v 0.01899099 0.01781467 -0.02346099
v 0.01889110 0.01801180 -0.02320895
v 0.01884956 0.01806259 -0.02305302
v 0.03016585 0.00809541 -0.01960469
v 0.02057686 0.01394295 -0.02308202
v 0.03026978 0.01354545 -0.01956701
v 0.03100465 0.01332856 -0.01930051
v 0.03168428 0.01297206 -0.01905405
v 0.03618516 0.01001411 -0.01742187
f 124 294 37
f 321 445 326
f 444 445 321
f 321 320 444
f 275 37 294
f 92 128 410
f 144 145 220
f 180 49 47
f 45 236 47
f 244 240 242
f 239 240 244
f 209 169 208
f 208 169 164
f 358 444 320
f 2 222 1
f 34 120 122
f 122 35 34
f 34 35 20
f 31 32 12
f 12 10 31
f 31 10 38
f 118 120 34
f 15 13 14
f 12 32 14
f 14 13 12
f 146 127 144
f 128 127 146
f 134 129 135
f 445 444 448
f 448 447 445
f 448 463 447
f 444 358 448
f 360 463 448
f 276 275 294
f 234 236 45
f 179 49 180
f 424 423 416
f 416 423 419
f 230 43 228
f 228 43 50
f 1 222 55
f 50 56 55
f 163 169 209
f 168 169 163
f 441 341 351
f 442 341 441
f 433 432 303
f 442 441 433
f 433 441 432
f 209 208 305
f 258 259 281
f 258 244 243
f 243 259 258
f 243 251 259
f 243 244 242
f 242 251 243
f 255 254 239
f 239 244 255
f 255 244 258
f 29 30 249
f 84 40 54
f 87 40 84
f 230 232 44
f 44 43 230
f 44 234 45
f 232 234 44
f 222 2 241
f 241 2 25
f 242 240 241
f 27 13 15
f 124 37 36
f 35 122 36
f 19 30 29
f 34 20 18
f 20 19 18
f 12 13 11
f 116 117 115
f 115 31 38
f 32 31 115
f 115 117 32
f 15 14 16
f 32 117 33
f 117 118 33
f 33 14 32
f 33 16 14
f 33 118 34
f 34 18 33
f 18 16 33
f 445 447 443
f 447 446 443
f 443 446 315
f 315 220 443
f 220 322 443
f 92 410 411
f 92 411 93
f 317 410 128
f 128 146 317
f 317 411 410
f 317 220 315
f 317 146 144
f 124 36 123
f 123 36 122
f 120 118 119
f 119 117 116
f 119 118 117
f 324 326 445
f 445 443 324
f 324 443 322
f 366 341 442
f 464 463 360
f 360 448 359
f 359 448 358
f 217 202 180
f 180 47 217
f 47 237 217
f 238 47 236
f 236 237 238
f 238 237 47
f 307 192 306
f 174 176 186
f 472 156 471
f 204 179 180
f 180 202 204
f 157 159 214
f 347 346 422
f 347 422 419
f 347 423 348
f 419 423 347
f 160 159 157
f 155 161 160
f 160 161 159
f 348 423 434
f 224 228 50
f 50 55 224
f 224 55 222
f 168 163 198
f 306 192 210
f 210 163 209
f 192 198 210
f 210 198 163
f 209 305 210
f 210 305 306
f 432 441 431
f 303 254 369
f 369 433 303
f 304 305 208
f 303 432 304
f 432 431 304
f 304 431 305
f 304 208 164
f 165 303 304
f 304 164 165
f 258 281 399
f 248 249 30
f 80 81 82
f 84 54 82
f 83 81 90
f 83 87 84
f 85 87 83
f 84 82 83
f 83 82 81
f 48 47 49
f 42 8 56
f 9 8 42
f 76 77 78
f 80 48 78
f 78 49 76
f 78 48 49
f 79 78 77
f 79 81 80
f 80 78 79
f 86 39 9
f 85 39 86
f 86 87 85
f 88 85 89
f 88 39 85
f 51 56 50
f 50 43 51
f 43 44 51
f 51 42 56
f 7 10 12
f 12 11 7
f 3 55 56
f 3 2 1
f 1 55 3
f 13 27 26
f 25 11 26
f 26 11 13
f 26 27 242
f 242 241 26
f 26 241 25
f 242 27 28
f 28 27 15
f 17 18 19
f 17 28 15
f 15 16 17
f 17 16 18
f 17 19 29
f 29 28 17
f 126 125 108
f 403 402 292
f 409 403 294
f 405 403 409
f 409 294 124
f 315 446 313
f 95 93 413
f 95 409 96
f 413 409 95
f 414 411 413
f 413 93 414
f 414 93 411
f 144 220 318
f 318 317 144
f 220 317 318
f 112 102 113
f 89 85 59
f 89 59 58
f 58 59 57
f 116 98 100
f 100 119 116
f 100 125 119
f 341 366 337
f 375 350 336
f 336 366 375
f 349 464 360
f 400 349 345
f 464 349 400
f 463 464 466
f 230 228 229
f 168 198 229
f 229 198 167
f 167 198 166
f 307 308 170
f 440 441 351
f 440 353 439
f 440 431 441
f 437 438 364
f 437 436 428
f 364 436 437
f 428 308 429
f 429 308 307
f 429 437 428
f 438 437 429
f 439 438 429
f 364 438 365
f 439 353 365
f 365 438 439
f 175 174 188
f 202 201 203
f 203 204 202
f 206 204 203
f 186 206 203
f 187 201 197
f 197 188 187
f 187 188 174
f 187 174 186
f 186 203 187
f 187 203 201
f 189 200 197
f 202 217 189
f 189 217 237
f 189 201 202
f 197 201 189
f 237 216 189
f 151 149 152
f 152 149 474
f 150 475 474
f 474 149 150
f 142 138 143
f 143 138 472
f 143 471 142
f 472 471 143
f 473 141 142
f 142 471 473
f 152 474 473
f 473 474 141
f 154 471 156
f 154 156 155
f 142 141 137
f 137 138 142
f 137 132 77
f 77 132 60
f 60 79 77
f 131 63 61
f 61 60 131
f 131 60 132
f 205 204 206
f 179 204 205
f 76 49 481
f 49 179 481
f 162 161 155
f 155 156 162
f 207 214 159
f 186 176 207
f 176 214 207
f 424 416 312
f 312 214 176
f 157 214 301
f 301 312 416
f 214 312 301
f 319 328 356
f 355 449 422
f 458 328 327
f 451 416 419
f 348 434 361
f 435 362 361
f 361 434 435
f 425 423 424
f 425 434 423
f 435 434 425
f 363 436 364
f 363 362 435
f 435 436 363
f 225 240 239
f 228 224 227
f 227 169 168
f 168 229 227
f 227 229 228
f 439 429 430
f 306 305 430
f 305 431 430
f 430 440 439
f 431 440 430
f 430 307 306
f 430 429 307
f 254 255 370
f 370 369 254
f 442 433 372
f 280 281 259
f 249 248 261
f 29 249 246
f 275 276 273
f 276 274 273
f 37 275 273
f 376 276 377
f 376 274 276
f 80 82 53
f 53 48 80
f 53 82 54
f 47 48 46
f 45 47 46
f 46 44 45
f 48 53 46
f 90 81 62
f 81 79 62
f 62 60 61
f 79 60 62
f 61 63 62
f 62 63 65
f 90 62 72
f 72 62 65
f 91 83 90
f 90 72 91
f 91 72 70
f 85 83 91
f 91 59 85
f 65 63 64
f 129 75 64
f 9 42 41
f 41 86 9
f 41 42 40
f 40 87 41
f 87 86 41
f 114 98 116
f 116 115 114
f 114 115 38
f 56 8 6
f 6 3 56
f 21 19 20
f 30 19 21
f 262 253 21
f 21 23 284
f 21 253 247
f 21 248 30
f 21 247 248
f 284 23 285
f 109 106 108
f 110 108 125
f 125 100 110
f 294 403 293
f 293 403 292
f 292 276 293
f 293 276 294
f 402 403 470
f 469 465 470
f 404 403 405
f 469 470 404
f 404 470 403
f 315 313 314
f 93 95 94
f 126 108 94
f 108 106 94
f 92 93 94
f 94 106 92
f 66 67 69
f 69 67 68
f 68 67 57
f 57 59 68
f 68 91 70
f 59 91 68
f 101 100 99
f 99 100 98
f 338 366 336
f 338 337 366
f 350 375 397
f 398 392 397
f 401 465 400
f 402 470 401
f 401 470 465
f 447 463 462
f 463 466 462
f 462 446 447
f 467 466 464
f 464 400 467
f 400 465 467
f 467 465 469
f 231 229 167
f 231 232 230
f 230 229 231
f 193 198 192
f 193 166 198
f 193 199 166
f 193 170 194
f 194 199 193
f 192 307 211
f 307 170 211
f 211 193 192
f 170 193 211
f 194 170 212
f 212 170 308
f 352 440 351
f 353 440 352
f 235 237 236
f 235 216 237
f 236 234 235
f 148 475 150
f 135 141 140
f 141 474 140
f 139 134 140
f 140 134 135
f 140 475 139
f 140 474 475
f 155 160 153
f 153 154 155
f 153 151 152
f 152 473 153
f 153 473 471
f 471 154 153
f 133 137 77
f 138 137 133
f 133 77 76
f 76 472 133
f 472 138 133
f 132 137 136
f 136 131 132
f 136 137 141
f 136 141 135
f 159 161 181
f 181 207 159
f 179 205 178
f 477 156 472
f 478 481 476
f 478 477 472
f 476 477 478
f 422 346 357
f 357 355 422
f 328 458 457
f 354 356 457
f 457 356 328
f 139 475 219
f 475 148 219
f 311 312 176
f 424 312 311
f 311 425 424
f 311 174 175
f 176 174 311
f 428 436 427
f 427 308 428
f 427 309 308
f 195 199 194
f 223 224 222
f 240 225 223
f 223 241 240
f 222 241 223
f 226 225 165
f 165 164 226
f 226 227 224
f 224 223 226
f 226 223 225
f 164 169 226
f 169 227 226
f 373 255 258
f 373 370 255
f 258 399 373
f 373 399 398
f 433 369 371
f 371 372 433
f 369 370 371
f 367 366 442
f 442 372 367
f 367 375 366
f 392 343 342
f 350 397 342
f 342 397 392
f 398 399 394
f 394 392 398
f 290 280 279
f 279 288 290
f 252 279 249
f 249 261 252
f 252 261 279
f 278 261 248
f 248 247 278
f 247 253 278
f 278 253 262
f 279 261 278
f 278 288 279
f 271 273 274
f 283 282 271
f 271 282 273
f 377 379 378
f 378 376 377
f 379 381 378
f 52 51 44
f 44 46 52
f 42 51 52
f 52 53 54
f 52 46 53
f 52 54 40
f 40 42 52
f 70 72 73
f 135 129 130
f 129 64 130
f 130 136 135
f 131 136 130
f 63 131 130
f 130 64 63
f 5 7 11
f 22 21 20
f 22 20 35
f 35 36 22
f 23 21 22
f 262 21 277
f 277 21 284
f 277 278 262
f 284 285 287
f 287 285 263
f 263 289 287
f 105 104 127
f 105 106 104
f 105 127 128
f 105 128 92
f 92 106 105
f 104 106 107
f 106 109 107
f 111 110 112
f 111 109 108
f 108 110 111
f 103 110 100
f 101 102 103
f 103 100 101
f 103 102 112
f 112 110 103
f 406 409 413
f 405 409 406
f 406 404 405
f 412 408 413
f 313 408 412
f 412 314 313
f 413 411 412
f 461 313 446
f 461 408 313
f 446 462 461
f 461 462 466
f 315 314 316
f 316 317 315
f 411 317 316
f 316 412 411
f 314 412 316
f 126 94 121
f 121 123 122
f 121 122 120
f 120 119 121
f 121 125 126
f 119 125 121
f 97 95 96
f 97 94 95
f 97 409 124
f 96 409 97
f 124 123 97
f 123 121 97
f 97 121 94
f 167 166 173
f 173 231 167
f 166 199 215
f 215 173 166
f 231 173 215
f 150 221 147
f 147 148 150
f 221 219 147
f 147 219 148
f 454 418 449
f 158 160 157
f 160 158 300
f 332 299 300
f 207 181 183
f 183 206 186
f 186 207 183
f 183 205 206
f 183 181 205
f 161 162 182
f 182 181 161
f 184 181 182
f 182 162 156
f 479 472 76
f 479 478 472
f 481 478 479
f 354 457 455
f 455 355 354
f 449 355 455
f 455 457 458
f 298 221 150
f 298 219 221
f 419 422 450
f 422 449 450
f 449 418 450
f 425 311 310
f 310 311 175
f 175 188 310
f 309 427 310
f 200 195 196
f 197 200 196
f 196 188 197
f 191 195 200
f 200 189 191
f 191 189 216
f 216 235 191
f 199 195 191
f 375 367 368
f 368 367 372
f 368 371 370
f 372 371 368
f 256 280 259
f 256 257 280
f 256 250 257
f 259 251 256
f 251 250 256
f 265 290 288
f 288 289 265
f 280 290 267
f 281 280 267
f 269 285 291
f 263 285 269
f 269 291 283
f 283 271 269
f 70 73 71
f 69 68 71
f 71 68 70
f 65 64 74
f 74 64 75
f 74 72 65
f 74 73 72
f 25 2 4
f 4 11 25
f 4 5 11
f 2 3 4
f 24 36 37
f 24 22 36
f 37 273 24
f 273 282 24
f 24 282 283
f 283 291 24
f 291 285 24
f 24 285 23
f 23 22 24
f 286 287 289
f 278 277 286
f 286 277 284
f 284 287 286
f 288 278 286
f 286 289 288
f 413 408 407
f 407 406 413
f 469 404 407
f 404 406 407
f 231 215 233
f 233 234 232
f 232 231 233
f 233 235 234
f 454 459 453
f 420 454 451
f 418 454 420
f 420 451 419
f 419 418 420
f 452 301 416
f 452 453 332
f 151 153 297
f 297 300 299
f 297 153 160
f 160 300 297
f 184 182 185
f 476 481 185
f 185 477 476
f 185 182 156
f 185 181 184
f 205 181 185
f 156 477 185
f 76 481 480
f 480 479 76
f 481 479 480
f 456 454 449
f 449 455 456
f 456 459 454
f 456 455 458
f 325 458 327
f 150 149 295
f 295 298 150
f 299 298 295
f 330 298 299
f 219 298 330
f 417 418 419
f 419 450 417
f 417 450 418
f 426 310 427
f 426 436 435
f 426 427 436
f 435 425 426
f 425 310 426
f 172 196 195
f 188 196 172
f 375 368 374
f 398 397 374
f 374 397 375
f 374 373 398
f 370 373 374
f 374 368 370
f 380 381 339
f 380 378 381
f 272 271 274
f 274 376 272
f 272 269 271
f 393 388 391
f 391 343 392
f 392 394 391
f 391 394 393
f 343 391 344
f 344 391 388
f 389 386 387
f 387 388 389
f 389 393 395
f 389 388 393
f 249 279 260
f 260 250 249
f 257 250 260
f 279 280 260
f 280 257 260
f 245 246 249
f 249 250 245
f 29 246 245
f 245 28 29
f 242 28 245
f 245 251 242
f 245 250 251
f 396 399 281
f 281 267 396
f 396 394 399
f 396 267 395
f 395 393 396
f 393 394 396
f 469 407 468
f 468 461 466
f 408 461 468
f 468 407 408
f 468 467 469
f 466 467 468
f 199 191 190
f 190 215 199
f 190 233 215
f 190 191 235
f 235 233 190
f 301 452 302
f 416 451 421
f 453 452 421
f 451 454 421
f 454 453 421
f 151 297 296
f 296 297 299
f 299 295 296
f 149 151 296
f 296 295 149
f 179 178 218
f 218 481 179
f 218 185 481
f 218 178 205
f 205 185 218
f 331 330 299
f 459 330 331
f 331 299 332
f 332 453 331
f 331 453 459
f 460 323 219
f 219 330 460
f 460 325 323
f 458 325 460
f 460 330 459
f 460 456 458
f 459 456 460
f 171 195 194
f 171 172 195
f 194 212 171
f 171 212 308
f 188 172 177
f 177 310 188
f 309 310 177
f 340 380 339
f 269 272 270
f 263 269 270
f 376 378 382
f 382 272 376
f 382 270 272
f 387 335 334
f 334 388 387
f 334 344 388
f 290 265 266
f 395 267 266
f 266 267 290
f 268 289 263
f 263 270 268
f 332 300 333
f 333 452 332
f 333 302 452
f 415 452 416
f 416 421 415
f 415 421 452
f 172 171 213
f 213 177 172
f 309 177 213
f 308 309 213
f 213 171 308
f 383 382 378
f 378 380 383
f 264 265 289
f 289 268 264
f 264 266 265
f 395 266 264
f 385 268 270
f 270 382 385
f 385 383 386
f 382 383 385
f 158 302 329
f 302 333 329
f 329 300 158
f 329 333 300
f 384 383 380
f 384 340 335
f 380 340 384
f 384 335 387
f 387 386 384
f 386 383 384
f 390 264 268
f 268 385 390
f 390 389 395
f 395 264 390
f 386 389 390
f 390 385 386
f 319 320 328
f 328 320 321
f 326 328 321
f 327 328 326
f 134 139 145
f 134 145 144
f 134 127 129
f 144 127 134
f 292 402 276
f 276 402 377
f 38 10 39
f 39 10 9
f 9 10 7
f 7 8 9
f 101 57 67
f 67 102 101
f 345 339 400
f 339 381 400
f 225 303 165
f 239 254 225
f 225 254 303
f 38 39 114
f 39 88 114
f 89 98 114
f 114 88 89
f 102 67 66
f 66 113 102
f 99 57 101
f 99 58 57
f 99 98 89
f 89 58 99
f 401 400 381
f 401 381 379
f 377 402 401
f 401 379 377
f 145 139 219
f 219 220 145
f 8 7 5
f 5 6 8
f 220 219 323
f 323 322 220
f 74 66 69
f 104 107 74
f 129 127 74
f 127 104 74
f 74 75 129
f 112 113 74
f 74 111 112
f 113 66 74
f 69 71 74
f 74 107 109
f 109 111 74
f 74 71 73
f 6 5 4
f 3 6 4
f 327 326 325
f 326 324 325
f 322 323 325
f 325 324 322
f 302 158 157
f 157 301 302
f 334 352 351
f 341 337 334
f 334 320 319
f 334 339 345
f 360 359 334
f 351 341 334
f 334 363 364
f 364 365 334
f 334 358 320
f 334 347 348
f 334 338 336
f 336 350 334
f 334 359 358
f 334 349 360
f 346 347 334
f 319 356 334
f 348 361 334
f 350 342 334
f 345 349 334
f 334 365 353
f 334 356 354
f 354 355 334
f 334 361 362
f 362 363 334
f 334 357 346
f 337 338 334
f 353 352 334
f 355 357 334
f 334 342 343
f 343 344 334
f 334 340 339
f 335 340 334

