# https://github.com/mikedh/trimesh
v 0.01802058 -0.00425834 -0.14758569
v 0.01534439 -0.00487152 -0.14723337
v 0.01260206 -0.00497828 -0.14687234
v 0.01146211 -0.00487182 -0.14672226
v 0.00771203 -0.00385863 -0.14622855
v 0.00160432 0.00086767 -0.14542446
v -0.00033708 0.00425869 -0.14516887
v -0.00110007 0.00667715 -0.14506842
v -0.00134217 0.00804097 -0.14503653
v -0.00145849 0.00942149 -0.14502123
v -0.00134247 0.01195675 -0.14503650
v -0.00131085 0.01218554 -0.14504066
v -0.00066218 0.01487515 -0.14512606
v -0.00033795 0.01573919 -0.14516875
v 0.00046544 0.01739875 -0.14527452
v 0.00160293 0.01913051 -0.14542428
v 0.00203359 0.01967040 -0.14548098
v 0.00398890 0.02161272 -0.14573839
v 0.00434791 0.02189960 -0.14578566
v 0.00626475 0.02315960 -0.14603801
v 0.00770992 0.02385775 -0.14622827
v 0.00878366 0.02425834 -0.14636964
v 0.01145985 0.02487152 -0.14672196
v 0.01420217 0.02497828 -0.14708300
v 0.02647164 0.02497828 -0.05388717
v 0.01534213 0.02487182 -0.14723307
v 0.01691726 0.02457497 -0.14744043
v 0.01909221 0.02385863 -0.14772677
v 0.01951264 0.02367532 -0.14778213
v 0.02189993 0.02230998 -0.14809643
v 0.02245452 0.02190100 -0.14816943
v 0.02399784 0.02052544 -0.14837262
v 0.02519992 0.01913233 -0.14853087
v 0.02573493 0.01838246 -0.14860131
v 0.02705203 0.01595403 -0.14877471
v 0.02714132 0.01574131 -0.14878647
v 0.02790431 0.01332285 -0.14888692
v 0.02814641 0.01195903 -0.14891879
v 0.02826273 0.01057850 -0.14893410
v 0.02814671 0.00804325 -0.14891882
v 0.02811509 0.00781446 -0.14891466
v 0.02746642 0.00512485 -0.14882927
v 0.02714219 0.00426081 -0.14878657
v 0.02633880 0.00260125 -0.14868081
v 0.02520131 0.00086949 -0.14853105
v 0.02477064 0.00032960 -0.14847437
v 0.02281534 -0.00161272 -0.14821693
v 0.02245633 -0.00189960 -0.14816967
v 0.02053949 -0.00315960 -0.14791732
v 0.01909432 -0.00385775 -0.14772706
v 0.02368668 0.02036520 -0.14948960
v 0.02753367 0.01327226 -0.14999607
v 0.02774125 0.00784774 -0.15002340
v 0.02599200 0.00271389 -0.14979310
v 0.00979065 -0.00435308 -0.14766015
v -0.00102914 0.00672774 -0.14623570
v -0.00123671 0.01215226 -0.14620838
v 0.00051254 0.01728611 -0.14643867
v 0.00205682 0.01952317 -0.14664198
v 0.01643446 0.02372118 -0.14951649
v 0.01887780 0.02287424 -0.14983816
v 0.01926976 0.02346713 -0.14890811
v 0.01387842 0.02410087 -0.14918000
v 0.01129674 0.02400037 -0.14884010
v 0.00877732 0.02342310 -0.14850841
v 0.00640596 0.02238873 -0.14819622
v -0.00086486 0.00945538 -0.14723900
v -0.00052744 0.00687180 -0.14728342
v -0.00138210 0.00943030 -0.14618924
v 0.00151487 0.00210857 -0.14755230
v 0.00315020 0.00009113 -0.14776759
v 0.00110722 0.00174515 -0.14651696
v 0.00281786 -0.00036520 -0.14674217
v 0.00512521 -0.00158888 -0.14802761
v 0.00488383 -0.00212257 -0.14701416
v 0.00737266 -0.00287424 -0.14832349
v 0.00723478 -0.00346713 -0.14732367
v 0.01747315 -0.00342310 -0.14965324
v 0.01984450 -0.00238873 -0.14996544
v 0.01780042 -0.00404127 -0.14871466
v 0.02028098 -0.00295925 -0.14904124
v 0.02198704 -0.00093247 -0.15024751
v 0.02252219 -0.00143593 -0.14933629
v 0.02382780 0.00089608 -0.15048985
v 0.02444772 0.00047683 -0.14958979
v 0.02711533 0.01054462 -0.15092266
v 0.02677790 0.01312820 -0.15087824
v 0.02788664 0.01056970 -0.15004253
v 0.02473560 0.01789143 -0.15060936
v 0.02310027 0.01990887 -0.15039407
v 0.02539732 0.01825485 -0.14971481
v 0.01671389 0.02435308 -0.14857163
v 0.01404014 0.02475025 -0.14821962
v 0.01133957 0.02464512 -0.14786407
v 0.00870412 0.02404127 -0.14751711
v 0.00622356 0.02295925 -0.14719054
v 0.00398235 0.02143593 -0.14689548
v 0.00426342 0.02093247 -0.14791416
v 0.00242266 0.01910392 -0.14767180
v 0.00094636 0.01696534 -0.14747745
v -0.00059791 0.01480093 -0.14629248
v -0.00011520 0.01458957 -0.14733769
v -0.00072587 0.01205751 -0.14725730
v -0.00018984 0.00413661 -0.14634620
v 0.00027491 0.00439475 -0.14738905
v 0.00981601 -0.00372118 -0.14864516
v 0.01246440 -0.00475025 -0.14801216
v 0.01237204 -0.00410087 -0.14898168
v 0.01495373 -0.00400037 -0.14932156
v 0.01516497 -0.00464512 -0.14836770
v 0.02530410 0.00303466 -0.15068421
v 0.02710245 0.00519907 -0.14993930
v 0.02636566 0.00541043 -0.15082397
v 0.02697634 0.00794249 -0.15090436
v 0.02669438 0.01586339 -0.14988558
v 0.02597555 0.01560525 -0.15077260
v 0.02162071 0.02212257 -0.14921761
v 0.02112525 0.02158888 -0.15013406
v 0.04600000 0.02100000 -0.03220000
v 0.04581457 0.02203835 -0.03220000
v 0.04559807 0.02250000 -0.03220000
v 0.04512132 0.02312132 -0.03220000
v 0.04450000 0.02359808 -0.03220000
v 0.04403835 0.02381457 -0.03220000
v 0.04300001 0.02400000 -0.03220000
v 0.00400000 0.02400000 -0.03220000
v 0.00296165 0.02381457 -0.03220000
v 0.00250000 0.02359808 -0.03220000
v 0.00187868 0.02312132 -0.03220000
v 0.00140193 0.02250000 -0.03220000
v 0.00118543 0.02203835 -0.03220000
v 0.04592291 0.01600219 -0.03347823
v 0.04600000 0.01600000 -0.03293014
v 0.04300001 0.02400000 -0.02849999
v 0.04450000 0.02359808 -0.02849999
v 0.04559807 0.02250000 -0.02849999
v 0.04600000 0.02100000 -0.02849999
v 0.00400000 0.02400000 -0.02849999
v 0.00140193 0.02250000 -0.02849999
v 0.00250000 0.02359808 -0.02849999
v -0.00175925 0.01492246 -0.03739354
v -0.00200000 0.01375736 -0.03734850
v -0.00200000 0.01375736 -0.02849999
v -0.00177164 0.01490541 -0.02849999
v 0.04593300 0.01000000 -0.03348184
v 0.04600000 0.01000000 -0.03296999
v -0.00200000 0.01000000 -0.03736040
v 0.01588213 0.01095726 -0.15789476
v 0.01599737 0.01000000 -0.15790993
v 0.00806581 0.01000000 -0.15686573
v 0.00818105 0.01095726 -0.15688090
v 0.00852007 0.01185889 -0.15692553
v 0.00906316 0.01265249 -0.15699703
v 0.00977878 0.01329194 -0.15709125
v 0.01062531 0.01374007 -0.15720269
v 0.01155357 0.01397084 -0.15732490
v 0.01343788 0.01374007 -0.15757297
v 0.01428441 0.01329194 -0.15768442
v 0.01500002 0.01265249 -0.15777864
v 0.01250962 0.01397084 -0.15745077
v 0.01554311 0.01185889 -0.15785013
v 0.01787395 0.01000000 -0.15786080
v 0.01770529 0.01140098 -0.15783860
v 0.01964348 0.01000000 -0.15723418
v 0.01942664 0.01180126 -0.15720563
v 0.02113278 0.01000000 -0.15609139
v 0.02087770 0.01211892 -0.15605782
v 0.01720914 0.01272054 -0.15777327
v 0.01878872 0.01349784 -0.15712164
v 0.02012728 0.01411471 -0.15595901
v 0.01892511 0.01587136 -0.15580074
v 0.01776680 0.01499113 -0.15698710
v 0.01641429 0.01388199 -0.15766864
v 0.01734110 0.01728678 -0.15559222
v 0.01642024 0.01619436 -0.15680982
v 0.01536698 0.01481783 -0.15753075
v 0.01412806 0.01547368 -0.15736765
v 0.01482734 0.01703760 -0.15660012
v 0.01546727 0.01827873 -0.15534551
v 0.01276952 0.01581142 -0.15718879
v 0.01308065 0.01747183 -0.15637016
v 0.01341254 0.01878955 -0.15507501
v 0.01129631 0.01878955 -0.15479641
v 0.01128168 0.01747183 -0.15613332
v 0.01137033 0.01581142 -0.15700458
v 0.01001179 0.01547368 -0.15682572
v 0.00953499 0.01703760 -0.15590337
v 0.00924158 0.01827873 -0.15452589
v 0.00877287 0.01481783 -0.15666261
v 0.00794208 0.01619436 -0.15569365
v 0.00736775 0.01728678 -0.15427920
v 0.00578373 0.01587136 -0.15407066
v 0.00659554 0.01499113 -0.15551637
v 0.00772555 0.01388199 -0.15652473
v 0.00458158 0.01411471 -0.15391240
v 0.00557361 0.01349784 -0.15538184
v 0.00693072 0.01272054 -0.15642010
v 0.00643456 0.01140098 -0.15635477
v 0.00493568 0.01180126 -0.15529785
v 0.00383115 0.01211892 -0.15381360
v 0.00626590 0.01000000 -0.15633257
v 0.00471884 0.01000000 -0.15526931
v 0.00357607 0.01000000 -0.15378001
v 0.00118543 -0.02203835 -0.03220000
v 0.00140193 -0.02250000 -0.03220000
v 0.00187868 -0.02312132 -0.03220000
v 0.00250000 -0.02359807 -0.03220000
v 0.00297234 -0.02378558 -0.03237306
v 0.00296165 -0.02381457 -0.03220000
v 0.00400000 -0.02396910 -0.03237306
v 0.00400000 -0.02400000 -0.03220000
v 0.00900000 -0.02400000 -0.03677552
v 0.04300001 -0.02396910 -0.03237306
v 0.04300001 -0.02400000 -0.03220000
v 0.04596909 -0.02100000 -0.03237306
v 0.04578558 -0.02202766 -0.03237306
v 0.04403835 -0.02381457 -0.03220000
v 0.04402765 -0.02378558 -0.03237306
v 0.04450000 -0.02359807 -0.03220000
v 0.04512132 -0.02312132 -0.03220000
v 0.04509946 -0.02309947 -0.03237306
v 0.04559807 -0.02250000 -0.03220000
v 0.04581457 -0.02203835 -0.03220000
v 0.04600000 -0.02100000 -0.03220000
v 0.04592063 -0.01600230 -0.03348177
v 0.04600000 -0.01600000 -0.03292582
v 0.00902257 -0.02392670 -0.03731005
v 0.00400000 -0.02400000 -0.02849999
v 0.00250000 -0.02359807 -0.02849999
v 0.00140193 -0.02250000 -0.02849999
v 0.04300001 -0.02400000 -0.02849999
v 0.01609562 -0.02400000 -0.03593934
v -0.00175960 -0.01492182 -0.03738891
v -0.00177164 -0.01490541 -0.02849999
v -0.00200000 -0.01375736 -0.02849999
v -0.00200000 -0.01375736 -0.03734467
v 0.04600000 -0.02100000 -0.02849999
v 0.04559807 -0.02250000 -0.02849999
v 0.04450000 -0.02359807 -0.02849999
v 0.01629798 -0.02393439 -0.03642430
v -0.00200000 -0.00187869 -0.03737186
v 0.01588213 0.00904274 -0.15789476
v 0.01343788 0.00625994 -0.15757297
v 0.01250962 0.00602917 -0.15745077
v 0.01155357 0.00602917 -0.15732490
v 0.01062531 0.00625994 -0.15720269
v 0.00977878 0.00670806 -0.15709125
v 0.01500002 0.00734751 -0.15777864
v 0.00906316 0.00734751 -0.15699703
v 0.00852007 0.00814111 -0.15692553
v 0.01428441 0.00670806 -0.15768442
v 0.01554311 0.00814111 -0.15785013
v 0.00818105 0.00904274 -0.15688090
v 0.01001179 0.00452632 -0.15682572
v 0.01137033 0.00418858 -0.15700458
v 0.00953499 0.00296240 -0.15590337
v 0.01128168 0.00252817 -0.15613332
v 0.00924158 0.00172127 -0.15452589
v 0.01129631 0.00121045 -0.15479641
v 0.01276952 0.00418858 -0.15718879
v 0.01412806 0.00452632 -0.15736765
v 0.01308065 0.00252817 -0.15637016
v 0.01482734 0.00296240 -0.15660012
v 0.01341254 0.00121045 -0.15507501
v 0.01546727 0.00172127 -0.15534551
v 0.01536698 0.00518217 -0.15753075
v 0.01642024 0.00380564 -0.15680982
v 0.01734110 0.00271322 -0.15559222
v 0.00643456 0.00859902 -0.15635477
v 0.00493568 0.00819874 -0.15529785
v 0.00383115 0.00788108 -0.15381360
v 0.00693072 0.00727946 -0.15642010
v 0.00557361 0.00650216 -0.15538184
v 0.00458158 0.00588530 -0.15391240
v 0.00578373 0.00412865 -0.15407066
v 0.00659554 0.00500887 -0.15551637
v 0.00772555 0.00611801 -0.15652473
v 0.00736775 0.00271322 -0.15427920
v 0.00794208 0.00380564 -0.15569365
v 0.00877287 0.00518217 -0.15666261
v 0.01892511 0.00412865 -0.15580074
v 0.01776680 0.00500887 -0.15698710
v 0.01641429 0.00611801 -0.15766864
v 0.02012728 0.00588530 -0.15595901
v 0.01878872 0.00650216 -0.15712164
v 0.01720914 0.00727946 -0.15777327
v 0.01770529 0.00859902 -0.15783860
v 0.01942664 0.00819874 -0.15720563
v 0.02087770 0.00788108 -0.15605782
f 23 126 138
f 39 38 119
f 119 132 39
f 212 240 232
f 4 55 107
f 119 38 120
f 120 137 119
f 225 39 145
f 145 39 132
f 3 4 107
f 187 191 188
f 188 191 66
f 21 20 128
f 239 220 238
f 223 237 238
f 134 25 138
f 137 120 136
f 136 122 135
f 122 136 121
f 121 136 120
f 133 132 119
f 133 145 132
f 146 145 133
f 237 223 224
f 224 39 225
f 224 223 216
f 38 39 88
f 240 2 214
f 214 232 240
f 218 2 1
f 241 147 10
f 10 147 142
f 13 141 14
f 142 143 144
f 144 141 142
f 21 22 95
f 66 191 98
f 187 188 183
f 127 126 23
f 23 22 127
f 127 138 126
f 127 22 21
f 21 128 127
f 138 127 140
f 140 127 128
f 139 140 129
f 130 139 129
f 129 140 128
f 282 284 281
f 180 160 185
f 185 160 156
f 220 239 219
f 219 221 220
f 218 49 219
f 205 233 104
f 206 205 6
f 55 4 208
f 228 209 211
f 205 206 230
f 241 10 236
f 111 284 113
f 281 284 111
f 41 216 42
f 216 43 42
f 238 220 222
f 222 223 238
f 216 223 222
f 220 221 222
f 222 221 45
f 222 43 216
f 25 134 125
f 226 224 225
f 225 145 226
f 226 145 146
f 215 216 41
f 215 224 216
f 40 88 39
f 39 224 40
f 40 215 41
f 224 215 40
f 35 121 120
f 52 88 86
f 86 87 52
f 38 88 52
f 289 114 113
f 113 284 289
f 113 114 53
f 41 42 53
f 53 40 41
f 88 40 53
f 86 88 53
f 53 114 86
f 231 214 217
f 217 239 231
f 218 219 217
f 217 219 239
f 213 2 218
f 213 214 2
f 218 217 213
f 213 217 214
f 50 49 218
f 218 1 50
f 110 1 2
f 110 3 107
f 2 3 110
f 107 108 110
f 142 141 12
f 12 141 13
f 130 14 131
f 131 14 141
f 141 144 131
f 131 144 139
f 131 139 130
f 64 183 65
f 65 183 188
f 65 188 66
f 66 95 65
f 96 95 66
f 66 98 96
f 96 20 21
f 21 95 96
f 182 178 181
f 92 62 61
f 130 129 16
f 190 191 187
f 106 259 108
f 107 55 106
f 106 108 107
f 287 252 242
f 286 252 287
f 284 282 285
f 285 287 288
f 286 287 285
f 288 289 285
f 285 289 284
f 177 160 180
f 177 178 176
f 180 181 177
f 177 181 178
f 187 185 186
f 56 104 7
f 7 104 233
f 212 211 227
f 227 211 4
f 4 3 227
f 227 3 2
f 227 240 212
f 227 2 240
f 210 208 4
f 4 211 210
f 209 208 210
f 210 211 209
f 204 233 205
f 205 230 204
f 229 209 228
f 229 230 206
f 9 236 10
f 44 222 45
f 43 222 44
f 112 111 113
f 112 42 43
f 113 53 112
f 112 53 42
f 124 134 135
f 124 125 134
f 94 22 23
f 94 95 22
f 64 65 94
f 94 65 95
f 63 183 64
f 182 183 63
f 64 94 63
f 63 94 93
f 63 93 92
f 23 138 24
f 138 25 24
f 24 94 23
f 93 94 24
f 25 125 24
f 45 221 46
f 221 219 48
f 48 219 49
f 84 82 281
f 281 111 84
f 38 52 37
f 37 120 38
f 167 87 86
f 176 178 175
f 115 52 87
f 82 83 81
f 49 50 81
f 81 48 49
f 83 48 81
f 108 259 264
f 264 259 257
f 11 10 142
f 142 12 11
f 20 96 19
f 19 128 20
f 18 129 19
f 19 129 128
f 97 96 98
f 18 19 97
f 97 19 96
f 184 183 182
f 182 181 184
f 187 183 184
f 184 185 187
f 180 185 184
f 184 181 180
f 179 178 182
f 59 97 98
f 59 58 16
f 18 97 59
f 15 14 130
f 15 58 14
f 130 16 15
f 16 58 15
f 191 190 192
f 192 98 191
f 77 106 55
f 77 76 106
f 74 76 77
f 77 75 74
f 283 282 266
f 283 285 282
f 286 285 283
f 160 177 157
f 176 158 157
f 157 177 176
f 105 104 56
f 278 76 74
f 233 204 234
f 234 204 230
f 235 236 234
f 234 236 233
f 209 229 207
f 207 229 206
f 206 75 207
f 207 77 209
f 75 77 207
f 8 9 56
f 236 9 8
f 233 236 8
f 56 7 8
f 8 7 233
f 111 112 54
f 54 44 45
f 43 44 54
f 54 112 43
f 54 84 111
f 135 122 123
f 123 124 135
f 122 31 123
f 182 63 60
f 60 63 92
f 60 179 182
f 92 61 60
f 61 179 60
f 92 93 26
f 93 24 26
f 26 27 92
f 26 24 125
f 125 124 26
f 124 27 26
f 221 48 47
f 47 48 83
f 47 46 221
f 83 46 47
f 85 46 83
f 85 83 82
f 82 84 85
f 84 54 85
f 45 46 85
f 85 54 45
f 166 167 86
f 86 114 166
f 114 289 166
f 176 175 172
f 122 121 33
f 36 37 52
f 52 115 36
f 36 115 35
f 36 35 120
f 120 37 36
f 281 82 268
f 268 282 281
f 109 110 108
f 108 264 109
f 263 261 266
f 174 179 61
f 174 172 175
f 174 175 178
f 178 179 174
f 10 11 69
f 56 9 69
f 69 9 10
f 18 59 17
f 17 59 16
f 17 129 18
f 17 16 129
f 155 185 156
f 155 186 185
f 156 160 155
f 196 197 199
f 99 59 98
f 98 192 99
f 55 208 5
f 5 77 55
f 5 208 209
f 209 77 5
f 176 172 173
f 173 172 169
f 162 242 149
f 162 287 242
f 288 287 162
f 68 105 56
f 56 69 68
f 74 75 73
f 73 206 6
f 73 75 206
f 76 278 258
f 259 106 258
f 106 76 258
f 30 123 31
f 124 123 29
f 29 30 62
f 123 30 29
f 169 172 170
f 170 167 169
f 35 115 34
f 121 35 34
f 34 33 121
f 82 81 79
f 79 268 82
f 262 264 257
f 262 263 264
f 261 263 262
f 266 282 267
f 267 263 266
f 282 268 267
f 268 263 267
f 103 102 200
f 200 203 103
f 200 196 199
f 101 102 103
f 58 102 101
f 13 14 101
f 14 58 101
f 57 11 12
f 57 69 11
f 103 69 57
f 57 101 103
f 57 12 13
f 13 101 57
f 202 200 199
f 203 200 202
f 67 69 103
f 103 203 67
f 67 68 69
f 154 155 160
f 186 155 154
f 189 190 187
f 187 186 189
f 186 154 189
f 193 192 190
f 193 196 192
f 100 102 58
f 58 59 100
f 59 99 100
f 100 99 192
f 256 255 257
f 256 258 278
f 257 259 256
f 259 258 256
f 250 272 253
f 248 283 266
f 248 252 286
f 286 283 248
f 249 272 250
f 277 272 249
f 255 246 245
f 169 163 168
f 168 173 169
f 288 162 164
f 167 166 164
f 164 289 288
f 164 166 289
f 105 68 271
f 271 202 270
f 203 202 271
f 271 67 203
f 68 67 271
f 28 27 124
f 124 29 28
f 92 27 28
f 28 62 92
f 28 29 62
f 78 109 264
f 78 79 81
f 110 109 78
f 199 197 198
f 198 202 199
f 152 154 151
f 151 154 150
f 150 198 151
f 151 197 152
f 151 198 197
f 152 197 153
f 153 154 152
f 194 153 197
f 197 196 194
f 196 193 194
f 190 189 194
f 194 193 190
f 194 189 154
f 154 153 194
f 192 196 195
f 195 100 192
f 102 100 195
f 195 200 102
f 196 200 195
f 244 245 246
f 255 245 244
f 254 246 255
f 255 256 254
f 256 280 254
f 247 249 250
f 246 254 247
f 247 254 280
f 277 249 247
f 247 280 277
f 250 253 247
f 247 253 150
f 247 244 246
f 150 248 247
f 248 244 247
f 161 168 163
f 165 162 163
f 165 164 162
f 165 163 169
f 169 167 165
f 167 164 165
f 105 271 274
f 274 70 105
f 275 70 274
f 277 280 279
f 279 276 277
f 279 280 256
f 279 256 278
f 278 275 279
f 275 276 279
f 71 70 275
f 74 73 71
f 71 278 74
f 71 275 278
f 72 73 6
f 72 71 73
f 70 71 72
f 6 205 72
f 205 104 72
f 104 105 72
f 105 70 72
f 79 78 265
f 265 263 268
f 268 79 265
f 264 263 265
f 265 78 264
f 80 78 81
f 80 50 1
f 80 81 50
f 1 110 80
f 110 78 80
f 33 34 91
f 91 34 115
f 115 89 91
f 118 174 61
f 118 61 62
f 174 118 90
f 90 91 89
f 116 89 115
f 170 89 116
f 116 115 87
f 87 167 116
f 167 170 116
f 171 170 172
f 171 89 170
f 171 90 89
f 172 174 171
f 174 90 171
f 202 198 201
f 201 198 150
f 261 244 243
f 243 244 248
f 266 261 243
f 260 244 261
f 255 244 260
f 261 262 260
f 257 255 260
f 260 262 257
f 173 168 159
f 168 161 159
f 159 158 176
f 176 173 159
f 159 157 158
f 160 157 159
f 159 154 160
f 150 154 159
f 159 248 150
f 148 161 163
f 148 162 149
f 163 162 148
f 149 242 148
f 273 271 270
f 273 274 271
f 273 276 275
f 275 274 273
f 273 272 277
f 277 276 273
f 32 31 122
f 122 33 32
f 117 30 31
f 62 30 117
f 117 118 62
f 270 202 269
f 202 201 269
f 269 273 270
f 272 273 269
f 269 253 272
f 150 253 269
f 269 201 150
f 251 248 266
f 266 243 251
f 251 243 248
f 91 90 51
f 33 91 51
f 51 32 33
f 51 90 118
f 118 117 51
f 31 32 51
f 51 117 31
f 211 214 231
f 232 214 211
f 212 232 211
f 211 231 228
f 142 147 236
f 236 143 142
f 236 147 241
f 236 235 143
f 137 237 226
f 119 137 226
f 226 133 119
f 146 133 226
f 237 224 226
f 234 239 238
f 228 231 234
f 238 237 234
f 135 134 234
f 143 235 234
f 234 136 135
f 234 237 137
f 234 144 143
f 231 239 234
f 138 140 234
f 234 134 138
f 137 136 234
f 139 144 234
f 234 140 139
f 234 229 228
f 230 229 234
f 159 161 252
f 252 248 159
f 252 161 148
f 242 252 148

