# https://github.com/mikedh/trimesh
v 0.00550000 -0.01000000 0.02100000
v 0.00550000 0.01000000 0.02100000
v 0.00050000 -0.01000000 0.02100000
v 0.00050000 0.01000000 0.02100000
v 0.00050000 0.01069223 0.02087638
v 0.00550000 0.01069223 0.02087638
v 0.00050000 0.01100000 0.02073205
v 0.00550000 0.01100000 0.02073205
v 0.00050000 0.01141421 0.02041421
v 0.00550000 0.01141421 0.02041421
v 0.00050000 0.01173205 0.02000000
v 0.00550000 0.01173205 0.02000000
v 0.00050000 0.01187638 0.01969223
v 0.00550000 0.01187638 0.01969223
v 0.00593301 0.01175000 0.01900000
v 0.00567306 0.01068154 0.02084739
v 0.00567306 0.01184739 0.01968154
v 0.00585355 0.01173899 0.01964155
v 0.00596910 0.01156965 0.01957907
v 0.00596910 0.01118303 0.02018303
v 0.00600000 0.01106066 0.02006066
v 0.00600000 0.01140729 0.01951918
v 0.00596910 0.01057907 0.02056965
v 0.00600000 0.01051918 0.02040729
v 0.00600000 0.01000000 0.02050000
v 0.00596910 0.01000000 0.02067306
v 0.00593301 0.01000000 0.02075000
v 0.00585355 0.01064155 0.02073899
v 0.00567306 0.01000000 0.02096910
v 0.00575000 0.01000000 0.02093301
v 0.00585355 0.01000000 0.02085355
v 0.00585355 0.01131066 0.02031066
v 0.00567306 0.01139236 0.02039236
v 0.00567306 -0.01000000 0.02096910
v 0.00575000 -0.01000000 0.02093301
v 0.00585355 -0.01000000 0.02085355
v 0.00593301 -0.01000000 0.02075000
v 0.00596910 -0.01000000 0.02067306
v 0.00600000 -0.01000000 0.02050000
v 0.00550000 -0.01173205 0.02000000
v 0.00550000 -0.01187638 0.01969223
v 0.00567306 -0.01184739 0.01968154
v 0.00550000 -0.01200000 0.01900000
v 0.00567306 -0.01068154 0.02084739
v 0.00550000 -0.01069223 0.02087638
v 0.00550000 -0.01100000 0.02073205
v 0.00585355 -0.01064155 0.02073899
v 0.00596910 -0.01057907 0.02056965
v 0.00596910 -0.01118303 0.02018303
v 0.00600000 -0.01106066 0.02006066
v 0.00600000 -0.01051918 0.02040729
v 0.00596910 -0.01156965 0.01957907
v 0.00600000 -0.01140729 0.01951918
v 0.00600000 -0.01150000 0.01900000
v 0.00596910 -0.01167306 0.01900000
v 0.00593301 -0.01175000 0.01900000
v 0.00585355 -0.01173899 0.01964155
v 0.00567306 -0.01196910 0.01900000
v 0.00575000 -0.01193301 0.01900000
v 0.00585355 -0.01185355 0.01900000
v 0.00585355 -0.01131066 0.02031066
v 0.00567306 -0.01139236 0.02039236
v 0.00550000 -0.01141421 0.02041421
v 0.00550000 -0.01200000 -0.01500000
v 0.00567306 -0.01196910 -0.01500000
v 0.00575000 -0.01193301 -0.01500000
v 0.00585355 -0.01185355 -0.01500000
v 0.00593301 -0.01175000 -0.01500000
v 0.00596910 -0.01167306 -0.01500000
v 0.00600000 -0.01150000 -0.01500000
v 0.00050000 -0.01200000 0.01900000
v 0.00050000 -0.01187638 0.01969223
v 0.00050000 -0.01173205 0.02000000
v 0.00050000 -0.01141421 0.02041421
v 0.00050000 -0.01100000 0.02073205
v 0.00050000 -0.01069223 0.02087638
v 0.00006699 0.01000000 0.02075000
v 0.00014645 0.01000000 0.02085355
v 0.00014645 0.01064155 0.02073899
v 0.00025000 0.01000000 0.02093301
v 0.00032694 0.01000000 0.02096910
v 0.00032694 0.01068154 0.02084739
v 0.00014645 0.01173899 0.01964155
v 0.00003090 0.01000000 0.02067306
v 0.00003090 0.01057907 0.02056965
v 0.00003090 0.01118303 0.02018303
v 0.00032694 0.01184739 0.01968154
v 0.00032694 0.01139236 0.02039236
v 0.00014645 0.01131066 0.02031066
v 0.00003090 -0.01000000 0.02067306
v 0.00006699 -0.01000000 0.02075000
v 0.00014645 -0.01000000 0.02085355
v 0.00025000 -0.01000000 0.02093301
v 0.00032694 -0.01000000 0.02096910
v 0.00014645 -0.01185355 0.01900000
v 0.00014645 -0.01173899 0.01964155
v 0.00025000 -0.01193301 0.01900000
v 0.00032694 -0.01196910 0.01900000
v 0.00032694 -0.01184739 0.01968154
v 0.00014645 -0.01064155 0.02073899
v 0.00003090 -0.01057907 0.02056965
v 0.00003090 -0.01156965 0.01957907
v 0.00003090 -0.01118303 0.02018303
v 0.00032694 -0.01068154 0.02084739
v 0.00032694 -0.01139236 0.02039236
v 0.00014645 -0.01131066 0.02031066
v 0.00032694 -0.01196910 -0.01500000
v 0.00050000 -0.01200000 -0.01500000
v 0.00600000 0.01362806 -0.07058323
v 0.00600000 0.01093225 -0.07097282
v 0.00600000 0.00820943 -0.07089949
v 0.00600000 0.00553849 -0.07036538
v 0.00600000 0.00299686 -0.06938597
v 0.00600000 0.00065819 -0.06798963
v 0.00600000 0.01621872 -0.06974203
v 0.00600000 0.01862916 -0.06847358
v 0.00600000 0.02078952 -0.06681467
v 0.00600000 0.02263718 -0.06481335
v 0.00600000 0.02411860 -0.06252762
v 0.00600000 0.02519085 -0.06002374
v 0.00600000 0.02582286 -0.05737426
v 0.00600000 0.02599630 -0.05465597
v 0.00600000 0.02570615 -0.05194766
v 0.00600000 -0.00140975 -0.06621684
v 0.00600000 -0.00314703 -0.06411897
v 0.00600000 -0.01088550 -0.02919264
v 0.00600000 -0.00996942 -0.03736767
v 0.00600000 -0.00864508 -0.04548657
v 0.00600000 -0.00691580 -0.05352895
v 0.00600000 -0.00540623 -0.05931836
v 0.00600000 -0.00450328 -0.06175683
v 0.00600000 -0.01139100 -0.02098199
v 0.00585355 -0.01174432 -0.02099487
v 0.00567306 -0.01185979 -0.02099908
v 0.00567306 -0.00585791 -0.05944496
v 0.00567306 -0.00737179 -0.05363901
v 0.00550000 -0.00588767 -0.05945330
v 0.00550000 -0.00740184 -0.05364626
v 0.00550000 -0.00831964 -0.04962369
v 0.00567306 -0.00910602 -0.04557366
v 0.00550000 -0.00913639 -0.04557940
v 0.00567306 -0.01043415 -0.03743157
v 0.00550000 -0.01046476 -0.03743578
v 0.00567306 -0.01135284 -0.02923319
v 0.00550000 -0.01138362 -0.02923586
v 0.00550000 -0.01168873 -0.02512121
v 0.00550000 -0.01189067 -0.02100020
v 0.00596910 -0.01156395 -0.02098829
v 0.00596910 -0.01105791 -0.02920760
v 0.00596910 -0.01014087 -0.03739125
v 0.00596910 -0.00881513 -0.04551870
v 0.00596910 -0.00708402 -0.05356955
v 0.00596910 -0.00557286 -0.05936506
v 0.00585355 -0.00574666 -0.05941378
v 0.00585355 -0.00725948 -0.05361190
v 0.00585355 -0.00899249 -0.04555221
v 0.00585355 -0.01031968 -0.03741583
v 0.00585355 -0.01123773 -0.02922320
v 0.00032694 -0.01181688 -0.02207871
v 0.00050000 -0.01184776 -0.02208004
v 0.00050000 -0.01124864 -0.03071433
v 0.00050000 -0.01168873 -0.02512121
v 0.00050000 -0.00900142 -0.04628528
v 0.00050000 -0.01019678 -0.03930523
v 0.00050000 -0.01046476 -0.03743578
v -0.00250180 -0.00672870 -0.05629504
v -0.00400000 -0.00588767 -0.05945330
v -0.00290938 -0.00646518 -0.05733938
v 0.00018117 -0.00839649 -0.04926471
v -0.00398431 -0.00589743 -0.05941847
v -0.00087388 -0.00759734 -0.05282726
v 0.00006767 -0.00828506 -0.04978435
v -0.02183773 0.02541628 -0.06044692
v -0.02183773 0.02611507 -0.05776320
v -0.02124448 0.02626266 -0.05778851
v -0.02124448 0.01394871 -0.07102054
v -0.02124448 0.01347621 -0.07112966
v -0.02183773 0.01344466 -0.07098328
v -0.02183773 0.01069392 -0.07133552
v -0.02183773 -0.00582268 -0.05088010
v -0.02183773 0.02611507 -0.05223680
v -0.02183773 0.02541628 -0.04955308
v -0.02124448 0.02555748 -0.04950319
v -0.02183773 0.02427400 -0.04702606
v -0.02183773 -0.00629135 -0.05361340
v -0.02124448 -0.00644056 -0.05639930
v -0.02183773 -0.00629135 -0.05638660
v -0.02124448 -0.00637970 -0.05698885
v -0.02124448 -0.00596759 -0.05915764
v -0.02183773 -0.00582268 -0.05911990
v -0.02124448 -0.00542777 -0.06085098
v -0.02183773 -0.00489881 -0.06173469
v -0.02124448 -0.00503527 -0.06179637
v -0.02124448 -0.00367041 -0.06423958
v -0.02183773 -0.00354634 -0.06415573
v -0.02124448 -0.00357923 -0.06437307
v -0.02183773 -0.00180416 -0.06631337
v -0.02124448 -0.00191228 -0.06641699
v -0.02183773 0.00027760 -0.06814555
v -0.02124448 0.00018855 -0.06826595
v -0.02124448 -0.00094152 -0.06735042
v -0.02183773 0.00521227 -0.07063357
v -0.02124448 0.00516842 -0.07077675
v -0.02183773 0.00263906 -0.06959956
v -0.02124448 0.00257164 -0.06973328
v -0.02124448 0.00233207 -0.06961002
v -0.02124448 0.01070028 -0.07148513
v -0.02124448 0.01000000 -0.07150000
v -0.02183773 0.00792323 -0.07121782
v -0.02124448 0.00790421 -0.07136635
v -0.02124448 0.00605129 -0.07102054
v -0.02124448 0.01615213 -0.07031017
v -0.02183773 0.01609630 -0.07017121
v -0.02124448 0.01766793 -0.06961002
v -0.02183773 0.01857256 -0.06892271
v -0.02124448 0.01865107 -0.06905023
v -0.02124448 0.02090113 -0.06738609
v -0.02183773 0.02080220 -0.06727368
v -0.02124448 0.02094152 -0.06735042
v -0.02183773 0.02272108 -0.06527156
v -0.02124448 0.02283759 -0.06536563
v -0.02124448 0.02555748 -0.06049681
v -0.02124448 0.02542777 -0.06085098
v -0.02183773 0.02427400 -0.06297393
v -0.02124448 0.02440473 -0.06304697
v -0.02124448 0.02357923 -0.06437307
v -0.02124448 0.02626266 -0.05221149
v -0.02124448 0.02637970 -0.05301115
v -0.02183773 0.02635025 -0.05500000
v -0.02124448 0.02650000 -0.05500000
v -0.02124448 0.02637970 -0.05698885
v -0.02228884 0.00052340 -0.06781321
v -0.02228884 -0.00150573 -0.06602735
v -0.02228884 -0.00320386 -0.06392425
v -0.02228884 -0.00452214 -0.06156442
v -0.02228884 -0.00542265 -0.05901574
v -0.02228884 -0.00587947 -0.05635154
v -0.02228884 -0.00587947 -0.05364846
v -0.02228884 -0.00542265 -0.05098426
v -0.02228884 0.00282516 -0.06923045
v -0.02228884 0.00533332 -0.07023831
v -0.02228884 0.00797573 -0.07080780
v -0.02228884 0.01067638 -0.07092252
v -0.02228884 0.01335757 -0.07057918
v -0.02228884 0.01594217 -0.06978766
v -0.02228884 0.01835582 -0.06857072
v -0.02228884 0.02052910 -0.06696337
v -0.02228884 0.02239946 -0.06501187
v -0.02228884 0.02391312 -0.06277233
v -0.02228884 0.02502653 -0.06030921
v -0.02228884 0.02570764 -0.05769335
v -0.02228884 0.02593688 -0.05500000
v -0.02228884 0.02570764 -0.05230666
v -0.02228884 0.02502653 -0.04969079
v -0.02228884 0.02391312 -0.04722766
v -0.02228884 0.02239946 -0.04498813
v -0.02228884 0.02052910 -0.04303662
v -0.02228884 0.01835582 -0.04142928
v -0.02228884 0.01594217 -0.04021234
v -0.02228884 0.01335757 -0.03942082
v -0.02228884 0.01067638 -0.03907748
v -0.02228884 0.00797573 -0.03919220
v -0.02228884 0.00533332 -0.03976168
v -0.02228884 0.00282516 -0.04076955
v -0.02228884 0.00052340 -0.04218679
v -0.02228884 -0.00150573 -0.04397265
v -0.02228884 -0.00320386 -0.04607575
v -0.02228884 -0.00452214 -0.04843558
v -0.02248972 0.00086707 -0.06734854
v -0.02248972 -0.00108848 -0.06562745
v -0.02248972 -0.00272503 -0.06360061
v -0.02248972 -0.00399550 -0.06132637
v -0.02248972 -0.00486335 -0.05887011
v -0.02248972 -0.00530361 -0.05630253
v -0.02248972 -0.00530361 -0.05369747
v -0.02248972 -0.00486335 -0.05112989
v -0.02248972 -0.00399550 -0.04867363
v -0.02248972 0.00308535 -0.06871439
v -0.02248972 0.00550255 -0.06968571
v -0.02248972 0.00804914 -0.07023454
v -0.02248972 0.01065185 -0.07034510
v -0.02248972 0.01323581 -0.07001421
v -0.02248972 0.01572668 -0.06925139
v -0.02248972 0.01805280 -0.06807858
v -0.02248972 0.02014726 -0.06652953
v -0.02248972 0.02194980 -0.06464879
v -0.02248972 0.02340857 -0.06249047
v -0.02248972 0.02448159 -0.06011667
v -0.02248972 0.02513801 -0.05759567
v -0.02248972 0.02535894 -0.05500000
v -0.02248972 0.02513801 -0.05240433
v -0.02248972 0.02448159 -0.04988333
v -0.02248972 0.02340857 -0.04750952
v -0.02248972 0.02194980 -0.04535121
v -0.02248972 0.02014726 -0.04347047
v -0.02248972 0.01805280 -0.04192142
v -0.02248972 0.01572668 -0.04074861
v -0.02248972 0.01323581 -0.03998579
v -0.02248972 0.01065185 -0.03965490
v -0.02248972 0.00804914 -0.03976547
v -0.02248972 0.00550255 -0.04031429
v -0.02248972 0.00308535 -0.04128561
v -0.02248972 0.00086707 -0.04265146
v -0.02248972 -0.00108848 -0.04437255
v -0.02248972 -0.00272503 -0.04639938
v 0.00567306 0.02616663 -0.05185817
v 0.00550000 0.02619697 -0.05185227
v 0.00550000 0.02637970 -0.05301115
v 0.00567306 0.02646529 -0.05464589
v 0.00550000 0.02649618 -0.05464522
v 0.00550000 0.02637970 -0.05698885
v 0.00567306 0.02628676 -0.05744387
v 0.00550000 0.02631732 -0.05744845
v 0.00567306 0.02563623 -0.06017102
v 0.00550000 0.02566557 -0.06018073
v 0.00550000 0.02542777 -0.06085098
v 0.00567306 0.02453254 -0.06274832
v 0.00550000 0.02455981 -0.06276286
v 0.00550000 0.02357923 -0.06437307
v 0.00567306 0.02300768 -0.06510106
v 0.00550000 0.02303209 -0.06512001
v 0.00567306 0.02110585 -0.06716105
v 0.00550000 0.02112669 -0.06718387
v 0.00567306 0.01640105 -0.07017425
v 0.00550000 0.01766793 -0.06961002
v 0.00567306 0.01888216 -0.06886861
v 0.00550000 0.01889882 -0.06889464
v 0.00550000 0.02094152 -0.06735042
v 0.00567306 0.01095959 -0.07144111
v 0.00550000 0.01374144 -0.07107021
v 0.00567306 0.01373443 -0.07104011
v 0.00550000 0.01394871 -0.07102054
v 0.00550000 0.01641306 -0.07020272
v 0.00567306 0.00815693 -0.07136564
v 0.00550000 0.01000000 -0.07150000
v 0.00550000 0.01096139 -0.07147197
v 0.00550000 0.00233207 -0.06961002
v 0.00550000 0.00277801 -0.06983553
v 0.00567306 0.00279154 -0.06980774
v 0.00550000 0.00539907 -0.07084555
v 0.00567306 0.00540769 -0.07081587
v 0.00550000 0.00605129 -0.07102054
v 0.00550000 0.00815347 -0.07139635
v 0.00550000 0.00036625 -0.06839556
v 0.00567306 0.00038430 -0.06837047
v 0.00550000 -0.00094152 -0.06735042
v 0.00567306 -0.00174427 -0.06654570
v 0.00550000 -0.00176631 -0.06656737
v 0.00567306 -0.00353248 -0.06438633
v 0.00550000 -0.00355787 -0.06440394
v 0.00567306 -0.00492850 -0.06195493
v 0.00550000 -0.00495651 -0.06196798
v 0.00550000 -0.00542777 -0.06085098
v 0.00596910 -0.00466015 -0.06182991
v 0.00596910 -0.00328923 -0.06421760
v 0.00596910 -0.00153316 -0.06633817
v 0.00596910 0.00055714 -0.06813013
v 0.00596910 0.00292111 -0.06954157
v 0.00596910 0.00549024 -0.07053158
v 0.00596910 0.00819006 -0.07107146
v 0.00596910 0.01094234 -0.07114558
v 0.00596910 0.01366730 -0.07075179
v 0.00596910 0.01628599 -0.06990148
v 0.00596910 0.01872250 -0.06861932
v 0.00596910 0.02090622 -0.06694245
v 0.00596910 0.02277387 -0.06491949
v 0.00596910 0.02427131 -0.06260904
v 0.00596910 0.02535516 -0.06007807
v 0.00596910 0.02599400 -0.05739994
v 0.00596910 0.02616932 -0.05465225
v 0.00596910 0.02587603 -0.05191464
v 0.00585355 0.02605321 -0.05188021
v 0.00585355 0.02634977 -0.05464837
v 0.00585355 0.02617250 -0.05742672
v 0.00585355 0.02552653 -0.06013475
v 0.00585355 0.02443058 -0.06269395
v 0.00585355 0.02291642 -0.06503019
v 0.00585355 0.02102793 -0.06707574
v 0.00585355 0.01881984 -0.06877132
v 0.00585355 0.01635614 -0.07006779
v 0.00585355 0.01370823 -0.07092758
v 0.00585355 0.01095285 -0.07132577
v 0.00585355 0.00816986 -0.07125083
v 0.00585355 0.00543991 -0.07070491
v 0.00585355 0.00284211 -0.06970385
v 0.00585355 0.00045176 -0.06827667
v 0.00585355 -0.00166188 -0.06646470
v 0.00585355 -0.00343754 -0.06432047
v 0.00585355 -0.00482376 -0.06190614
f 254 292 255
f 283 284 245
f 307 308 227
f 310 308 309
f 307 14 17
f 17 14 12
f 293 255 292
f 177 207 179
f 336 207 177
f 214 212 213
f 242 280 243
f 279 280 242
f 235 273 272
f 236 273 235
f 301 264 263
f 263 264 101
f 263 262 301
f 101 262 263
f 101 264 265
f 265 304 266
f 266 304 267
f 276 275 238
f 153 130 152
f 152 154 153
f 155 154 152
f 24 21 20
f 33 17 12
f 228 227 308
f 228 310 230
f 308 310 228
f 227 228 181
f 13 14 307
f 307 227 13
f 311 310 309
f 230 310 311
f 20 21 22
f 22 19 20
f 225 319 226
f 318 319 225
f 214 325 333
f 333 212 214
f 214 213 215
f 215 213 245
f 317 319 318
f 260 298 299
f 257 258 86
f 86 256 257
f 257 295 296
f 296 258 257
f 254 181 253
f 253 181 252
f 294 295 257
f 257 256 294
f 294 256 255
f 255 293 294
f 232 270 269
f 233 270 232
f 197 233 232
f 232 199 197
f 208 179 207
f 210 208 343
f 283 245 282
f 179 243 178
f 245 213 178
f 177 179 178
f 206 199 204
f 204 232 240
f 199 232 204
f 197 199 201
f 278 279 240
f 278 232 269
f 240 232 278
f 241 279 242
f 240 279 241
f 340 203 211
f 237 273 236
f 195 233 197
f 195 194 193
f 302 264 301
f 302 265 264
f 4 5 81
f 90 262 101
f 101 91 90
f 239 276 238
f 268 267 277
f 277 239 268
f 276 239 277
f 128 152 129
f 129 152 130
f 135 154 136
f 136 154 155
f 307 17 306
f 306 308 307
f 309 308 306
f 306 372 309
f 15 372 18
f 18 19 15
f 18 306 17
f 372 306 18
f 286 248 247
f 286 287 249
f 249 248 286
f 249 173 224
f 224 225 226
f 316 317 318
f 212 333 332
f 214 215 216
f 216 325 214
f 216 327 325
f 247 248 218
f 218 216 215
f 246 215 245
f 246 245 284
f 284 247 246
f 247 218 246
f 246 218 215
f 326 327 328
f 325 327 326
f 319 317 320
f 119 118 367
f 367 118 366
f 367 368 119
f 375 368 367
f 119 368 120
f 312 374 375
f 313 311 312
f 312 311 309
f 369 368 375
f 375 374 369
f 121 120 369
f 369 120 368
f 301 262 300
f 262 299 300
f 84 260 261
f 260 299 261
f 261 90 84
f 261 299 262
f 262 90 261
f 297 298 260
f 260 259 297
f 297 259 258
f 258 296 297
f 252 290 291
f 291 253 252
f 291 292 254
f 254 253 291
f 234 235 272
f 234 270 233
f 233 195 234
f 234 195 235
f 193 194 352
f 352 194 350
f 48 47 61
f 53 50 49
f 49 48 61
f 281 243 280
f 281 282 243
f 244 282 245
f 243 282 244
f 245 178 244
f 244 178 243
f 206 204 205
f 203 205 202
f 202 205 204
f 202 211 203
f 202 204 240
f 240 241 202
f 202 241 242
f 273 237 274
f 196 195 197
f 194 195 196
f 350 194 196
f 192 195 193
f 235 195 192
f 193 191 192
f 186 159 107
f 161 145 162
f 162 186 161
f 304 265 303
f 265 302 303
f 305 267 304
f 305 277 267
f 161 186 188
f 143 145 161
f 185 95 180
f 185 239 238
f 180 239 185
f 71 72 98
f 93 104 94
f 76 3 94
f 94 104 76
f 132 149 126
f 149 127 126
f 25 24 26
f 6 2 29
f 20 19 32
f 19 18 32
f 17 33 32
f 32 18 17
f 36 35 47
f 47 35 44
f 44 45 46
f 61 47 44
f 87 13 227
f 227 183 87
f 87 11 13
f 88 11 87
f 82 81 5
f 80 81 82
f 82 79 80
f 88 87 89
f 89 82 88
f 79 82 89
f 255 256 89
f 256 86 89
f 85 260 84
f 85 259 260
f 84 77 85
f 85 77 79
f 258 259 85
f 85 86 258
f 85 89 86
f 79 89 85
f 10 8 33
f 10 33 12
f 88 82 7
f 7 82 5
f 287 288 250
f 249 287 250
f 250 173 249
f 250 288 289
f 285 247 284
f 285 286 247
f 229 174 252
f 252 181 229
f 229 228 230
f 229 181 228
f 230 311 231
f 231 311 313
f 231 229 230
f 174 229 231
f 375 317 314
f 317 316 314
f 314 312 375
f 212 332 176
f 177 178 176
f 176 213 212
f 176 178 213
f 330 336 177
f 177 176 330
f 330 176 332
f 324 332 333
f 324 333 325
f 325 326 324
f 332 324 331
f 331 330 332
f 336 330 331
f 217 218 219
f 216 218 217
f 327 216 217
f 217 219 328
f 328 327 217
f 220 218 248
f 220 221 219
f 219 218 220
f 220 248 249
f 249 224 220
f 226 221 220
f 220 224 226
f 319 320 321
f 226 319 321
f 321 221 226
f 376 367 366
f 376 317 375
f 375 367 376
f 271 234 272
f 270 234 271
f 342 341 340
f 340 211 342
f 210 343 342
f 342 211 210
f 353 191 193
f 193 352 353
f 153 154 354
f 354 130 153
f 206 344 200
f 200 199 206
f 200 201 199
f 348 201 346
f 201 200 346
f 346 200 344
f 348 346 347
f 51 39 38
f 38 48 51
f 51 49 50
f 48 49 51
f 209 202 242
f 210 211 209
f 211 202 209
f 209 208 210
f 179 208 209
f 242 243 209
f 209 243 179
f 198 201 348
f 348 350 198
f 350 196 198
f 197 201 198
f 198 196 197
f 80 79 78
f 79 77 78
f 189 188 190
f 236 235 190
f 235 192 190
f 191 189 190
f 190 192 191
f 167 189 191
f 166 168 138
f 189 168 166
f 138 136 139
f 100 92 91
f 100 91 101
f 100 93 92
f 104 93 100
f 104 100 106
f 106 100 101
f 186 107 187
f 187 188 186
f 187 190 188
f 187 237 236
f 236 190 187
f 185 98 97
f 95 185 97
f 46 63 62
f 62 44 46
f 61 44 62
f 61 62 42
f 75 76 104
f 67 133 68
f 134 158 133
f 23 26 24
f 23 24 20
f 20 32 23
f 23 32 28
f 6 29 16
f 16 8 6
f 33 8 16
f 16 32 33
f 28 32 16
f 34 44 35
f 1 45 34
f 45 44 34
f 182 87 183
f 182 181 254
f 227 181 182
f 182 183 227
f 254 255 182
f 182 255 184
f 184 255 83
f 83 182 184
f 87 182 83
f 255 89 83
f 83 89 87
f 88 7 9
f 9 11 88
f 251 174 173
f 173 250 251
f 252 174 251
f 251 250 289
f 289 290 251
f 251 290 252
f 173 174 175
f 174 231 175
f 175 231 313
f 313 312 315
f 312 314 315
f 315 175 313
f 315 314 316
f 381 331 324
f 381 382 331
f 379 324 326
f 366 118 117
f 117 365 366
f 221 321 323
f 328 219 323
f 219 221 323
f 121 369 122
f 369 370 122
f 371 370 372
f 123 122 371
f 371 122 370
f 15 19 371
f 371 372 15
f 22 123 371
f 19 22 371
f 309 372 373
f 372 370 373
f 373 312 309
f 374 312 373
f 373 369 374
f 373 370 369
f 110 111 361
f 335 343 208
f 207 336 335
f 335 208 207
f 383 382 361
f 345 385 386
f 345 346 344
f 386 347 345
f 345 347 346
f 389 354 154
f 389 154 135
f 385 384 358
f 386 385 358
f 358 357 386
f 160 108 107
f 160 107 159
f 160 159 186
f 186 162 160
f 170 168 189
f 189 167 170
f 137 353 135
f 137 170 167
f 168 170 137
f 138 168 137
f 135 136 137
f 137 136 138
f 138 139 171
f 171 166 138
f 189 166 171
f 128 127 150
f 150 127 149
f 149 158 150
f 150 158 157
f 165 143 161
f 165 164 143
f 161 188 165
f 188 164 165
f 163 188 189
f 163 164 188
f 95 97 96
f 180 95 96
f 96 239 180
f 268 239 96
f 105 73 74
f 74 75 105
f 104 106 105
f 105 75 104
f 61 42 57
f 69 68 148
f 148 68 133
f 132 70 148
f 148 70 69
f 148 149 132
f 148 158 149
f 133 158 148
f 145 143 144
f 158 134 144
f 56 57 60
f 58 41 43
f 42 41 58
f 30 31 28
f 28 16 30
f 30 16 29
f 37 36 47
f 37 48 38
f 47 48 37
f 173 175 222
f 175 315 222
f 222 315 316
f 362 115 109
f 363 115 362
f 109 110 362
f 362 110 361
f 361 382 362
f 382 381 362
f 380 381 324
f 380 379 363
f 324 379 380
f 363 362 380
f 380 362 381
f 364 379 365
f 364 117 116
f 365 117 364
f 363 379 364
f 116 115 364
f 364 115 363
f 365 379 378
f 378 379 326
f 366 365 378
f 359 111 112
f 359 358 384
f 384 383 359
f 329 335 336
f 336 331 329
f 331 382 329
f 337 345 344
f 337 344 206
f 206 205 337
f 349 350 348
f 348 347 349
f 388 389 349
f 349 352 350
f 387 347 386
f 387 349 347
f 388 349 387
f 351 353 352
f 352 349 351
f 351 349 389
f 135 353 351
f 351 389 135
f 130 354 131
f 354 125 131
f 113 359 112
f 358 359 113
f 113 114 357
f 357 358 113
f 146 160 162
f 146 162 145
f 145 144 146
f 146 144 134
f 140 156 157
f 140 139 136
f 140 136 155
f 155 156 140
f 128 150 151
f 151 152 128
f 157 156 151
f 151 150 157
f 155 152 151
f 151 156 155
f 172 171 139
f 189 171 172
f 72 73 99
f 99 98 72
f 73 105 99
f 99 97 98
f 99 96 97
f 106 96 99
f 99 105 106
f 102 267 268
f 268 96 102
f 102 96 106
f 40 62 63
f 40 42 62
f 40 41 42
f 52 56 55
f 57 56 52
f 52 54 53
f 55 54 52
f 53 49 52
f 52 49 61
f 61 57 52
f 42 58 59
f 60 57 59
f 59 57 42
f 28 31 27
f 27 23 28
f 26 23 27
f 173 222 223
f 225 224 223
f 223 224 173
f 223 222 316
f 318 225 223
f 223 316 318
f 328 323 322
f 322 326 328
f 322 378 326
f 320 378 322
f 322 321 320
f 322 323 321
f 366 378 377
f 377 378 320
f 377 376 366
f 377 320 317
f 317 376 377
f 111 359 360
f 360 359 383
f 361 111 360
f 360 383 361
f 335 329 334
f 343 335 334
f 382 383 334
f 334 329 382
f 334 342 343
f 341 342 334
f 334 384 341
f 334 383 384
f 385 345 339
f 345 337 339
f 341 384 339
f 339 384 385
f 340 341 339
f 124 125 356
f 388 387 356
f 356 114 124
f 357 114 356
f 386 357 356
f 356 387 386
f 147 146 134
f 160 146 147
f 147 65 64
f 134 65 147
f 64 108 147
f 108 160 147
f 143 140 142
f 142 140 157
f 142 144 143
f 157 158 142
f 158 144 142
f 141 163 139
f 139 140 141
f 164 163 141
f 143 164 141
f 141 140 143
f 139 163 169
f 169 172 139
f 169 163 189
f 189 172 169
f 267 102 103
f 103 102 106
f 266 267 103
f 103 265 266
f 103 106 101
f 101 265 103
f 66 133 67
f 66 134 133
f 66 65 134
f 338 337 205
f 338 339 337
f 338 205 203
f 338 203 340
f 340 339 338
f 388 356 355
f 355 356 125
f 355 125 354
f 354 389 355
f 355 389 388
f 4 3 2
f 2 3 1
f 4 2 5
f 5 2 6
f 81 3 4
f 94 3 81
f 12 14 11
f 14 13 11
f 274 237 238
f 238 275 274
f 77 90 91
f 84 90 77
f 94 81 93
f 93 81 80
f 1 3 76
f 76 45 1
f 26 39 25
f 38 39 26
f 7 5 6
f 6 8 7
f 275 276 271
f 304 303 271
f 271 296 295
f 295 294 271
f 271 278 269
f 271 284 283
f 283 282 271
f 271 281 280
f 271 290 289
f 269 270 271
f 271 305 304
f 298 297 271
f 271 293 292
f 280 279 271
f 272 273 271
f 271 302 301
f 289 288 271
f 271 299 298
f 301 300 271
f 271 294 293
f 271 285 284
f 292 291 271
f 279 278 271
f 271 274 275
f 276 277 271
f 271 288 287
f 287 286 271
f 271 300 299
f 271 297 296
f 271 291 290
f 282 281 271
f 273 274 271
f 271 303 302
f 277 305 271
f 286 285 271
f 64 43 108
f 108 43 71
f 71 98 108
f 108 98 107
f 78 93 80
f 92 93 78
f 78 77 91
f 91 92 78
f 107 98 187
f 187 98 185
f 238 237 187
f 187 185 238
f 74 63 75
f 75 63 46
f 45 76 75
f 46 45 75
f 34 2 1
f 34 29 2
f 9 7 8
f 8 10 9
f 12 11 9
f 9 10 12
f 137 167 191
f 191 353 137
f 71 43 41
f 41 72 71
f 69 70 54
f 54 55 69
f 67 68 56
f 56 60 67
f 69 55 56
f 56 68 69
f 58 43 64
f 64 65 58
f 29 34 30
f 30 34 35
f 36 31 30
f 35 36 30
f 113 22 21
f 128 129 113
f 113 50 53
f 39 51 113
f 116 117 113
f 25 39 113
f 113 110 109
f 113 24 25
f 113 118 119
f 113 115 116
f 119 120 113
f 21 24 113
f 132 126 113
f 112 111 113
f 113 129 130
f 113 127 128
f 113 123 22
f 113 70 132
f 113 120 121
f 109 115 113
f 53 54 113
f 113 126 127
f 121 122 113
f 113 51 50
f 130 131 113
f 113 117 118
f 113 122 123
f 111 110 113
f 113 125 124
f 124 114 113
f 113 54 70
f 113 131 125
f 40 63 74
f 74 73 40
f 72 41 40
f 40 73 72
f 38 26 27
f 27 37 38
f 27 31 36
f 36 37 27
f 67 60 66
f 60 59 66
f 66 58 65
f 66 59 58

