# https://github.com/mikedh/trimesh
v 0.00050000 -0.01000000 0.02100000
v 0.01350000 -0.01000000 0.02100000
v 0.00050000 0.01000000 0.02100000
v 0.01350000 0.01000000 0.02100000
v 0.01350000 -0.01069223 0.02087638
v 0.00050000 -0.01069223 0.02087638
v 0.01350000 -0.01100000 0.02073205
v 0.00050000 -0.01100000 0.02073205
v 0.01350000 -0.01141421 0.02041421
v 0.00050000 -0.01141421 0.02041421
v 0.01350000 -0.01173205 0.02000000
v 0.00050000 -0.01173205 0.02000000
v 0.01350000 -0.01187638 0.01969223
v 0.00050000 -0.01187638 0.01969223
v 0.00025000 -0.01000000 0.02093301
v 0.00014645 -0.01000000 0.02085355
v 0.00014645 -0.01064155 0.02073899
v 0.00006699 -0.01000000 0.02075000
v 0.00003090 -0.01000000 0.02067306
v 0.00003090 -0.01057907 0.02056965
v 0.00014645 -0.01173899 0.01964155
v 0.00032694 -0.01184739 0.01968154
v 0.00032694 -0.01068154 0.02084739
v 0.00032694 -0.01000000 0.02096910
v 0.00032694 -0.01139236 0.02039236
v 0.00003090 -0.01156965 0.01957907
v 0.00003090 -0.01118303 0.02018303
v 0.00014645 -0.01131066 0.02031066
v 0.00003090 0.01000000 0.02067306
v 0.00006699 0.01000000 0.02075000
v 0.00032694 0.01000000 0.02096910
v 0.00025000 0.01000000 0.02093301
v 0.00014645 0.01000000 0.02085355
v 0.00025000 0.01193301 0.01900000
v 0.00014645 0.01185355 0.01900000
v 0.00014645 0.01173899 0.01964155
v 0.00006699 0.01175000 0.01900000
v 0.00003090 0.01156965 0.01957907
v 0.00014645 0.01064155 0.02073899
v 0.00032694 0.01068154 0.02084739
v 0.00050000 0.01173205 0.02000000
v 0.00050000 0.01187638 0.01969223
v 0.00032694 0.01184739 0.01968154
v 0.00050000 0.01200000 0.01900000
v 0.00032694 0.01196910 0.01900000
v 0.00050000 0.01141421 0.02041421
v 0.00032694 0.01139236 0.02039236
v 0.00050000 0.01100000 0.02073205
v 0.00050000 0.01069223 0.02087638
v 0.00003090 0.01057907 0.02056965
v 0.00003090 0.01118303 0.02018303
v 0.00014645 0.01131066 0.02031066
v 0.01350000 0.01200000 0.01900000
v 0.01350000 0.01187638 0.01969223
v 0.01350000 0.01173205 0.02000000
v 0.01350000 0.01141421 0.02041421
v 0.01350000 0.01100000 0.02073205
v 0.01350000 0.01069223 0.02087638
v 0.00032694 0.01196910 -0.01500000
v 0.00050000 0.01200000 -0.01500000
v 0.01375000 -0.01193301 0.01900000
v 0.01393301 -0.01175000 0.01900000
v 0.01393301 -0.01000000 0.02075000
v 0.01385355 -0.01000000 0.02085355
v 0.01385355 -0.01064155 0.02073899
v 0.01375000 -0.01000000 0.02093301
v 0.01367306 -0.01000000 0.02096910
v 0.01367306 -0.01068154 0.02084739
v 0.01385355 -0.01173899 0.01964155
v 0.01396910 -0.01156965 0.01957907
v 0.01400000 -0.01000000 0.02050000
v 0.01396910 -0.01000000 0.02067306
v 0.01396910 -0.01057907 0.02056965
v 0.01400000 -0.01051918 0.02040729
v 0.01396910 -0.01118303 0.02018303
v 0.01400000 -0.01106066 0.02006066
v 0.01400000 -0.01140729 0.01951918
v 0.01367306 -0.01184739 0.01968154
v 0.01367306 -0.01139236 0.02039236
v 0.01385355 -0.01131066 0.02031066
v 0.01367306 0.01000000 0.02096910
v 0.01375000 0.01000000 0.02093301
v 0.01385355 0.01000000 0.02085355
v 0.01393301 0.01000000 0.02075000
v 0.01396910 0.01000000 0.02067306
v 0.01400000 0.01000000 0.02050000
v 0.01393301 0.01175000 0.01900000
v 0.01385355 0.01185355 0.01900000
v 0.01385355 0.01173899 0.01964155
v 0.01375000 0.01193301 0.01900000
v 0.01367306 0.01196910 0.01900000
v 0.01367306 0.01184739 0.01968154
v 0.01385355 0.01064155 0.02073899
v 0.01396910 0.01057907 0.02056965
v 0.01400000 0.01150000 0.01900000
v 0.01396910 0.01167306 0.01900000
v 0.01396910 0.01156965 0.01957907
v 0.01400000 0.01140729 0.01951918
v 0.01396910 0.01118303 0.02018303
v 0.01400000 0.01106066 0.02006066
v 0.01400000 0.01051918 0.02040729
v 0.01367306 0.01068154 0.02084739
v 0.01367306 0.01139236 0.02039236
v 0.01385355 0.01131066 0.02031066
v 0.01400000 0.01150000 -0.01500000
v 0.01396910 0.01167306 -0.01500000
v 0.01350000 0.01200000 -0.01500000
v 0.01367306 0.01196910 -0.01500000
v 0.01375000 0.01193301 -0.01500000
v 0.01385355 0.01185355 -0.01500000
v 0.01393301 0.01175000 -0.01500000
v 0.01385355 0.01176915 -0.01988980
v 0.01396910 0.01158876 -0.01988357
v 0.01400000 0.00422819 -0.05974958
v 0.01396910 0.00439235 -0.05980438
v 0.01396910 0.00585871 -0.05514540
v 0.01400000 0.00569277 -0.05509630
v 0.01396910 0.00771650 -0.04822728
v 0.01400000 0.00754828 -0.04818664
v 0.01396910 0.00922180 -0.04122401
v 0.01400000 0.00905174 -0.04119194
v 0.01396910 0.01037075 -0.03415353
v 0.01400000 0.01019928 -0.03413010
v 0.01396910 0.01116041 -0.02703397
v 0.01400000 0.01098798 -0.02701925
v 0.01400000 0.01141580 -0.01987759
v 0.01350000 0.01191551 -0.01989485
v 0.01367306 0.01188462 -0.01989378
v 0.01350000 0.01178732 -0.02276415
v 0.01367306 0.01145538 -0.02705915
v 0.01350000 0.01148617 -0.02706177
v 0.01350000 0.01088187 -0.03277393
v 0.01367306 0.01066406 -0.03419360
v 0.01350000 0.01069468 -0.03419778
v 0.01367306 0.00951270 -0.04127887
v 0.01350000 0.00954307 -0.04128460
v 0.01367306 0.00800426 -0.04829679
v 0.01350000 0.00803430 -0.04830405
v 0.01350000 0.00695916 -0.05247590
v 0.01367306 0.00614259 -0.05522939
v 0.01350000 0.00617222 -0.05523816
v 0.01367306 0.00467315 -0.05989812
v 0.01350000 0.00470247 -0.05990790
v 0.01385355 0.01134025 -0.02704932
v 0.01385355 0.01054958 -0.03417796
v 0.01385355 0.00939916 -0.04125746
v 0.01385355 0.00789195 -0.04826966
v 0.01385355 0.00603179 -0.05519661
v 0.01385355 0.00456355 -0.05986153
v -0.00015748 0.00723874 -0.05143939
v -0.00098875 0.00658301 -0.05382257
v 0.00042096 0.00796355 -0.04859490
v -0.00249909 0.00566928 -0.05686479
v -0.00400000 0.00470247 -0.05990790
v -0.00130617 0.00636531 -0.05457912
v 0.00050000 0.00830071 -0.04718123
v 0.00032694 0.01186176 -0.02051628
v 0.00050000 0.00944810 -0.04178330
v 0.00050000 0.01061971 -0.03473875
v 0.00050000 0.01088187 -0.03277393
v 0.00032694 0.01140447 -0.02764139
v 0.00050000 0.01143525 -0.02764414
v 0.00050000 0.01178732 -0.02276415
v 0.00050000 0.01189264 -0.02051748
v 0.01400000 -0.02487259 -0.05304907
v 0.01400000 -0.02498608 -0.05564613
v 0.01400000 -0.02464948 -0.05822378
v 0.01400000 -0.02387290 -0.06070461
v 0.01400000 -0.02267967 -0.06301410
v 0.01400000 -0.02110562 -0.06508292
v 0.01400000 0.00319451 -0.06213477
v 0.01400000 0.00176455 -0.06430566
v 0.01400000 -0.00001874 -0.06619707
v 0.01400000 -0.00210181 -0.06775220
v 0.01400000 -0.00442209 -0.06892433
v 0.01400000 -0.00690990 -0.06967826
v 0.01400000 -0.00949051 -0.06999134
v 0.01400000 -0.01208643 -0.06985418
v 0.01400000 -0.01461968 -0.06927090
v 0.01400000 -0.01701419 -0.06825900
v 0.01400000 -0.01919803 -0.06684889
v -0.01383773 0.00202072 -0.06454633
v -0.01383773 0.00349580 -0.06231393
v -0.01324448 0.00362746 -0.06238528
v -0.01324448 -0.01911067 -0.06753977
v -0.01324448 -0.01963946 -0.06713799
v -0.01383773 -0.01954633 -0.06702072
v -0.01324448 -0.02402482 -0.06159958
v -0.01324448 -0.02441701 -0.06069207
v -0.01383773 -0.02427773 -0.06063708
v -0.01383773 -0.02503969 -0.05807214
v -0.01383773 0.00518342 -0.05725701
v -0.01383773 0.00534467 -0.05458615
v -0.01324448 -0.02533154 -0.05272097
v -0.01383773 -0.02518342 -0.05274299
v -0.01383773 -0.02456082 -0.05014071
v -0.01324448 -0.02518641 -0.05810211
v -0.01324448 -0.02522545 -0.05790441
v -0.01383773 -0.02534467 -0.05541385
v -0.01324448 -0.02549437 -0.05541789
v -0.01324448 -0.02546941 -0.05402675
v -0.01324448 -0.02320957 -0.06310908
v -0.01383773 -0.02308195 -0.06303074
v -0.01324448 -0.02194295 -0.06488007
v -0.01383773 -0.02148868 -0.06518039
v -0.01324448 -0.02160076 -0.06527971
v -0.01324448 -0.01738528 -0.06862746
v -0.01383773 -0.01731393 -0.06849580
v -0.01324448 -0.01570593 -0.06941154
v -0.01383773 -0.01485929 -0.06956082
v -0.01324448 -0.01490670 -0.06970287
v -0.01324448 -0.01227903 -0.07033154
v -0.01383773 -0.01225701 -0.07018342
v -0.01324448 -0.01194267 -0.07037777
v -0.01383773 -0.00958615 -0.07034467
v -0.01324448 -0.00958211 -0.07049437
v -0.01324448 -0.00805733 -0.07037777
v -0.01383773 -0.00692786 -0.07003968
v -0.01324448 -0.00689789 -0.07018641
v -0.01324448 -0.00430793 -0.06941701
v -0.01383773 -0.00436292 -0.06927773
v -0.01324448 -0.00429407 -0.06941154
v -0.01383773 -0.00196926 -0.06808195
v -0.01324448 -0.00189091 -0.06820957
v -0.01324448 0.00213799 -0.06463946
v -0.01324448 0.00194296 -0.06488007
v -0.01383773 0.00018039 -0.06648868
v -0.01324448 0.00027971 -0.06660075
v -0.01324448 -0.00088933 -0.06753977
v -0.01324448 0.00533154 -0.05727903
v -0.01324448 0.00522545 -0.05790441
v -0.01383773 0.00456082 -0.05985929
v -0.01324448 0.00470287 -0.05990670
v -0.01324448 0.00402482 -0.06159958
v -0.01428884 -0.02117930 -0.06490625
v -0.01428884 -0.02272966 -0.06281448
v -0.01428884 -0.02389324 -0.06048528
v -0.01428884 -0.02463468 -0.05798941
v -0.01428884 -0.02493145 -0.05540271
v -0.01428884 -0.02477454 -0.05280377
v -0.01428884 -0.02416871 -0.05027156
v -0.01428884 -0.02313237 -0.04788303
v -0.01428884 -0.01928926 -0.06669701
v -0.01428884 -0.01711697 -0.06813237
v -0.01428884 -0.01472844 -0.06916871
v -0.01428884 -0.01219623 -0.06977454
v -0.01428884 -0.00959729 -0.06993145
v -0.01428884 -0.00701059 -0.06963468
v -0.01428884 -0.00451472 -0.06889324
v -0.01428884 -0.00218552 -0.06772966
v -0.01428884 -0.00009376 -0.06617930
v -0.01428884 0.00169701 -0.06428926
v -0.01428884 0.00313237 -0.06211697
v -0.01428884 0.00416871 -0.05972844
v -0.01428884 0.00477454 -0.05719623
v -0.01428884 0.00493145 -0.05459729
v -0.01428884 0.00463468 -0.05201059
v -0.01428884 0.00389324 -0.04951472
v -0.01428884 0.00272966 -0.04718552
v -0.01428884 -0.01990625 -0.04382070
v -0.01428884 -0.02169701 -0.04571074
v -0.01448972 -0.02074675 -0.06452294
v -0.01448972 -0.02223712 -0.06251212
v -0.01448972 -0.02335568 -0.06027304
v -0.01448972 -0.02406843 -0.05787374
v -0.01448972 -0.02435372 -0.05538713
v -0.01448972 -0.02420288 -0.05288875
v -0.01448972 -0.02362049 -0.05045452
v -0.01448972 -0.02262425 -0.04815840
v -0.01448972 -0.02124443 -0.04607017
v -0.01448972 -0.01892984 -0.06624442
v -0.01448972 -0.01684160 -0.06762425
v -0.01448972 -0.01454548 -0.06862049
v -0.01448972 -0.01211125 -0.06920288
v -0.01448972 -0.00961287 -0.06935371
v -0.01448972 -0.00712626 -0.06906842
v -0.01448972 -0.00472696 -0.06835568
v -0.01448972 -0.00248788 -0.06723712
v -0.01448972 -0.00047705 -0.06574675
v -0.01448972 0.00124442 -0.06392983
v -0.01448972 0.00262425 -0.06184160
v -0.01448972 0.00362049 -0.05954548
v -0.01448972 0.00420288 -0.05711125
v -0.01448972 0.00435372 -0.05461287
v -0.01448972 0.00406843 -0.05212626
v -0.01448972 0.00335568 -0.04972696
v -0.01448972 0.00223712 -0.04748788
v -0.01448972 0.00074674 -0.04547705
v -0.01448972 -0.00107016 -0.04375558
v -0.01448972 -0.00315840 -0.04237575
v -0.01448972 -0.00545452 -0.04137952
v -0.01448972 -0.00788875 -0.04079713
v -0.01448972 -0.01038713 -0.04064628
v -0.01448972 -0.01287374 -0.04093157
v -0.01448972 -0.01527304 -0.04164432
v -0.01448972 -0.01751212 -0.04276288
v -0.01448972 -0.01952295 -0.04425326
v 0.01396910 -0.02504418 -0.05302656
v 0.01396910 -0.02515898 -0.05565358
v 0.01396910 -0.02481849 -0.05826097
v 0.01396910 -0.02403296 -0.06077042
v 0.01396910 -0.02282596 -0.06310657
v 0.01396910 -0.02123375 -0.06519924
v 0.01396910 -0.01930415 -0.06698559
v 0.01396910 -0.01709511 -0.06841198
v 0.01396910 -0.01467298 -0.06943554
v 0.01396910 -0.01211050 -0.07002556
v 0.01396910 -0.00948463 -0.07016430
v 0.01396910 -0.00687425 -0.06984761
v 0.01396910 -0.00435774 -0.06908498
v 0.01396910 -0.00201069 -0.06789932
v 0.01396910 0.00009641 -0.06632626
v 0.01396910 0.00190028 -0.06441303
v 0.01396910 0.00334674 -0.06221708
v 0.01350000 0.00194296 -0.06488007
v 0.01350000 0.00215670 -0.06461585
v 0.01367306 0.00213246 -0.06459668
v 0.01350000 0.00363433 -0.06237259
v 0.01367306 0.00360714 -0.06235789
v 0.01350000 0.00402482 -0.06159958
v 0.01350000 0.00031396 -0.06657031
v 0.01367306 0.00029340 -0.06654724
v 0.01350000 -0.00088933 -0.06753977
v 0.01367306 -0.00185481 -0.06815100
v 0.01350000 -0.00183854 -0.06817728
v 0.01367306 -0.00424766 -0.06935979
v 0.01350000 -0.00423616 -0.06938847
v 0.01350000 -0.00429407 -0.06941154
v 0.01367306 -0.00681326 -0.07013729
v 0.01350000 -0.00680690 -0.07016753
v 0.01350000 -0.00805733 -0.07037777
v 0.01367306 -0.00947458 -0.07046017
v 0.01350000 -0.00947353 -0.07049105
v 0.01350000 -0.01194267 -0.07037777
v 0.01367306 -0.01215168 -0.07031872
v 0.01350000 -0.01215598 -0.07034933
v 0.01367306 -0.01476415 -0.06971719
v 0.01350000 -0.01477367 -0.06974660
v 0.01350000 -0.01570593 -0.06941154
v 0.01367306 -0.01723354 -0.06867366
v 0.01350000 -0.01724799 -0.06870097
v 0.01350000 -0.01911067 -0.06753977
v 0.01367306 -0.01948568 -0.06721944
v 0.01350000 -0.01950463 -0.06724385
v 0.01367306 -0.02145293 -0.06539824
v 0.01350000 -0.02147581 -0.06541901
v 0.01350000 -0.02194295 -0.06488007
v 0.01367306 -0.02307620 -0.06326474
v 0.01350000 -0.02310233 -0.06328125
v 0.01350000 -0.02402482 -0.06159958
v 0.01367306 -0.02430675 -0.06088301
v 0.01350000 -0.02433533 -0.06089476
v 0.01367306 -0.02510761 -0.05832459
v 0.01350000 -0.02513780 -0.05833124
v 0.01350000 -0.02536834 -0.05298404
v 0.01367306 -0.02533770 -0.05298806
v 0.01350000 -0.02546941 -0.05402675
v 0.01367306 -0.02545474 -0.05566633
v 0.01350000 -0.02548561 -0.05566766
v 0.01350000 -0.02522545 -0.05790441
v 0.01385355 -0.02522314 -0.05300308
v 0.01385355 -0.02533930 -0.05566135
v 0.01385355 -0.02499477 -0.05829976
v 0.01385355 -0.02419989 -0.06083907
v 0.01385355 -0.02297853 -0.06320300
v 0.01385355 -0.02136738 -0.06532057
v 0.01385355 -0.01941483 -0.06712817
v 0.01385355 -0.01717951 -0.06857152
v 0.01385355 -0.01472857 -0.06960727
v 0.01385355 -0.01213561 -0.07020430
v 0.01385355 -0.00947850 -0.07034469
v 0.01385355 -0.00683707 -0.07002423
v 0.01385355 -0.00429062 -0.06925253
v 0.01385355 -0.00191565 -0.06805278
v 0.01385355 0.00021652 -0.06646100
v 0.01385355 0.00204184 -0.06452500
v 0.01385355 0.00350551 -0.06230293
f 79 68 7
f 79 7 9
f 9 11 79
f 5 7 68
f 69 70 80
f 80 68 79
f 80 65 68
f 235 203 236
f 200 199 198
f 293 294 19
f 293 29 292
f 293 19 29
f 26 27 242
f 262 235 263
f 263 235 236
f 236 237 263
f 237 264 263
f 254 253 281
f 254 283 255
f 254 255 232
f 183 254 232
f 253 254 183
f 45 42 44
f 210 209 208
f 209 210 211
f 298 77 70
f 75 80 70
f 75 77 76
f 70 77 75
f 13 14 194
f 197 189 354
f 68 65 66
f 188 203 202
f 203 235 205
f 199 200 201
f 194 195 201
f 201 195 199
f 24 6 1
f 289 51 288
f 292 29 50
f 43 45 34
f 42 45 43
f 199 195 239
f 196 195 22
f 14 12 22
f 194 14 22
f 22 195 194
f 22 12 25
f 21 26 242
f 196 22 21
f 242 27 261
f 27 260 261
f 261 269 242
f 16 17 15
f 18 17 16
f 282 254 281
f 283 254 282
f 193 35 34
f 193 157 163
f 193 45 59
f 34 45 193
f 59 157 193
f 234 183 232
f 250 251 227
f 326 324 374
f 374 373 326
f 216 214 215
f 215 217 216
f 216 217 333
f 209 211 339
f 77 298 165
f 299 165 298
f 62 70 69
f 62 298 70
f 65 80 73
f 80 75 73
f 11 13 78
f 79 11 78
f 78 80 79
f 69 80 78
f 189 197 190
f 190 237 236
f 236 203 190
f 188 189 190
f 190 203 188
f 68 66 67
f 2 5 67
f 67 5 68
f 64 66 65
f 281 253 280
f 277 278 250
f 204 202 203
f 204 205 206
f 203 205 204
f 272 243 271
f 271 235 262
f 271 243 235
f 244 243 272
f 187 205 235
f 235 243 187
f 187 186 206
f 206 205 187
f 187 244 208
f 243 244 187
f 31 40 32
f 3 49 31
f 49 40 31
f 32 40 39
f 290 51 289
f 290 50 51
f 265 237 238
f 265 264 237
f 240 195 196
f 240 239 195
f 8 6 23
f 23 25 8
f 6 24 23
f 23 24 15
f 15 17 23
f 296 27 20
f 20 295 296
f 19 294 20
f 20 18 19
f 20 17 18
f 294 295 20
f 25 12 10
f 8 25 10
f 241 21 242
f 196 21 241
f 241 240 196
f 242 269 241
f 28 22 25
f 28 21 22
f 27 26 28
f 26 21 28
f 28 20 27
f 17 20 28
f 25 23 28
f 28 23 17
f 297 261 260
f 297 27 296
f 297 260 27
f 258 38 257
f 258 285 286
f 257 285 258
f 287 288 51
f 51 38 287
f 37 35 257
f 255 283 284
f 59 60 164
f 164 157 59
f 163 157 164
f 256 193 255
f 255 284 256
f 257 35 256
f 35 193 256
f 256 284 285
f 256 285 257
f 192 193 163
f 255 193 192
f 232 255 192
f 183 234 184
f 234 318 184
f 171 314 115
f 115 114 171
f 138 135 137
f 135 147 137
f 137 139 138
f 146 147 135
f 135 145 146
f 136 135 138
f 87 97 96
f 96 97 95
f 153 155 141
f 153 141 143
f 230 158 231
f 232 192 231
f 231 192 230
f 151 139 141
f 141 155 151
f 172 312 313
f 313 171 172
f 314 171 313
f 315 321 226
f 226 227 182
f 312 374 375
f 376 313 375
f 375 313 312
f 375 374 324
f 219 217 218
f 217 215 218
f 218 215 248
f 218 221 219
f 248 221 218
f 212 214 336
f 334 214 216
f 216 333 334
f 334 336 214
f 328 327 326
f 331 217 219
f 331 333 217
f 275 248 247
f 247 274 275
f 246 274 247
f 248 215 247
f 213 215 214
f 213 214 212
f 213 247 215
f 246 247 213
f 212 211 213
f 213 211 210
f 363 351 364
f 188 202 350
f 354 189 352
f 352 351 354
f 352 350 351
f 352 189 188
f 188 350 352
f 208 209 207
f 363 364 300
f 300 364 301
f 300 168 167
f 301 168 300
f 165 299 166
f 166 300 167
f 299 300 166
f 361 62 69
f 298 62 361
f 355 13 194
f 194 201 355
f 355 78 13
f 356 78 355
f 69 78 61
f 61 78 356
f 61 361 69
f 356 361 61
f 191 190 197
f 191 197 198
f 238 237 191
f 237 190 191
f 198 199 191
f 191 239 238
f 199 239 191
f 81 58 4
f 63 64 65
f 65 73 63
f 63 73 72
f 279 251 250
f 250 278 279
f 276 248 275
f 276 277 248
f 249 277 250
f 248 277 249
f 250 221 249
f 249 221 248
f 245 213 210
f 246 213 245
f 245 210 208
f 208 244 245
f 245 274 246
f 245 244 272
f 41 43 47
f 42 43 41
f 99 97 104
f 94 99 104
f 47 40 48
f 48 40 49
f 74 75 76
f 74 73 75
f 74 71 72
f 72 73 74
f 95 97 98
f 98 97 99
f 99 100 98
f 101 99 94
f 101 100 99
f 101 85 86
f 94 85 101
f 32 39 33
f 30 50 29
f 30 39 50
f 30 33 39
f 52 40 47
f 52 39 40
f 47 43 52
f 51 50 52
f 50 39 52
f 52 38 51
f 292 50 291
f 50 290 291
f 240 241 267
f 239 240 267
f 269 261 270
f 261 297 270
f 286 287 259
f 259 258 286
f 38 258 259
f 259 287 38
f 35 37 36
f 257 38 36
f 36 37 257
f 36 43 34
f 34 35 36
f 36 52 43
f 38 52 36
f 60 107 127
f 127 164 60
f 320 318 234
f 318 320 319
f 142 320 143
f 142 319 320
f 115 149 116
f 149 148 116
f 112 111 113
f 126 125 113
f 113 125 124
f 113 105 126
f 112 113 144
f 144 113 124
f 159 158 230
f 230 160 159
f 159 136 158
f 162 163 131
f 132 162 131
f 160 162 132
f 156 231 158
f 152 231 156
f 138 152 156
f 156 136 138
f 158 136 156
f 233 151 155
f 155 153 233
f 143 154 233
f 233 153 143
f 233 154 234
f 233 234 232
f 232 231 233
f 139 151 150
f 150 231 152
f 138 139 150
f 150 152 138
f 150 233 231
f 151 233 150
f 307 369 370
f 371 307 370
f 225 315 226
f 226 182 225
f 183 184 225
f 225 182 183
f 253 183 252
f 183 182 252
f 252 280 253
f 252 227 251
f 252 182 227
f 252 279 280
f 251 279 252
f 322 323 321
f 321 315 322
f 324 323 322
f 322 375 324
f 376 375 322
f 330 331 219
f 370 369 337
f 363 358 353
f 353 351 363
f 354 351 353
f 362 358 363
f 363 300 362
f 362 300 299
f 362 299 298
f 298 361 362
f 356 358 362
f 362 361 356
f 198 197 360
f 360 197 354
f 354 353 360
f 360 353 358
f 357 355 201
f 357 201 200
f 357 358 356
f 356 355 357
f 222 224 327
f 327 328 222
f 325 323 324
f 327 224 325
f 325 324 326
f 326 327 325
f 250 227 223
f 223 221 250
f 223 222 221
f 224 222 223
f 226 321 228
f 228 227 226
f 321 323 228
f 273 245 272
f 274 245 273
f 89 104 97
f 89 97 87
f 81 82 102
f 58 81 102
f 268 241 269
f 268 267 241
f 239 267 266
f 238 239 266
f 266 265 238
f 112 144 128
f 128 127 107
f 163 164 129
f 164 127 129
f 131 163 129
f 127 128 129
f 376 319 377
f 377 313 376
f 314 313 377
f 115 314 377
f 377 149 115
f 377 142 149
f 319 142 377
f 318 319 316
f 315 225 316
f 316 184 318
f 316 225 184
f 88 89 87
f 90 89 88
f 141 139 140
f 139 137 140
f 143 141 140
f 140 142 143
f 149 142 140
f 140 148 149
f 140 137 147
f 147 148 140
f 117 114 115
f 115 116 117
f 145 144 122
f 122 144 124
f 122 146 145
f 122 120 146
f 121 120 122
f 124 125 122
f 121 119 118
f 118 120 121
f 147 146 118
f 146 120 118
f 118 148 147
f 118 116 148
f 119 117 118
f 118 117 116
f 105 113 106
f 106 113 111
f 161 192 163
f 163 162 161
f 230 192 161
f 161 160 230
f 161 162 160
f 133 144 145
f 133 145 135
f 173 312 172
f 173 174 312
f 311 374 312
f 312 174 311
f 179 307 178
f 306 307 179
f 369 307 306
f 179 305 306
f 332 371 370
f 332 334 333
f 333 331 332
f 307 371 308
f 329 328 326
f 329 330 328
f 331 330 329
f 329 332 331
f 206 186 346
f 186 344 346
f 185 344 186
f 186 187 185
f 185 187 208
f 208 207 185
f 302 170 169
f 303 170 302
f 169 168 302
f 302 168 301
f 301 364 302
f 364 365 302
f 370 337 335
f 336 334 335
f 335 332 370
f 334 332 335
f 338 339 211
f 338 337 339
f 338 211 212
f 212 336 338
f 336 335 338
f 338 335 337
f 180 305 179
f 181 305 180
f 339 337 340
f 340 337 369
f 359 200 198
f 198 360 359
f 359 360 358
f 359 357 200
f 358 357 359
f 219 221 220
f 221 222 220
f 220 330 219
f 328 330 220
f 220 222 328
f 227 228 229
f 229 223 227
f 224 223 229
f 229 228 323
f 323 325 229
f 229 325 224
f 94 104 93
f 104 102 93
f 82 83 93
f 93 102 82
f 46 41 47
f 47 48 46
f 58 102 57
f 91 53 54
f 112 128 109
f 130 128 144
f 130 129 128
f 131 129 130
f 144 133 130
f 130 132 131
f 130 133 132
f 315 316 317
f 376 322 317
f 317 322 315
f 317 319 376
f 317 316 319
f 121 122 123
f 123 122 125
f 132 133 134
f 134 159 160
f 160 132 134
f 136 159 134
f 135 136 134
f 134 133 135
f 373 374 310
f 374 311 310
f 310 311 174
f 176 308 309
f 309 308 371
f 309 310 176
f 177 308 176
f 177 178 307
f 307 308 177
f 326 373 372
f 372 329 326
f 373 310 372
f 310 309 372
f 372 309 371
f 371 332 372
f 332 329 372
f 303 302 366
f 366 302 365
f 202 204 349
f 349 350 202
f 342 185 207
f 344 185 342
f 181 170 304
f 304 170 303
f 303 366 304
f 304 366 367
f 304 305 181
f 304 367 305
f 339 340 341
f 209 339 341
f 341 207 209
f 341 342 207
f 340 342 341
f 305 367 368
f 367 340 368
f 368 340 369
f 369 306 368
f 368 306 305
f 84 93 83
f 84 85 94
f 94 93 84
f 104 89 92
f 54 55 92
f 92 91 54
f 92 89 90
f 90 91 92
f 103 55 56
f 56 57 103
f 104 92 103
f 103 92 55
f 103 102 104
f 103 57 102
f 108 128 107
f 108 109 128
f 110 111 112
f 112 109 110
f 176 310 175
f 175 310 174
f 350 349 348
f 351 350 348
f 348 364 351
f 348 365 364
f 348 366 365
f 348 345 366
f 343 340 367
f 343 342 340
f 344 342 343
f 343 346 344
f 343 345 346
f 367 366 343
f 366 345 343
f 346 345 347
f 347 349 204
f 347 348 349
f 345 348 347
f 347 204 206
f 206 346 347
f 4 3 1
f 1 2 4
f 6 2 1
f 6 5 2
f 7 5 6
f 6 8 7
f 59 45 60
f 60 45 44
f 12 13 11
f 14 13 12
f 3 4 58
f 58 49 3
f 85 71 86
f 72 71 85
f 1 3 31
f 31 24 1
f 31 32 15
f 15 24 31
f 10 12 11
f 11 9 10
f 7 8 10
f 10 9 7
f 81 4 2
f 2 67 81
f 15 32 33
f 33 16 15
f 19 18 30
f 29 19 30
f 16 33 30
f 18 16 30
f 234 154 320
f 320 154 143
f 82 81 67
f 82 67 66
f 53 60 44
f 53 107 60
f 44 42 53
f 42 54 53
f 266 271 262
f 266 279 278
f 264 265 266
f 262 263 266
f 266 297 296
f 266 293 292
f 296 295 266
f 286 285 266
f 266 284 283
f 294 293 266
f 266 295 294
f 266 276 275
f 266 263 264
f 266 282 281
f 281 280 266
f 289 288 266
f 283 282 266
f 266 287 286
f 275 274 266
f 278 277 266
f 272 271 266
f 266 290 289
f 292 291 266
f 266 273 272
f 288 287 266
f 285 284 266
f 269 270 266
f 280 279 266
f 277 276 266
f 266 291 290
f 266 268 269
f 266 270 297
f 274 273 266
f 267 268 266
f 95 105 106
f 106 96 95
f 87 96 106
f 106 111 87
f 83 82 66
f 66 64 83
f 55 54 42
f 42 41 55
f 46 55 41
f 56 55 46
f 49 58 57
f 57 48 49
f 56 46 57
f 57 46 48
f 72 85 84
f 84 63 72
f 84 83 64
f 64 63 84
f 107 53 108
f 53 91 108
f 108 91 90
f 90 109 108
f 87 111 110
f 110 88 87
f 110 109 90
f 90 88 110
f 172 171 175
f 175 180 179
f 77 165 175
f 175 119 121
f 179 178 175
f 175 101 86
f 175 105 95
f 76 77 175
f 175 166 167
f 175 74 76
f 126 105 175
f 167 168 175
f 86 71 175
f 95 98 175
f 169 170 175
f 175 171 114
f 175 173 172
f 175 168 169
f 114 117 175
f 165 166 175
f 71 74 175
f 175 98 100
f 100 101 175
f 175 125 126
f 175 177 176
f 175 170 181
f 175 117 119
f 174 173 175
f 121 123 175
f 181 180 175
f 175 123 125
f 178 177 175

