# https://github.com/mikedh/trimesh
v -0.01300000 0.01445000 -0.00900000
v -0.01300000 0.01445000 0.00900000
v -0.01300000 -0.00945000 0.00950000
v -0.01300000 0.00945000 0.00950000
v -0.01250000 0.00945000 0.01000000
v -0.01250000 -0.00945000 0.01000000
v -0.01293301 0.01445000 0.00925000
v -0.01275000 0.01445000 0.00943301
v -0.00600000 0.01445000 0.00950000
v -0.01250000 0.01445000 0.00950000
v -0.00550000 0.01445000 -0.00900000
v -0.00600000 0.01445000 -0.00950000
v -0.01250000 0.01445000 -0.00950000
v -0.01275000 0.01445000 -0.00943301
v -0.01293301 0.01445000 -0.00925000
v -0.00550000 0.01445000 0.00900000
v -0.01275000 -0.01445000 0.00943301
v -0.01293301 -0.01445000 0.00925000
v 0.00000000 -0.01141421 0.01441421
v 0.00000000 -0.01184776 0.01376537
v 0.00000000 -0.01200000 0.01300000
v 0.00000000 -0.01000000 -0.02100000
v -0.00000000 0.01141421 -0.02041421
v -0.00000000 0.01184776 -0.01976537
v -0.00000000 0.01200000 -0.01900000
v -0.00000000 0.01000000 -0.02100000
v -0.00000000 0.01076537 -0.02084776
v 0.00000000 -0.01076537 -0.02084776
v 0.00000000 -0.01141421 -0.02041421
v 0.00000000 -0.01184776 -0.01976537
v 0.00000000 -0.01200000 -0.01900000
v 0.00000000 -0.01076537 0.01484776
v 0.00000000 -0.01000000 0.01500000
v -0.00000000 0.01000000 0.01500000
v -0.00000000 0.01076537 0.01484776
v -0.00000000 0.01141421 0.01441421
v -0.00000000 0.01184776 0.01376537
v -0.00000000 0.01200000 0.01300000
v -0.00700000 0.01000000 0.01500000
v -0.00700000 -0.01000000 0.01500000
v -0.00700000 0.01184776 0.01376537
v -0.00700000 0.01141421 0.01441421
v -0.00700000 0.01076537 0.01484776
v -0.00700000 -0.01076537 0.01484776
v -0.01550000 0.01137500 -0.02393157
v -0.01550000 0.01238157 -0.02292500
v -0.01550000 0.01275000 -0.02155000
v -0.01550000 -0.07450000 -0.01750000
v -0.01550000 -0.00600000 -0.02430000
v -0.01550000 0.01000000 -0.02430000
v -0.01550000 -0.07587500 -0.01713157
v -0.01550000 -0.07688157 -0.01612500
v -0.01550000 -0.07725000 -0.01475000
v -0.01550000 -0.07725000 -0.01031250
v -0.01550000 -0.07622633 -0.00750000
v -0.01850000 -0.07450000 -0.01750000
v -0.01850000 0.01275000 -0.01306250
v -0.01850000 0.01275000 -0.02155000
v -0.01850000 -0.07622633 -0.00750000
v -0.01850000 -0.07725000 -0.01031250
v -0.01850000 -0.07587500 -0.01713157
v -0.01850000 -0.07688157 -0.01612500
v -0.01850000 -0.07725000 -0.01475000
v -0.01850000 -0.00600000 -0.02430000
v -0.01850000 -0.01234091 -0.00750000
v -0.01850000 0.01000000 -0.01031250
v -0.01850000 0.01238157 -0.02292500
v -0.01850000 0.01137500 -0.02393157
v -0.01850000 0.01000000 -0.02430000
v -0.01850000 0.01238157 -0.01168750
v -0.01850000 0.01137500 -0.01068093
f 22 48 49
f 55 19 32
f 20 19 55
f 20 54 21
f 55 54 20
f 65 4 7
f 7 4 5
f 52 29 30
f 30 31 53
f 53 52 30
f 51 29 52
f 2 71 7
f 39 43 8
f 7 5 8
f 8 5 39
f 42 10 8
f 8 43 42
f 41 10 42
f 7 71 66
f 66 65 7
f 18 3 59
f 59 17 18
f 18 6 3
f 17 6 18
f 59 44 40
f 40 17 59
f 40 6 17
f 24 46 47
f 26 50 27
f 29 51 28
f 28 51 48
f 28 48 22
f 71 2 70
f 70 2 57
f 38 16 37
f 23 46 24
f 1 15 58
f 9 37 16
f 45 27 50
f 45 23 27
f 46 23 45
f 58 15 14
f 14 13 58
f 24 47 12
f 12 25 24
f 11 25 12
f 64 49 56
f 56 49 48
f 31 21 54
f 53 31 54
f 32 44 59
f 59 55 32
f 59 3 65
f 3 4 65
f 51 56 48
f 51 61 56
f 38 25 16
f 16 25 11
f 39 34 35
f 35 43 39
f 42 43 35
f 35 36 42
f 6 4 3
f 6 5 4
f 5 6 40
f 39 5 40
f 33 34 40
f 40 34 39
f 40 32 33
f 44 32 40
f 47 67 58
f 46 67 47
f 50 49 64
f 64 69 50
f 50 26 22
f 22 49 50
f 61 51 62
f 62 51 52
f 62 52 53
f 53 63 62
f 60 55 59
f 60 54 55
f 53 54 60
f 60 63 53
f 42 36 37
f 37 41 42
f 64 56 68
f 68 57 58
f 59 65 68
f 68 69 64
f 61 62 68
f 68 66 71
f 56 61 68
f 68 60 59
f 58 67 68
f 65 66 68
f 71 70 68
f 68 62 63
f 63 60 68
f 68 70 57
f 23 34 33
f 23 20 21
f 23 28 22
f 23 21 31
f 31 30 23
f 38 37 23
f 33 32 23
f 22 26 23
f 23 25 38
f 23 32 19
f 19 20 23
f 23 35 34
f 23 30 29
f 24 25 23
f 36 35 23
f 26 27 23
f 29 28 23
f 23 37 36
f 58 57 1
f 57 2 1
f 41 37 9
f 10 41 9
f 45 67 46
f 45 68 67
f 45 50 69
f 69 68 45
f 12 2 7
f 12 16 11
f 7 8 12
f 12 14 15
f 12 8 10
f 12 1 2
f 15 1 12
f 10 9 12
f 12 9 16
f 13 14 12
f 12 47 58
f 58 13 12

