# https://github.com/mikedh/trimesh
v -0.01300000 -0.01445000 0.00900000
v -0.01300000 -0.01445000 -0.00900000
v -0.01300000 0.00945000 -0.00950000
v -0.01300000 -0.00945000 -0.00950000
v -0.01250000 -0.00945000 -0.01000000
v -0.01250000 0.00945000 -0.01000000
v -0.01293301 -0.01445000 -0.00925000
v -0.01275000 -0.01445000 -0.00943301
v -0.00600000 -0.01445000 -0.00950000
v -0.01250000 -0.01445000 -0.00950000
v -0.00550000 -0.01445000 0.00900000
v -0.00600000 -0.01445000 0.00950000
v -0.01250000 -0.01445000 0.00950000
v -0.01275000 -0.01445000 0.00943301
v -0.01293301 -0.01445000 0.00925000
v -0.00550000 -0.01445000 -0.00900000
v -0.01275000 0.01445000 -0.00943301
v -0.01293301 0.01445000 -0.00925000
v -0.01550000 -0.01137500 0.02393157
v -0.01550000 -0.01238157 0.02292500
v -0.01550000 -0.01275000 0.02155000
v -0.01550000 0.07450000 0.01750000
v -0.01550000 0.00600000 0.02430000
v -0.01550000 -0.01000000 0.02430000
v -0.01550000 0.07587500 0.01713157
v -0.01550000 0.07688157 0.01612500
v -0.01550000 0.07725000 0.01475000
v -0.01550000 0.07725000 0.01031250
v -0.01550000 0.07622633 0.00750000
v -0.01850000 0.07450000 0.01750000
v -0.01850000 -0.01275000 0.01306250
v -0.01850000 -0.01275000 0.02155000
v -0.01850000 0.07622633 0.00750000
v -0.01850000 0.07725000 0.01031250
v -0.01850000 0.07587500 0.01713157
v -0.01850000 0.07688157 0.01612500
v -0.01850000 0.07725000 0.01475000
v -0.01850000 0.00600000 0.02430000
v -0.01850000 0.01234091 0.00750000
v -0.01850000 -0.01000000 0.01031250
v -0.01850000 -0.01238157 0.02292500
v -0.01850000 -0.01137500 0.02393157
v -0.01850000 -0.01000000 0.02430000
v -0.01850000 -0.01238157 0.01168750
v -0.01850000 -0.01137500 0.01068093
v -0.00000000 0.01141421 -0.01441421
v -0.00000000 0.01184776 -0.01376537
v -0.00000000 0.01200000 -0.01300000
v -0.00000000 0.01000000 0.02100000
v 0.00000000 -0.01141421 0.02041421
v 0.00000000 -0.01184776 0.01976537
v 0.00000000 -0.01200000 0.01900000
v 0.00000000 -0.01000000 0.02100000
v 0.00000000 -0.01076537 0.02084776
v -0.00000000 0.01076537 0.02084776
v -0.00000000 0.01141421 0.02041421
v -0.00000000 0.01184776 0.01976537
v -0.00000000 0.01200000 0.01900000
v -0.00000000 0.01076537 -0.01484776
v -0.00000000 0.01000000 -0.01500000
v 0.00000000 -0.01000000 -0.01500000
v 0.00000000 -0.01076537 -0.01484776
v 0.00000000 -0.01141421 -0.01441421
v 0.00000000 -0.01184776 -0.01376537
v 0.00000000 -0.01200000 -0.01300000
v -0.00700000 -0.01000000 -0.01500000
v -0.00700000 0.01000000 -0.01500000
v -0.00700000 -0.01184776 -0.01376537
v -0.00700000 -0.01141421 -0.01441421
v -0.00700000 -0.01076537 -0.01484776
v -0.00700000 0.01076537 -0.01484776
f 27 57 58
f 22 49 55
f 23 49 22
f 29 46 59
f 47 46 29
f 47 28 48
f 29 28 47
f 39 4 7
f 7 4 5
f 26 56 57
f 26 57 27
f 68 10 69
f 69 10 8
f 7 5 8
f 8 5 66
f 70 8 66
f 69 8 70
f 11 52 12
f 7 45 40
f 40 39 7
f 18 3 33
f 33 17 18
f 18 6 3
f 17 6 18
f 33 71 67
f 67 17 33
f 67 6 17
f 1 15 32
f 31 44 2
f 2 44 45
f 2 45 7
f 55 56 25
f 56 26 25
f 22 55 25
f 64 65 16
f 16 9 64
f 51 12 52
f 21 12 51
f 51 20 21
f 14 13 32
f 32 15 14
f 53 24 54
f 24 19 54
f 20 51 50
f 50 19 20
f 50 54 19
f 28 58 48
f 27 58 28
f 38 43 23
f 23 43 24
f 53 49 23
f 23 24 53
f 23 30 38
f 22 30 23
f 11 16 65
f 65 52 11
f 59 71 33
f 33 29 59
f 33 3 39
f 3 4 39
f 34 29 33
f 34 28 29
f 27 28 34
f 34 37 27
f 61 62 70
f 66 61 70
f 70 62 63
f 63 69 70
f 6 4 3
f 6 5 4
f 5 6 67
f 66 5 67
f 60 61 67
f 67 61 66
f 67 59 60
f 71 59 67
f 32 31 2
f 2 1 32
f 27 37 36
f 36 26 27
f 64 69 63
f 64 68 69
f 64 9 10
f 10 68 64
f 13 21 32
f 13 12 21
f 32 21 41
f 21 20 41
f 35 30 22
f 22 25 35
f 26 36 35
f 35 25 26
f 14 16 11
f 15 1 14
f 14 9 16
f 7 8 14
f 11 12 14
f 14 8 10
f 10 9 14
f 14 2 7
f 1 2 14
f 12 13 14
f 42 31 32
f 45 44 42
f 33 39 42
f 38 30 42
f 42 43 38
f 42 34 33
f 32 41 42
f 42 40 45
f 42 44 31
f 37 34 42
f 39 40 42
f 42 36 37
f 30 35 42
f 42 35 36
f 24 43 42
f 42 19 24
f 42 41 20
f 20 19 42
f 50 61 60
f 50 47 48
f 50 64 63
f 50 49 53
f 50 58 57
f 48 58 50
f 50 55 49
f 57 56 50
f 63 62 50
f 60 59 50
f 50 56 55
f 50 62 61
f 52 65 50
f 50 59 46
f 46 47 50
f 65 64 50
f 50 51 52
f 53 54 50

