# https://github.com/mikedh/trimesh
v 0.04300001 -0.02400000 -0.03220000
v 0.00400000 -0.02400000 -0.03220000
v 0.00140193 -0.02250000 -0.03220000
v 0.00118543 -0.02203835 -0.03220000
v 0.00187868 -0.02312132 -0.03220000
v 0.00250000 -0.02359808 -0.03220000
v 0.00296165 -0.02381457 -0.03220000
v 0.04450000 -0.02359808 -0.03220000
v 0.04403835 -0.02381457 -0.03220000
v 0.04512132 -0.02312132 -0.03220000
v 0.04559807 -0.02250000 -0.03220000
v 0.04581457 -0.02203835 -0.03220000
v 0.04600000 -0.02100000 -0.03220000
v 0.04592291 -0.01600219 -0.03347823
v 0.04600000 -0.01600000 -0.03293014
v 0.04300001 -0.02400000 -0.02849999
v 0.00400000 -0.02400000 -0.02849999
v 0.00140193 -0.02250000 -0.02849999
v 0.00250000 -0.02359808 -0.02849999
v -0.00175925 -0.01492246 -0.03739354
v -0.00177164 -0.01490541 -0.02849999
v -0.00200000 -0.01375736 -0.02849999
v -0.00200000 -0.01375736 -0.03734850
v 0.04450000 -0.02359808 -0.02849999
v 0.04559807 -0.02250000 -0.02849999
v 0.04600000 -0.02100000 -0.02849999
v 0.04600000 -0.01000000 -0.03296999
v 0.04593300 -0.01000000 -0.03348184
v -0.00200000 -0.01000000 -0.03736040
v 0.00806581 -0.01000000 -0.15686573
v 0.01599737 -0.01000000 -0.15790993
v 0.00810078 -0.01053386 -0.15687034
v 0.01584969 -0.01108304 -0.15789050
v 0.01540853 -0.01209734 -0.15783241
v 0.01475697 -0.01290578 -0.15774663
v 0.01388150 -0.01353821 -0.15763138
v 0.00839098 -0.01158632 -0.15690854
v 0.00895164 -0.01251990 -0.15698235
v 0.01286847 -0.01391055 -0.15749800
v 0.01178539 -0.01399246 -0.15735541
v 0.00974353 -0.01326712 -0.15708660
v 0.01072248 -0.01377589 -0.15721548
v 0.01782910 -0.01000000 -0.15786894
v 0.01961339 -0.01000000 -0.15725039
v 0.01939736 -0.01179463 -0.15722196
v 0.02111706 -0.01000000 -0.15610789
v 0.02086237 -0.01211571 -0.15607436
v 0.01766170 -0.01139059 -0.15784690
v 0.01716922 -0.01270037 -0.15778206
v 0.01638027 -0.01385321 -0.15767819
v 0.01534072 -0.01478212 -0.15754133
v 0.01411098 -0.01543311 -0.15737943
v 0.01276252 -0.01576834 -0.15720190
v 0.01137370 -0.01576834 -0.15701906
v 0.01002523 -0.01543311 -0.15684153
v 0.00879549 -0.01478212 -0.15667963
v 0.00775594 -0.01385321 -0.15654278
v 0.00696700 -0.01270037 -0.15643890
v 0.00647452 -0.01139059 -0.15637407
v 0.00630711 -0.01000000 -0.15635203
v 0.02011308 -0.01410847 -0.15597571
v 0.01891274 -0.01586245 -0.15581769
v 0.01733113 -0.01727573 -0.15560947
v 0.01546014 -0.01826617 -0.15536314
v 0.01340853 -0.01877622 -0.15509304
v 0.01129551 -0.01877622 -0.15481487
v 0.00924389 -0.01826617 -0.15454476
v 0.00737291 -0.01727573 -0.15429844
v 0.00579129 -0.01586245 -0.15409023
v 0.00459096 -0.01410847 -0.15393220
v 0.00384168 -0.01211571 -0.15383355
v 0.00358698 -0.01000000 -0.15380001
v 0.01876178 -0.01348496 -0.15713827
v 0.01774361 -0.01497276 -0.15700424
v 0.01640203 -0.01617156 -0.15682761
v 0.01481499 -0.01701169 -0.15661867
v 0.01307473 -0.01744433 -0.15638956
v 0.01128238 -0.01744433 -0.15615359
v 0.00954212 -0.01701169 -0.15592448
v 0.00795508 -0.01617156 -0.15571554
v 0.00661349 -0.01497276 -0.15553892
v 0.00559532 -0.01348496 -0.15540488
v 0.00495975 -0.01179463 -0.15532121
v 0.00474370 -0.01000000 -0.15529276
v 0.00250000 0.02359808 -0.03220000
v 0.00296165 0.02381457 -0.03220000
v 0.00297234 0.02378558 -0.03237306
v 0.00400000 0.02400000 -0.03220000
v 0.00400000 0.02396910 -0.03237306
v 0.00187868 0.02312132 -0.03220000
v 0.00140193 0.02250000 -0.03220000
v 0.00118543 0.02203835 -0.03220000
v 0.04300001 0.02400000 -0.03220000
v 0.04300001 0.02396910 -0.03237306
v 0.00900000 0.02400000 -0.03677552
v 0.04559807 0.02250000 -0.03220000
v 0.04581457 0.02203835 -0.03220000
v 0.04578558 0.02202765 -0.03237306
v 0.04600000 0.02100000 -0.03220000
v 0.04596909 0.02100000 -0.03237306
v 0.04512132 0.02312132 -0.03220000
v 0.04509946 0.02309947 -0.03237306
v 0.04450000 0.02359808 -0.03220000
v 0.04402765 0.02378558 -0.03237306
v 0.04403835 0.02381457 -0.03220000
v 0.00902257 0.02392670 -0.03731005
v 0.04600000 0.01600000 -0.03292582
v 0.04592063 0.01600230 -0.03348177
v 0.00400000 0.02400000 -0.02849999
v 0.00250000 0.02359808 -0.02849999
v 0.00140193 0.02250000 -0.02849999
v 0.04300001 0.02400000 -0.02849999
v 0.01609563 0.02400000 -0.03593934
v 0.04600000 0.02100000 -0.02849999
v 0.04559807 0.02250000 -0.02849999
v 0.04450000 0.02359808 -0.02849999
v -0.00175960 0.01492182 -0.03738891
v -0.00200000 0.01375736 -0.03734467
v -0.00200000 0.01375736 -0.02849999
v -0.00177164 0.01490541 -0.02849999
v 0.01629798 0.02393440 -0.03642430
v -0.00200000 0.00187869 -0.03737186
v 0.01596778 -0.00950828 -0.15790604
v 0.00928753 -0.00711216 -0.15702657
v 0.01017018 -0.00646794 -0.15714277
v 0.00821684 -0.00890512 -0.15688561
v 0.00866796 -0.00788105 -0.15694501
v 0.01119445 -0.00608951 -0.15727761
v 0.01228979 -0.00600830 -0.15742183
v 0.01336378 -0.00623235 -0.15756322
v 0.01432446 -0.00673630 -0.15768969
v 0.01512289 -0.00749426 -0.15779480
v 0.01568400 -0.00844154 -0.15786868
v 0.01961351 -0.01000000 -0.15725033
v 0.01782928 -0.01000000 -0.15786891
v 0.02111713 -0.01000000 -0.15610783
v 0.00630696 -0.01000000 -0.15635195
v 0.00474361 -0.01000000 -0.15529267
v 0.00495965 -0.00820534 -0.15532111
v 0.00384163 -0.00788428 -0.15383346
v 0.00647436 -0.00860937 -0.15637399
v 0.00696686 -0.00729955 -0.15643884
v 0.00775583 -0.00614668 -0.15654270
v 0.00879540 -0.00521774 -0.15667957
v 0.01002518 -0.00456674 -0.15684147
v 0.01137369 -0.00423149 -0.15701900
v 0.01276255 -0.00423149 -0.15720186
v 0.01411105 -0.00456674 -0.15737939
v 0.01534083 -0.00521774 -0.15754129
v 0.01638041 -0.00614668 -0.15767816
v 0.01716937 -0.00729955 -0.15778202
v 0.01766186 -0.00860937 -0.15784687
v 0.00459092 -0.00589151 -0.15393211
v 0.00579126 -0.00413751 -0.15409014
v 0.00737289 -0.00272422 -0.15429837
v 0.00924389 -0.00173378 -0.15454468
v 0.01129551 -0.00122373 -0.15481479
v 0.01340854 -0.00122373 -0.15509297
v 0.01546017 -0.00173378 -0.15536308
v 0.01733118 -0.00272422 -0.15560940
v 0.01891280 -0.00413751 -0.15581763
v 0.02011313 -0.00589151 -0.15597565
v 0.02086242 -0.00788428 -0.15607430
v 0.00559524 -0.00651499 -0.15540479
v 0.00661342 -0.00502717 -0.15553884
v 0.00795502 -0.00382835 -0.15571547
v 0.00954209 -0.00298821 -0.15592439
v 0.01128238 -0.00255557 -0.15615351
v 0.01307475 -0.00255557 -0.15638949
v 0.01481503 -0.00298821 -0.15661860
v 0.01640210 -0.00382835 -0.15682754
v 0.01774370 -0.00502717 -0.15700416
v 0.01876188 -0.00651499 -0.15713821
v 0.01939748 -0.00820534 -0.15722188
v 0.02386292 0.00066185 -0.14835486
v 0.02174246 0.00241906 -0.14807568
v 0.01933797 0.00375336 -0.14775912
v 0.01827147 0.00417316 -0.14761873
v 0.01673135 0.00461931 -0.14741597
v 0.01446865 0.00496138 -0.14711808
v 0.01401135 0.00498741 -0.14705786
v 0.01127061 0.00484513 -0.14669704
v 0.01059315 0.00473000 -0.14660785
v 0.00690908 0.00349480 -0.14612283
v 0.00108930 -0.00158770 -0.14535666
v -0.00064979 -0.00508863 -0.14512770
v -0.00072310 -0.00530747 -0.14511804
v -0.00133747 -0.00800527 -0.14503716
v -0.00143126 -0.00892426 -0.14502481
v -0.00144989 -0.01077099 -0.14502236
v -0.00120186 -0.01283321 -0.14505501
v -0.00105655 -0.01351047 -0.14507414
v -0.00017084 -0.01613039 -0.14519075
v 0.00002277 -0.01654907 -0.14521624
v 0.00117709 -0.01854156 -0.14536820
v 0.00215918 -0.01981863 -0.14549750
v 0.00294132 -0.02066185 -0.14560047
v 0.00506178 -0.02241906 -0.14587964
v 0.00746627 -0.02375336 -0.14619619
v 0.00853277 -0.02417316 -0.14633660
v 0.01007289 -0.02461931 -0.14653936
v 0.01233559 -0.02496138 -0.14683725
v 0.02506235 -0.02498741 -0.05370164
v 0.01279289 -0.02498741 -0.14689745
v 0.02780309 -0.02484513 -0.05406246
v 0.01553363 -0.02484513 -0.14725828
v 0.01621109 -0.02473000 -0.14734747
v 0.01820179 -0.02419732 -0.14760955
v 0.01989516 -0.02349480 -0.14783248
v 0.02070649 -0.02306604 -0.14793929
v 0.02296246 -0.02148981 -0.14823630
v 0.02313675 -0.02133995 -0.14825925
v 0.02489286 -0.01952231 -0.14849044
v 0.02571494 -0.01841230 -0.14859867
v 0.02643196 -0.01723053 -0.14869307
v 0.02745403 -0.01491137 -0.14882763
v 0.02752734 -0.01469253 -0.14883728
v 0.02814171 -0.01199473 -0.14891817
v 0.02823550 -0.01107574 -0.14893050
v 0.02825413 -0.00922901 -0.14893296
v 0.02800610 -0.00716679 -0.14890032
v 0.02786079 -0.00648953 -0.14888118
v 0.02697508 -0.00386961 -0.14876458
v 0.02678147 -0.00345093 -0.14873908
v 0.02562715 -0.00145844 -0.14858712
v 0.02464506 -0.00018137 -0.14845783
v -0.00011405 -0.01603706 -0.14635618
v 0.00121335 -0.01841152 -0.14653094
v -0.00098628 -0.01345702 -0.14624135
v -0.00137364 -0.01075926 -0.14619035
v -0.00126292 -0.00803563 -0.14620493
v -0.00065791 -0.00537891 -0.14628458
v 0.00042080 -0.00287955 -0.14642659
v 0.00193646 -0.00062266 -0.14662613
v 0.00383747 0.00131489 -0.14687641
v 0.00605910 0.00286712 -0.14716889
v 0.00852568 0.00398118 -0.14749362
v 0.01115321 0.00461913 -0.14783955
v 0.01385223 0.00475924 -0.14819488
v 0.01653081 0.00439674 -0.14854752
v 0.01909775 0.00354398 -0.14888546
v 0.02146563 0.00222999 -0.14919721
v 0.02355381 0.00049953 -0.14947212
v 0.02529119 -0.00158848 -0.14970085
v 0.02661859 -0.00396294 -0.14987560
v 0.02749082 -0.00654298 -0.14999042
v 0.02787817 -0.00924074 -0.15004143
v 0.02776746 -0.01196436 -0.15002686
v 0.02716245 -0.01462109 -0.14994720
v 0.02608374 -0.01712045 -0.14980519
v 0.02456808 -0.01937734 -0.14960565
v 0.02266706 -0.02131489 -0.14935537
v 0.02044544 -0.02286712 -0.14906289
v 0.01797886 -0.02398118 -0.14873816
v 0.01535133 -0.02461913 -0.14839223
v 0.01265231 -0.02475924 -0.14803690
v 0.00997373 -0.02439674 -0.14768426
v 0.00740679 -0.02354398 -0.14734632
v 0.00503891 -0.02222999 -0.14703459
v 0.00295073 -0.02049953 -0.14675966
v 0.00753709 -0.02294771 -0.14834514
v 0.00999103 -0.02376293 -0.14866820
v 0.01255169 -0.02410947 -0.14900532
v 0.01513188 -0.02397552 -0.14934501
v 0.01764374 -0.02336566 -0.14967571
v 0.02000173 -0.02230065 -0.14998615
v 0.02212554 -0.02081675 -0.15026575
v 0.02394286 -0.01896450 -0.15050501
v 0.02539180 -0.01680698 -0.15069576
v 0.02642302 -0.01441765 -0.15083152
v 0.02700140 -0.01187788 -0.15090767
v 0.02710724 -0.00927417 -0.15092160
v 0.02673694 -0.00669517 -0.15087284
v 0.02590311 -0.00422872 -0.15076306
v 0.02463414 -0.00195880 -0.15059601
v 0.02297325 0.00003729 -0.15037735
v 0.02097700 0.00169157 -0.15011454
v 0.01871337 0.00294771 -0.14981653
v 0.01625944 0.00376293 -0.14949346
v 0.01369878 0.00410947 -0.14915635
v 0.01111858 0.00397552 -0.14881666
v 0.00860672 0.00336566 -0.14848596
v 0.00624874 0.00230065 -0.14817552
v 0.00412492 0.00081675 -0.14789592
v 0.00230760 -0.00103550 -0.14765666
v 0.00085866 -0.00319302 -0.14746591
v -0.00017256 -0.00558235 -0.14733015
v -0.00075093 -0.00812212 -0.14725401
v -0.00085677 -0.01072583 -0.14724007
v -0.00048647 -0.01330483 -0.14728881
v 0.00034736 -0.01577128 -0.14739859
v 0.00161632 -0.01804120 -0.14756566
v 0.00327721 -0.02003729 -0.14778432
v 0.00527346 -0.02169157 -0.14804713
f 111 110 90
f 121 181 106
f 239 181 180
f 87 89 182
f 182 181 239
f 106 181 182
f 17 203 16
f 26 25 12
f 13 26 12
f 25 11 12
f 95 121 106
f 112 116 105
f 90 110 85
f 9 8 24
f 24 16 9
f 9 209 8
f 92 120 111
f 117 120 92
f 108 107 28
f 8 211 10
f 10 25 24
f 10 11 25
f 24 8 10
f 266 267 253
f 88 95 106
f 106 182 88
f 88 182 89
f 88 89 87
f 121 95 113
f 110 109 86
f 86 85 110
f 109 88 86
f 86 88 87
f 112 105 93
f 121 113 93
f 181 121 93
f 94 180 93
f 93 180 181
f 179 180 94
f 246 222 221
f 152 133 151
f 151 133 132
f 133 131 132
f 209 9 208
f 208 9 207
f 122 190 29
f 23 190 191
f 23 21 22
f 23 29 190
f 118 190 122
f 119 120 118
f 118 120 117
f 195 3 194
f 91 111 90
f 91 92 111
f 117 92 91
f 27 28 107
f 15 28 27
f 14 15 13
f 13 219 14
f 14 28 15
f 13 12 218
f 218 219 13
f 205 16 203
f 203 206 205
f 204 206 203
f 204 17 202
f 204 203 17
f 207 9 1
f 1 206 207
f 1 9 16
f 1 205 206
f 16 205 1
f 207 206 255
f 11 10 213
f 213 214 11
f 251 214 213
f 209 253 210
f 210 253 211
f 8 209 210
f 210 211 8
f 211 253 252
f 252 253 267
f 252 267 251
f 104 179 94
f 94 93 104
f 104 93 105
f 116 115 101
f 101 115 96
f 224 96 98
f 221 222 98
f 251 267 268
f 133 152 123
f 173 161 162
f 172 161 173
f 173 152 151
f 162 274 163
f 31 48 33
f 48 49 33
f 33 123 31
f 133 123 33
f 126 30 141
f 141 30 60
f 38 58 37
f 234 91 90
f 237 86 87
f 18 21 4
f 3 18 4
f 4 194 3
f 193 194 4
f 5 19 18
f 5 18 3
f 202 201 257
f 17 19 7
f 188 118 117
f 191 190 230
f 232 186 233
f 233 186 117
f 117 91 233
f 286 234 285
f 286 233 234
f 232 233 286
f 28 14 220
f 220 14 219
f 108 28 220
f 206 204 256
f 256 255 206
f 256 204 202
f 202 257 256
f 266 253 254
f 254 253 209
f 209 208 254
f 254 208 207
f 207 255 254
f 212 10 211
f 212 213 10
f 251 213 212
f 212 252 251
f 211 252 212
f 103 105 116
f 116 101 103
f 103 104 105
f 225 96 224
f 224 98 223
f 223 98 222
f 99 107 108
f 108 220 99
f 174 173 162
f 162 163 174
f 174 163 46
f 152 173 174
f 272 163 273
f 273 163 274
f 43 48 31
f 43 135 48
f 31 123 43
f 43 123 152
f 152 135 43
f 71 291 290
f 34 33 49
f 83 84 137
f 141 60 137
f 137 84 141
f 59 37 58
f 59 137 60
f 58 83 59
f 83 137 59
f 37 59 32
f 32 60 30
f 32 59 60
f 239 280 281
f 183 237 87
f 154 285 284
f 156 283 282
f 160 161 171
f 171 161 172
f 193 4 20
f 20 4 21
f 20 192 193
f 21 23 20
f 20 23 191
f 191 192 20
f 196 3 195
f 196 5 3
f 200 257 201
f 200 7 199
f 201 7 200
f 258 200 199
f 257 200 258
f 17 7 2
f 2 7 201
f 202 17 2
f 2 201 202
f 199 7 6
f 19 5 6
f 6 7 19
f 232 188 187
f 187 188 117
f 187 186 232
f 117 186 187
f 190 118 189
f 118 188 189
f 189 230 190
f 72 71 289
f 289 71 290
f 195 194 228
f 228 196 195
f 290 291 229
f 229 289 290
f 230 289 229
f 229 192 191
f 191 230 229
f 155 283 156
f 156 166 155
f 155 284 283
f 154 284 155
f 91 234 185
f 185 233 91
f 234 233 185
f 164 140 153
f 153 285 154
f 153 286 285
f 247 273 246
f 272 273 247
f 247 246 221
f 221 220 247
f 247 220 219
f 217 218 12
f 12 216 217
f 215 12 11
f 215 216 12
f 11 214 215
f 272 247 248
f 218 217 248
f 219 218 248
f 248 247 219
f 63 267 266
f 255 256 263
f 263 256 257
f 266 254 265
f 265 254 255
f 224 223 245
f 246 273 245
f 245 273 274
f 222 246 245
f 245 223 222
f 114 99 97
f 97 99 98
f 97 115 114
f 96 115 97
f 97 98 96
f 221 98 100
f 98 99 100
f 100 220 221
f 100 99 220
f 45 61 73
f 45 47 61
f 48 135 45
f 73 49 45
f 45 49 48
f 72 140 139
f 139 140 164
f 141 84 139
f 291 71 70
f 70 71 83
f 237 183 238
f 238 182 239
f 239 281 238
f 238 282 237
f 281 282 238
f 87 182 238
f 238 183 87
f 285 234 235
f 235 284 285
f 235 234 90
f 283 284 235
f 90 85 235
f 85 86 184
f 86 237 184
f 150 171 172
f 151 132 150
f 150 132 131
f 150 173 151
f 172 173 150
f 130 148 131
f 130 131 133
f 133 33 130
f 198 6 5
f 199 6 198
f 198 258 199
f 231 189 188
f 230 189 231
f 231 188 232
f 231 289 230
f 227 229 291
f 193 192 227
f 192 229 227
f 227 194 193
f 227 228 194
f 141 139 142
f 142 139 164
f 142 126 141
f 165 142 164
f 143 142 165
f 165 153 154
f 164 153 165
f 154 155 165
f 165 155 166
f 166 145 144
f 144 165 166
f 143 165 144
f 216 215 250
f 251 268 250
f 250 214 251
f 250 215 214
f 136 47 46
f 46 163 136
f 136 163 272
f 62 268 267
f 267 63 62
f 62 61 268
f 74 49 73
f 73 61 74
f 61 62 74
f 63 75 74
f 74 62 63
f 294 293 68
f 257 258 261
f 261 258 294
f 294 68 261
f 64 63 266
f 266 265 64
f 264 265 255
f 255 263 264
f 179 104 178
f 104 103 177
f 103 176 177
f 177 178 104
f 134 174 46
f 46 47 134
f 47 45 134
f 72 139 138
f 138 139 84
f 138 71 72
f 138 84 83
f 83 71 138
f 82 70 83
f 82 83 58
f 293 228 292
f 291 70 292
f 292 227 291
f 228 227 292
f 81 82 57
f 57 82 58
f 57 58 38
f 80 56 79
f 79 68 80
f 81 57 80
f 80 57 56
f 38 37 36
f 33 34 36
f 36 130 33
f 37 130 36
f 49 74 50
f 50 34 49
f 77 53 52
f 77 66 78
f 78 66 79
f 41 57 38
f 56 57 41
f 283 235 236
f 236 235 85
f 237 282 236
f 236 282 283
f 236 184 237
f 85 184 236
f 148 171 149
f 171 150 149
f 131 148 149
f 149 150 131
f 170 171 148
f 148 169 170
f 147 169 148
f 148 130 147
f 147 130 129
f 156 282 157
f 157 282 281
f 157 281 280
f 168 157 169
f 169 147 168
f 5 196 197
f 197 198 5
f 287 231 232
f 232 286 287
f 287 153 140
f 286 153 287
f 72 289 288
f 289 231 288
f 288 140 72
f 288 287 140
f 231 287 288
f 126 142 127
f 127 142 143
f 30 126 127
f 127 32 30
f 37 32 127
f 249 248 217
f 249 217 216
f 216 250 249
f 79 66 67
f 67 68 79
f 67 261 68
f 76 64 77
f 77 52 76
f 76 52 75
f 76 75 63
f 63 64 76
f 263 66 65
f 65 264 263
f 65 66 77
f 77 64 65
f 65 64 265
f 265 264 65
f 102 175 176
f 102 103 101
f 102 176 103
f 102 226 175
f 225 226 102
f 102 101 96
f 96 225 102
f 276 161 160
f 242 177 176
f 176 175 242
f 179 178 240
f 239 180 240
f 180 179 240
f 240 280 239
f 240 279 280
f 174 134 44
f 44 135 152
f 152 174 44
f 44 45 135
f 44 134 45
f 293 292 69
f 69 68 293
f 69 292 70
f 81 80 69
f 69 80 68
f 69 82 81
f 70 82 69
f 35 36 34
f 34 50 35
f 75 52 51
f 51 74 75
f 51 50 74
f 51 52 36
f 36 35 51
f 51 35 50
f 54 78 79
f 54 53 77
f 77 78 54
f 160 171 159
f 171 170 159
f 159 170 169
f 167 145 166
f 167 168 145
f 167 166 156
f 156 157 167
f 157 168 167
f 145 168 146
f 146 168 147
f 146 147 129
f 198 197 259
f 259 293 294
f 294 258 259
f 258 198 259
f 196 228 260
f 260 197 196
f 260 228 293
f 293 259 260
f 260 259 197
f 143 144 124
f 124 127 143
f 129 130 124
f 124 130 37
f 37 127 124
f 248 249 270
f 61 47 270
f 270 249 250
f 262 67 66
f 262 263 257
f 262 66 263
f 257 261 262
f 261 67 262
f 244 226 225
f 244 225 224
f 224 245 244
f 244 245 274
f 243 242 175
f 276 242 243
f 243 244 276
f 175 226 243
f 226 244 243
f 277 276 160
f 277 242 276
f 177 242 241
f 178 177 241
f 241 240 178
f 56 41 55
f 79 56 55
f 55 54 79
f 38 36 40
f 53 54 40
f 279 159 158
f 158 159 169
f 280 279 158
f 158 157 280
f 169 157 158
f 125 144 145
f 125 124 144
f 129 124 125
f 271 270 47
f 248 270 271
f 47 136 271
f 272 248 271
f 271 136 272
f 61 270 269
f 269 270 250
f 268 61 269
f 269 250 268
f 275 274 162
f 275 244 274
f 162 161 275
f 161 276 275
f 276 244 275
f 242 277 278
f 278 241 242
f 160 159 278
f 278 277 160
f 278 159 279
f 279 240 278
f 240 241 278
f 42 41 38
f 38 40 42
f 42 55 41
f 54 55 42
f 42 40 54
f 53 40 39
f 39 40 36
f 39 52 53
f 36 52 39
f 145 146 128
f 128 125 145
f 128 146 129
f 129 125 128
f 95 88 93
f 93 109 112
f 93 88 109
f 93 113 95
f 22 119 118
f 118 23 22
f 122 29 118
f 29 23 118
f 115 109 110
f 115 26 114
f 115 119 22
f 110 111 115
f 115 19 17
f 24 25 115
f 115 120 119
f 115 25 26
f 115 16 24
f 115 116 112
f 17 16 115
f 111 120 115
f 112 109 115
f 22 21 115
f 115 21 18
f 18 19 115
f 114 26 99
f 99 26 13
f 99 27 107
f 13 15 99
f 15 27 99

