# https://github.com/mikedh/trimesh
v 0.00050000 -0.01000000 0.02100000
v 0.00550000 -0.01000000 0.02100000
v 0.00050000 0.01000000 0.02100000
v 0.00550000 0.01000000 0.02100000
v 0.00550000 -0.01069223 0.02087638
v 0.00050000 -0.01069223 0.02087638
v 0.00550000 -0.01100000 0.02073205
v 0.00050000 -0.01100000 0.02073205
v 0.00550000 -0.01141421 0.02041421
v 0.00050000 -0.01141421 0.02041421
v 0.00550000 -0.01173205 0.02000000
v 0.00050000 -0.01173205 0.02000000
v 0.00550000 -0.01187638 0.01969223
v 0.00050000 -0.01187638 0.01969223
v 0.00025000 -0.01000000 0.02093301
v 0.00014645 -0.01000000 0.02085355
v 0.00014645 -0.01064155 0.02073899
v 0.00006699 -0.01000000 0.02075000
v 0.00003090 -0.01000000 0.02067306
v 0.00003090 -0.01057907 0.02056965
v 0.00014645 -0.01173899 0.01964155
v 0.00032694 -0.01184739 0.01968154
v 0.00032694 -0.01068154 0.02084739
v 0.00032694 -0.01000000 0.02096910
v 0.00032694 -0.01139236 0.02039236
v 0.00003090 -0.01118303 0.02018303
v 0.00014645 -0.01131066 0.02031066
v 0.00006699 0.01000000 0.02075000
v 0.00003090 0.01000000 0.02067306
v 0.00032694 0.01000000 0.02096910
v 0.00025000 0.01000000 0.02093301
v 0.00014645 0.01000000 0.02085355
v 0.00025000 0.01193301 0.01900000
v 0.00014645 0.01185355 0.01900000
v 0.00014645 0.01173899 0.01964155
v 0.00003090 0.01156965 0.01957907
v 0.00014645 0.01064155 0.02073899
v 0.00032694 0.01068154 0.02084739
v 0.00050000 0.01173205 0.02000000
v 0.00050000 0.01187638 0.01969223
v 0.00032694 0.01184739 0.01968154
v 0.00050000 0.01200000 0.01900000
v 0.00032694 0.01196910 0.01900000
v 0.00050000 0.01141421 0.02041421
v 0.00032694 0.01139236 0.02039236
v 0.00050000 0.01100000 0.02073205
v 0.00050000 0.01069223 0.02087638
v 0.00003090 0.01057907 0.02056965
v 0.00003090 0.01118303 0.02018303
v 0.00014645 0.01131066 0.02031066
v 0.00550000 0.01200000 0.01900000
v 0.00550000 0.01187638 0.01969223
v 0.00550000 0.01173205 0.02000000
v 0.00550000 0.01141421 0.02041421
v 0.00550000 0.01100000 0.02073205
v 0.00550000 0.01069223 0.02087638
v 0.00032694 0.01196910 -0.01500000
v 0.00050000 0.01200000 -0.01500000
v 0.00593301 -0.01175000 0.01900000
v 0.00593301 -0.01000000 0.02075000
v 0.00585355 -0.01000000 0.02085355
v 0.00585355 -0.01064155 0.02073899
v 0.00575000 -0.01000000 0.02093301
v 0.00567306 -0.01000000 0.02096910
v 0.00567306 -0.01068154 0.02084739
v 0.00585355 -0.01173899 0.01964155
v 0.00596910 -0.01156965 0.01957907
v 0.00600000 -0.01000000 0.02050000
v 0.00596910 -0.01000000 0.02067306
v 0.00596910 -0.01057907 0.02056965
v 0.00600000 -0.01051918 0.02040729
v 0.00596910 -0.01118303 0.02018303
v 0.00600000 -0.01106066 0.02006066
v 0.00600000 -0.01140729 0.01951918
v 0.00567306 -0.01184739 0.01968154
v 0.00567306 -0.01139236 0.02039236
v 0.00585355 -0.01131066 0.02031066
v 0.00567306 0.01000000 0.02096910
v 0.00575000 0.01000000 0.02093301
v 0.00585355 0.01000000 0.02085355
v 0.00593301 0.01000000 0.02075000
v 0.00596910 0.01000000 0.02067306
v 0.00600000 0.01000000 0.02050000
v 0.00593301 0.01175000 0.01900000
v 0.00585355 0.01185355 0.01900000
v 0.00585355 0.01173899 0.01964155
v 0.00575000 0.01193301 0.01900000
v 0.00567306 0.01196910 0.01900000
v 0.00567306 0.01184739 0.01968154
v 0.00585355 0.01064155 0.02073899
v 0.00596910 0.01057907 0.02056965
v 0.00600000 0.01150000 0.01900000
v 0.00596910 0.01167306 0.01900000
v 0.00596910 0.01156965 0.01957907
v 0.00600000 0.01140729 0.01951918
v 0.00596910 0.01118303 0.02018303
v 0.00600000 0.01106066 0.02006066
v 0.00600000 0.01051918 0.02040729
v 0.00567306 0.01068154 0.02084739
v 0.00567306 0.01139236 0.02039236
v 0.00585355 0.01131066 0.02031066
v 0.00593301 0.01175000 -0.01500000
v 0.00585355 0.01185355 -0.01500000
v 0.00575000 0.01193301 -0.01500000
v 0.00567306 0.01196910 -0.01500000
v 0.00550000 0.01200000 -0.01500000
v 0.00600000 0.01150000 -0.01500000
v 0.00596910 0.01167306 -0.01500000
v 0.00585355 0.01174432 -0.02099487
v 0.00596910 0.01156395 -0.02098829
v 0.00600000 0.00540623 -0.05931836
v 0.00596910 0.00557286 -0.05936506
v 0.00596910 0.00708402 -0.05356955
v 0.00600000 0.00691580 -0.05352895
v 0.00596910 0.00881513 -0.04551870
v 0.00600000 0.00864508 -0.04548657
v 0.00596910 0.01014087 -0.03739125
v 0.00600000 0.00996942 -0.03736767
v 0.00596910 0.01105791 -0.02920760
v 0.00600000 0.01088550 -0.02919264
v 0.00600000 0.01139100 -0.02098199
v 0.00550000 0.01189067 -0.02100020
v 0.00567306 0.01185979 -0.02099908
v 0.00550000 0.01168873 -0.02512121
v 0.00567306 0.01135284 -0.02923319
v 0.00550000 0.01138362 -0.02923586
v 0.00567306 0.01043415 -0.03743157
v 0.00550000 0.01046476 -0.03743578
v 0.00567306 0.00910602 -0.04557366
v 0.00550000 0.00913639 -0.04557940
v 0.00550000 0.00831964 -0.04962369
v 0.00567306 0.00737179 -0.05363901
v 0.00550000 0.00740184 -0.05364626
v 0.00567306 0.00585791 -0.05944496
v 0.00550000 0.00588767 -0.05945330
v 0.00585355 0.01123773 -0.02922320
v 0.00585355 0.01031968 -0.03741583
v 0.00585355 0.00899249 -0.04555221
v 0.00585355 0.00725948 -0.05361190
v 0.00585355 0.00574666 -0.05941378
v -0.00250247 0.00672863 -0.05629469
v -0.00400000 0.00588767 -0.05945330
v -0.00398431 0.00589743 -0.05941847
v -0.00186584 0.00702252 -0.05518643
v 0.00006767 0.00828506 -0.04978435
v -0.00050191 0.00784038 -0.05178167
v 0.00026638 0.00849116 -0.04881653
v 0.00050000 0.00900142 -0.04628528
v -0.00099204 0.00752438 -0.05313534
v 0.00050000 0.01019678 -0.03930523
v 0.00050000 0.01124864 -0.03071433
v 0.00050000 0.01046476 -0.03743578
v 0.00032694 0.01181688 -0.02207871
v 0.00050000 0.01184776 -0.02208004
v 0.00050000 0.01168873 -0.02512121
v 0.00600000 -0.01093225 -0.07097282
v 0.00600000 -0.01362806 -0.07058323
v 0.00600000 -0.01621872 -0.06974203
v 0.00600000 -0.01862916 -0.06847358
v 0.00600000 -0.02078952 -0.06681467
v 0.00600000 -0.02263718 -0.06481335
v 0.00600000 -0.02411860 -0.06252762
v 0.00600000 -0.02519085 -0.06002374
v 0.00600000 -0.02582286 -0.05737426
v 0.00600000 -0.02599630 -0.05465597
v 0.00600000 -0.02570615 -0.05194766
v 0.00600000 0.00314703 -0.06411897
v 0.00600000 0.00450328 -0.06175683
v 0.00600000 0.00140975 -0.06621684
v 0.00600000 -0.00065819 -0.06798963
v 0.00600000 -0.00299686 -0.06938597
v 0.00600000 -0.00553849 -0.07036538
v 0.00600000 -0.00820943 -0.07089949
v -0.02183773 -0.02541628 -0.04955308
v -0.02183773 -0.02611507 -0.05223680
v -0.02124448 -0.02626266 -0.05221149
v -0.02124448 0.00637970 -0.05698885
v -0.02124448 0.00596759 -0.05915764
v -0.02183773 0.00582268 -0.05911990
v -0.02183773 -0.01344466 -0.07098328
v -0.02183773 -0.01069392 -0.07133552
v -0.02124448 -0.01070028 -0.07148513
v -0.02183773 -0.02611507 -0.05776320
v -0.02183773 -0.02541628 -0.06044692
v -0.02124448 -0.02555748 -0.06049681
v -0.02183773 -0.02272108 -0.06527156
v -0.02124448 -0.02357923 -0.06437307
v -0.02183773 -0.02427400 -0.06297393
v -0.02124448 -0.02440473 -0.06304697
v -0.02124448 -0.02542777 -0.06085098
v -0.02183773 -0.01857256 -0.06892271
v -0.02124448 -0.01865107 -0.06905023
v -0.02183773 -0.02080220 -0.06727368
v -0.02124448 -0.02090113 -0.06738609
v -0.02124448 -0.02283759 -0.06536563
v -0.02124448 -0.01347621 -0.07112966
v -0.02124448 -0.01394871 -0.07102054
v -0.02183773 -0.01609630 -0.07017121
v -0.02124448 -0.01615213 -0.07031017
v -0.02124448 -0.01766793 -0.06961002
v -0.02183773 -0.00521227 -0.07063357
v -0.02124448 -0.00605129 -0.07102054
v -0.02183773 -0.00792323 -0.07121782
v -0.02124448 -0.00790421 -0.07136635
v -0.02124448 -0.01000000 -0.07150000
v -0.02183773 -0.00027760 -0.06814555
v -0.02124448 -0.00233207 -0.06961002
v -0.02183773 -0.00263906 -0.06959956
v -0.02124448 -0.00257164 -0.06973328
v -0.02124448 -0.00516842 -0.07077675
v -0.02183773 0.00180416 -0.06631337
v -0.02124448 0.00094152 -0.06735042
v -0.02124448 -0.00018855 -0.06826595
v -0.02183773 0.00354634 -0.06415573
v -0.02124448 0.00357923 -0.06437307
v -0.02124448 0.00191228 -0.06641699
v -0.02183773 0.00489881 -0.06173469
v -0.02124448 0.00542777 -0.06085098
v -0.02124448 0.00503527 -0.06179637
v -0.02124448 0.00367041 -0.06423958
v -0.02124448 0.00644056 -0.05639930
v -0.02183773 0.00629135 -0.05638660
v -0.02183773 0.00629135 -0.05361340
v -0.02183773 0.00582268 -0.05088010
v -0.02124448 -0.02555748 -0.04950319
v -0.02183773 -0.02427400 -0.04702606
v -0.02124448 -0.02626266 -0.05778851
v -0.02124448 -0.02637970 -0.05698885
v -0.02183773 -0.02635025 -0.05500000
v -0.02124448 -0.02650000 -0.05500000
v -0.02124448 -0.02637970 -0.05301115
v -0.02228884 -0.00052340 -0.04218679
v -0.02228884 0.00150573 -0.04397265
v -0.02228884 0.00320386 -0.04607575
v -0.02228884 0.00452214 -0.04843558
v -0.02228884 0.00542265 -0.05098426
v -0.02228884 0.00587947 -0.05364846
v -0.02228884 0.00587947 -0.05635154
v -0.02228884 0.00542265 -0.05901574
v -0.02228884 -0.00282516 -0.04076955
v -0.02228884 -0.00533332 -0.03976168
v -0.02228884 -0.00797573 -0.03919220
v -0.02228884 -0.01067638 -0.03907748
v -0.02228884 -0.01335757 -0.03942082
v -0.02228884 -0.01594217 -0.04021234
v -0.02228884 -0.01835582 -0.04142928
v -0.02228884 -0.02052910 -0.04303662
v -0.02228884 -0.02239946 -0.04498813
v -0.02228884 -0.02391312 -0.04722766
v -0.02228884 -0.02502653 -0.04969079
v -0.02228884 -0.02570764 -0.05230666
v -0.02228884 -0.02593688 -0.05500000
v -0.02228884 -0.02570764 -0.05769335
v -0.02228884 -0.02502653 -0.06030921
v -0.02228884 -0.02391312 -0.06277233
v -0.02228884 -0.02239946 -0.06501187
v -0.02228884 -0.02052910 -0.06696337
v -0.02228884 -0.01835582 -0.06857072
v -0.02228884 -0.01594217 -0.06978766
v -0.02228884 -0.01335757 -0.07057918
v -0.02228884 -0.01067638 -0.07092252
v -0.02228884 -0.00797573 -0.07080780
v -0.02228884 -0.00533332 -0.07023831
v -0.02228884 -0.00282516 -0.06923045
v -0.02228884 -0.00052340 -0.06781321
v -0.02228884 0.00150573 -0.06602735
v -0.02228884 0.00320386 -0.06392425
v -0.02228884 0.00452214 -0.06156442
v -0.02248972 -0.00086707 -0.04265146
v -0.02248972 0.00108848 -0.04437255
v -0.02248972 0.00272503 -0.04639938
v -0.02248972 0.00399550 -0.04867363
v -0.02248972 0.00486335 -0.05112989
v -0.02248972 0.00530361 -0.05369747
v -0.02248972 0.00530361 -0.05630253
v -0.02248972 0.00486335 -0.05887011
v -0.02248972 0.00399550 -0.06132637
v -0.02248972 -0.00308535 -0.04128561
v -0.02248972 -0.00550255 -0.04031429
v -0.02248972 -0.00804914 -0.03976547
v -0.02248972 -0.01065185 -0.03965490
v -0.02248972 -0.01323581 -0.03998579
v -0.02248972 -0.01572668 -0.04074861
v -0.02248972 -0.01805280 -0.04192142
v -0.02248972 -0.02014726 -0.04347047
v -0.02248972 -0.02194980 -0.04535121
v -0.02248972 -0.02340857 -0.04750952
v -0.02248972 -0.02448159 -0.04988333
v -0.02248972 -0.02513801 -0.05240433
v -0.02248972 -0.02535894 -0.05500000
v -0.02248972 -0.02513801 -0.05759567
v -0.02248972 -0.02448159 -0.06011667
v -0.02248972 -0.02340857 -0.06249047
v -0.02248972 -0.02194980 -0.06464879
v -0.02248972 -0.02014726 -0.06652953
v -0.02248972 -0.01805280 -0.06807858
v -0.02248972 -0.01572668 -0.06925139
v -0.02248972 -0.01323581 -0.07001421
v -0.02248972 -0.01065185 -0.07034510
v -0.02248972 -0.00804914 -0.07023454
v -0.02248972 -0.00550255 -0.06968571
v -0.02248972 -0.00308535 -0.06871439
v -0.02248972 -0.00086707 -0.06734854
v -0.02248972 0.00108848 -0.06562745
v -0.02248972 0.00272503 -0.06360061
v 0.00596910 -0.02587603 -0.05191464
v 0.00596910 -0.02616932 -0.05465225
v 0.00596910 -0.02599400 -0.05739994
v 0.00596910 -0.02535516 -0.06007807
v 0.00596910 -0.02427131 -0.06260904
v 0.00596910 -0.02277387 -0.06491949
v 0.00596910 -0.02090622 -0.06694245
v 0.00596910 -0.01872250 -0.06861932
v 0.00596910 -0.01628599 -0.06990148
v 0.00596910 -0.01366730 -0.07075179
v 0.00596910 -0.01094234 -0.07114558
v 0.00596910 -0.00819006 -0.07107146
v 0.00596910 -0.00549024 -0.07053158
v 0.00596910 -0.00292111 -0.06954157
v 0.00596910 -0.00055714 -0.06813013
v 0.00596910 0.00153316 -0.06633817
v 0.00596910 0.00328923 -0.06421760
v 0.00596910 0.00466015 -0.06182991
v 0.00550000 0.00542777 -0.06085098
v 0.00567306 0.00492850 -0.06195493
v 0.00550000 0.00495651 -0.06196798
v 0.00550000 0.00357923 -0.06437307
v 0.00567306 0.00353248 -0.06438633
v 0.00550000 0.00355787 -0.06440394
v 0.00567306 0.00174427 -0.06654570
v 0.00550000 0.00176631 -0.06656737
v 0.00550000 0.00094152 -0.06735042
v 0.00567306 -0.00038430 -0.06837047
v 0.00550000 -0.00036625 -0.06839556
v 0.00550000 -0.00233207 -0.06961002
v 0.00567306 -0.00279154 -0.06980774
v 0.00550000 -0.00277801 -0.06983553
v 0.00567306 -0.00540769 -0.07081587
v 0.00550000 -0.00539907 -0.07084555
v 0.00550000 -0.00605129 -0.07102054
v 0.00567306 -0.00815693 -0.07136564
v 0.00550000 -0.00815347 -0.07139635
v 0.00550000 -0.01000000 -0.07150000
v 0.00567306 -0.01095959 -0.07144111
v 0.00550000 -0.01096139 -0.07147197
v 0.00567306 -0.01373443 -0.07104011
v 0.00550000 -0.01374144 -0.07107021
v 0.00567306 -0.01888216 -0.06886861
v 0.00550000 -0.01766793 -0.06961002
v 0.00567306 -0.01640105 -0.07017425
v 0.00550000 -0.01641306 -0.07020272
v 0.00550000 -0.01394871 -0.07102054
v 0.00567306 -0.02300768 -0.06510106
v 0.00550000 -0.02112669 -0.06718387
v 0.00567306 -0.02110585 -0.06716105
v 0.00550000 -0.02094152 -0.06735042
v 0.00550000 -0.01889882 -0.06889464
v 0.00567306 -0.02453254 -0.06274832
v 0.00550000 -0.02357923 -0.06437307
v 0.00550000 -0.02303209 -0.06512001
v 0.00550000 -0.02637970 -0.05698885
v 0.00550000 -0.02631732 -0.05744845
v 0.00567306 -0.02628676 -0.05744387
v 0.00550000 -0.02566557 -0.06018073
v 0.00567306 -0.02563623 -0.06017102
v 0.00550000 -0.02542777 -0.06085098
v 0.00550000 -0.02455981 -0.06276286
v 0.00550000 -0.02649618 -0.05464522
v 0.00567306 -0.02646529 -0.05464589
v 0.00550000 -0.02637970 -0.05301115
v 0.00567306 -0.02616663 -0.05185817
v 0.00550000 -0.02619697 -0.05185227
v 0.00585355 0.00482376 -0.06190614
v 0.00585355 0.00343754 -0.06432047
v 0.00585355 0.00166188 -0.06646470
v 0.00585355 -0.00045176 -0.06827667
v 0.00585355 -0.00284211 -0.06970385
v 0.00585355 -0.00543991 -0.07070491
v 0.00585355 -0.00816986 -0.07125083
v 0.00585355 -0.01095285 -0.07132577
v 0.00585355 -0.01370823 -0.07092758
v 0.00585355 -0.01635614 -0.07006779
v 0.00585355 -0.01881984 -0.06877132
v 0.00585355 -0.02102793 -0.06707574
v 0.00585355 -0.02291642 -0.06503019
v 0.00585355 -0.02443058 -0.06269395
v 0.00585355 -0.02552653 -0.06013475
v 0.00585355 -0.02617250 -0.05742672
v 0.00585355 -0.02634977 -0.05464837
v 0.00585355 -0.02605321 -0.05188021
f 281 244 243
f 14 372 13
f 176 372 14
f 20 246 26
f 220 219 326
f 245 246 20
f 20 244 245
f 244 281 282
f 361 368 230
f 368 361 369
f 174 176 225
f 372 176 370
f 368 369 370
f 19 244 20
f 243 244 19
f 217 268 179
f 166 306 165
f 231 229 230
f 231 370 176
f 230 368 231
f 368 370 231
f 175 176 174
f 175 231 176
f 229 231 175
f 185 364 227
f 240 279 241
f 243 19 29
f 283 284 246
f 246 245 283
f 283 245 244
f 244 282 283
f 228 361 230
f 230 229 228
f 228 183 227
f 229 183 228
f 227 364 362
f 362 228 227
f 361 228 362
f 165 306 307
f 390 307 306
f 247 26 246
f 247 248 26
f 246 284 247
f 22 21 174
f 174 225 22
f 22 176 14
f 22 225 176
f 20 26 27
f 27 17 20
f 26 248 27
f 21 22 27
f 248 249 27
f 27 249 21
f 342 343 205
f 130 150 128
f 20 17 18
f 18 19 20
f 17 27 23
f 94 95 92
f 92 93 94
f 239 268 276
f 276 238 239
f 179 268 239
f 134 132 140
f 324 326 219
f 259 297 298
f 263 262 301
f 276 268 277
f 212 332 213
f 296 297 259
f 259 258 296
f 295 296 257
f 257 296 258
f 192 200 349
f 295 257 294
f 294 257 256
f 292 293 254
f 254 293 255
f 293 294 255
f 255 294 256
f 186 255 256
f 188 255 186
f 229 175 252
f 290 253 252
f 252 183 229
f 252 253 183
f 227 183 184
f 184 185 227
f 184 253 254
f 183 253 184
f 254 255 184
f 184 255 188
f 242 281 243
f 241 279 242
f 243 29 242
f 279 240 278
f 75 11 13
f 75 13 372
f 165 307 308
f 388 387 308
f 59 390 306
f 66 390 59
f 389 390 369
f 307 390 389
f 388 308 389
f 389 308 307
f 248 247 286
f 286 249 248
f 251 252 175
f 12 22 14
f 174 21 226
f 226 249 174
f 21 249 226
f 316 173 156
f 340 202 339
f 379 316 380
f 204 342 205
f 202 340 204
f 204 340 342
f 133 146 131
f 131 132 133
f 148 150 130
f 151 155 126
f 126 128 151
f 179 239 222
f 222 239 238
f 31 37 32
f 6 23 8
f 17 23 15
f 84 94 93
f 85 86 84
f 86 94 84
f 67 59 306
f 66 59 67
f 77 75 66
f 66 67 77
f 273 272 236
f 275 238 276
f 274 273 237
f 237 273 236
f 236 272 235
f 272 234 235
f 87 88 89
f 89 86 87
f 87 86 85
f 126 155 124
f 154 124 155
f 218 178 142
f 218 324 219
f 219 217 218
f 218 217 179
f 179 178 218
f 134 324 135
f 135 144 133
f 133 132 135
f 132 134 135
f 213 332 334
f 267 277 268
f 216 215 329
f 201 262 263
f 300 301 262
f 194 192 357
f 357 192 349
f 200 192 191
f 191 258 259
f 259 180 198
f 198 191 259
f 200 191 198
f 261 298 299
f 181 180 261
f 299 300 261
f 261 300 262
f 196 180 181
f 314 158 313
f 313 383 314
f 254 253 291
f 291 292 254
f 291 253 290
f 256 257 193
f 193 186 256
f 193 192 194
f 193 191 192
f 193 257 258
f 258 191 193
f 194 354 195
f 195 193 194
f 186 193 195
f 185 184 190
f 190 188 189
f 190 184 188
f 281 242 280
f 280 242 279
f 32 37 28
f 241 242 48
f 48 242 29
f 48 240 241
f 29 28 48
f 48 28 37
f 371 390 66
f 66 75 371
f 371 75 372
f 372 370 371
f 371 370 369
f 369 390 371
f 165 308 164
f 164 308 163
f 163 308 309
f 309 308 387
f 387 310 309
f 285 247 284
f 285 286 247
f 288 249 287
f 249 286 287
f 250 249 288
f 174 249 250
f 250 175 174
f 250 251 175
f 290 252 289
f 252 251 289
f 289 250 288
f 251 250 289
f 25 27 22
f 22 12 25
f 25 12 10
f 25 10 8
f 8 23 25
f 25 23 27
f 315 316 156
f 315 158 314
f 380 316 315
f 315 381 380
f 341 379 380
f 343 342 341
f 342 340 341
f 117 136 119
f 119 118 117
f 137 136 117
f 140 132 139
f 130 131 147
f 147 148 130
f 178 148 147
f 152 128 150
f 152 151 128
f 151 152 177
f 177 178 179
f 179 222 177
f 177 152 150
f 150 148 177
f 177 148 178
f 24 15 23
f 24 6 1
f 23 6 24
f 16 18 17
f 17 15 16
f 101 86 89
f 101 94 86
f 306 166 74
f 74 67 306
f 72 77 67
f 72 74 73
f 67 74 72
f 11 75 76
f 75 77 76
f 9 11 76
f 91 101 90
f 9 76 7
f 223 237 236
f 271 234 272
f 271 270 234
f 232 270 269
f 232 48 49
f 240 48 232
f 269 278 232
f 232 278 240
f 236 235 35
f 58 154 57
f 89 88 52
f 52 88 51
f 52 53 89
f 46 44 45
f 126 124 125
f 125 128 126
f 57 154 153
f 124 154 122
f 122 58 106
f 154 58 122
f 149 178 146
f 149 144 178
f 149 146 133
f 133 144 149
f 178 144 141
f 144 135 141
f 209 201 208
f 112 323 140
f 111 323 112
f 168 323 111
f 140 323 373
f 373 134 140
f 373 323 322
f 305 267 304
f 277 267 305
f 262 201 203
f 202 204 203
f 203 201 202
f 181 261 203
f 203 261 262
f 205 181 203
f 203 204 205
f 264 265 208
f 264 201 263
f 208 201 264
f 263 301 264
f 304 265 303
f 304 267 266
f 266 265 304
f 208 265 206
f 206 212 213
f 363 362 364
f 364 365 363
f 361 362 363
f 363 387 388
f 363 365 387
f 363 369 361
f 388 389 363
f 363 389 369
f 162 310 161
f 163 309 162
f 162 309 310
f 386 310 387
f 356 354 194
f 194 357 356
f 259 298 260
f 298 261 260
f 260 180 259
f 260 261 180
f 182 181 205
f 182 196 181
f 205 343 182
f 197 198 180
f 180 196 197
f 197 347 352
f 196 347 197
f 161 310 311
f 310 386 311
f 161 311 160
f 186 195 187
f 189 188 187
f 188 186 187
f 187 359 189
f 157 315 156
f 158 315 157
f 314 383 382
f 383 350 382
f 382 350 381
f 382 315 314
f 381 315 382
f 349 200 351
f 351 350 349
f 352 350 351
f 343 341 344
f 344 341 380
f 352 347 346
f 346 350 352
f 381 350 346
f 380 381 346
f 346 344 380
f 120 119 121
f 118 119 120
f 128 125 127
f 136 137 127
f 127 125 136
f 115 137 117
f 138 137 115
f 115 139 138
f 145 131 146
f 145 147 131
f 146 178 145
f 178 147 145
f 100 54 55
f 100 53 54
f 89 53 100
f 100 101 89
f 98 91 82
f 82 83 98
f 96 97 95
f 95 94 96
f 94 101 96
f 96 101 91
f 96 98 97
f 91 98 96
f 77 72 70
f 55 56 99
f 99 100 55
f 99 90 101
f 101 100 99
f 82 91 81
f 91 90 81
f 5 64 2
f 43 223 33
f 233 232 49
f 270 232 233
f 49 234 233
f 234 270 233
f 224 223 236
f 236 35 224
f 33 223 34
f 34 35 33
f 223 224 34
f 34 224 35
f 36 234 49
f 36 235 234
f 36 35 235
f 42 43 40
f 49 48 50
f 50 48 37
f 50 36 49
f 35 36 50
f 110 107 121
f 121 119 110
f 110 119 136
f 136 109 110
f 221 153 154
f 221 154 155
f 221 177 222
f 155 151 221
f 151 177 221
f 221 222 57
f 57 153 221
f 178 141 143
f 143 141 135
f 143 135 142
f 142 178 143
f 335 336 337
f 337 209 335
f 337 336 339
f 335 209 207
f 213 334 207
f 207 334 335
f 207 209 208
f 207 206 213
f 208 206 207
f 339 202 210
f 210 337 339
f 209 337 210
f 202 201 210
f 201 209 210
f 173 316 317
f 316 379 317
f 322 323 167
f 323 168 167
f 325 324 134
f 134 373 325
f 326 324 325
f 374 373 322
f 322 167 321
f 321 374 322
f 375 374 321
f 321 376 375
f 216 329 331
f 331 212 216
f 332 212 331
f 302 264 301
f 265 264 302
f 302 303 265
f 211 215 216
f 216 212 211
f 212 206 211
f 265 266 211
f 211 206 265
f 367 190 189
f 189 359 367
f 383 384 348
f 348 356 357
f 348 357 349
f 349 350 348
f 348 350 383
f 200 198 199
f 198 197 199
f 199 351 200
f 199 197 352
f 352 351 199
f 384 353 355
f 354 356 355
f 355 348 384
f 356 348 355
f 360 195 354
f 354 355 360
f 360 355 353
f 360 353 359
f 359 187 360
f 360 187 195
f 384 311 385
f 385 353 384
f 385 311 386
f 159 313 158
f 159 160 313
f 313 160 312
f 312 384 383
f 383 313 312
f 312 311 384
f 312 160 311
f 345 182 343
f 343 344 345
f 196 182 345
f 345 347 196
f 345 346 347
f 344 346 345
f 129 137 138
f 129 127 137
f 129 131 130
f 130 128 129
f 128 127 129
f 132 131 129
f 129 139 132
f 138 139 129
f 117 118 116
f 116 115 117
f 139 115 113
f 113 116 114
f 115 116 113
f 140 139 113
f 113 112 140
f 113 114 111
f 111 112 113
f 30 3 47
f 71 72 73
f 71 70 72
f 60 70 69
f 69 71 68
f 70 71 69
f 65 76 77
f 65 7 76
f 65 5 7
f 63 64 65
f 64 5 65
f 90 99 79
f 41 40 43
f 33 35 41
f 41 43 33
f 35 50 41
f 41 50 45
f 39 45 44
f 39 41 45
f 40 41 39
f 102 110 109
f 105 122 106
f 318 172 173
f 173 317 318
f 318 317 379
f 318 171 172
f 319 171 318
f 335 334 333
f 333 336 335
f 333 334 332
f 319 376 320
f 170 171 320
f 320 171 319
f 320 321 170
f 376 321 320
f 326 325 327
f 220 326 327
f 327 215 220
f 327 329 215
f 328 325 373
f 373 374 328
f 328 327 325
f 329 327 328
f 328 374 375
f 328 331 329
f 170 321 169
f 169 321 167
f 215 211 214
f 220 215 214
f 214 266 267
f 214 211 266
f 214 219 220
f 214 217 219
f 268 217 214
f 214 267 268
f 387 365 358
f 358 386 387
f 358 367 359
f 359 353 358
f 358 385 386
f 353 385 358
f 38 47 46
f 46 45 38
f 30 47 38
f 38 50 37
f 45 50 38
f 31 30 38
f 37 31 38
f 62 61 63
f 63 65 62
f 60 61 62
f 62 70 60
f 77 70 62
f 62 65 77
f 78 79 99
f 78 56 4
f 78 99 56
f 80 81 90
f 90 79 80
f 109 104 103
f 103 102 109
f 107 110 108
f 110 102 108
f 123 105 104
f 123 104 109
f 122 105 123
f 124 122 123
f 123 125 124
f 136 125 123
f 123 109 136
f 378 318 379
f 319 318 378
f 379 341 378
f 330 328 375
f 331 328 330
f 332 331 330
f 330 333 332
f 375 376 330
f 376 333 330
f 366 365 364
f 366 358 365
f 367 358 366
f 190 367 366
f 364 185 366
f 185 190 366
f 338 340 339
f 339 336 338
f 336 378 338
f 338 341 340
f 338 378 341
f 377 378 336
f 319 378 377
f 377 376 319
f 336 333 377
f 377 333 376
f 13 11 12
f 14 13 12
f 9 10 12
f 12 11 9
f 237 275 274
f 238 275 237
f 44 46 55
f 55 54 44
f 324 218 135
f 135 218 142
f 19 18 28
f 28 29 19
f 24 30 31
f 31 15 24
f 16 28 18
f 32 28 16
f 16 15 31
f 16 31 32
f 7 10 9
f 8 10 7
f 238 237 223
f 223 222 238
f 58 42 51
f 51 106 58
f 3 2 4
f 1 2 3
f 30 24 3
f 3 24 1
f 5 2 1
f 1 6 5
f 8 7 5
f 5 6 8
f 42 58 43
f 43 58 57
f 222 223 43
f 57 222 43
f 51 42 40
f 40 52 51
f 302 275 276
f 302 300 299
f 302 296 295
f 276 277 302
f 269 270 302
f 284 283 302
f 302 282 281
f 302 278 269
f 272 273 302
f 299 298 302
f 295 294 302
f 302 291 290
f 302 283 282
f 288 287 302
f 281 280 302
f 302 298 297
f 302 305 304
f 302 271 272
f 297 296 302
f 302 294 293
f 293 292 302
f 279 278 302
f 302 285 284
f 302 273 274
f 274 275 302
f 290 289 302
f 301 300 302
f 292 291 302
f 302 280 279
f 286 285 302
f 302 287 286
f 302 289 288
f 270 271 302
f 277 305 302
f 304 303 302
f 55 46 47
f 47 56 55
f 47 3 4
f 4 56 47
f 69 81 60
f 82 81 69
f 69 68 83
f 69 83 82
f 39 44 54
f 54 53 39
f 52 40 39
f 53 52 39
f 105 106 51
f 51 88 105
f 88 87 105
f 87 104 105
f 73 74 169
f 169 116 118
f 169 74 166
f 156 173 169
f 92 95 169
f 161 160 169
f 111 114 169
f 169 107 92
f 169 168 111
f 169 166 165
f 165 164 169
f 169 162 161
f 121 107 169
f 169 157 156
f 95 97 169
f 169 98 83
f 169 164 163
f 169 159 158
f 169 120 121
f 83 68 169
f 173 172 169
f 163 162 169
f 169 171 170
f 158 157 169
f 118 120 169
f 97 98 169
f 169 71 73
f 169 167 168
f 160 159 169
f 114 116 169
f 68 71 169
f 172 171 169
f 4 2 78
f 2 64 78
f 78 64 63
f 63 79 78
f 60 81 80
f 80 61 60
f 80 79 63
f 63 61 80
f 103 104 87
f 103 87 85
f 85 84 103
f 84 102 103
f 92 107 108
f 108 93 92
f 108 102 84
f 108 84 93

