# https://github.com/mikedh/trimesh
v 0.01350000 -0.01000000 0.02100000
v 0.01350000 0.01000000 0.02100000
v 0.00050000 -0.01000000 0.02100000
v 0.00050000 0.01000000 0.02100000
v 0.00050000 0.01069223 0.02087638
v 0.01350000 0.01069223 0.02087638
v 0.00050000 0.01100000 0.02073205
v 0.01350000 0.01100000 0.02073205
v 0.00050000 0.01141421 0.02041421
v 0.01350000 0.01141421 0.02041421
v 0.00050000 0.01173205 0.02000000
v 0.01350000 0.01173205 0.02000000
v 0.00050000 0.01187638 0.01969223
v 0.01350000 0.01187638 0.01969223
v 0.01375000 0.01193301 0.01900000
v 0.01393301 0.01175000 0.01900000
v 0.01367306 0.01068154 0.02084739
v 0.01367306 0.01184739 0.01968154
v 0.01385355 0.01173899 0.01964155
v 0.01396910 0.01156965 0.01957907
v 0.01396910 0.01118303 0.02018303
v 0.01400000 0.01106066 0.02006066
v 0.01400000 0.01140729 0.01951918
v 0.01396910 0.01057907 0.02056965
v 0.01400000 0.01051918 0.02040729
v 0.01400000 0.01000000 0.02050000
v 0.01396910 0.01000000 0.02067306
v 0.01393301 0.01000000 0.02075000
v 0.01385355 0.01064155 0.02073899
v 0.01367306 0.01000000 0.02096910
v 0.01375000 0.01000000 0.02093301
v 0.01385355 0.01000000 0.02085355
v 0.01385355 0.01131066 0.02031066
v 0.01367306 0.01139236 0.02039236
v 0.01367306 -0.01000000 0.02096910
v 0.01375000 -0.01000000 0.02093301
v 0.01385355 -0.01000000 0.02085355
v 0.01393301 -0.01000000 0.02075000
v 0.01396910 -0.01000000 0.02067306
v 0.01400000 -0.01000000 0.02050000
v 0.01350000 -0.01173205 0.02000000
v 0.01350000 -0.01187638 0.01969223
v 0.01367306 -0.01184739 0.01968154
v 0.01350000 -0.01200000 0.01900000
v 0.01367306 -0.01068154 0.02084739
v 0.01350000 -0.01069223 0.02087638
v 0.01350000 -0.01100000 0.02073205
v 0.01385355 -0.01064155 0.02073899
v 0.01396910 -0.01057907 0.02056965
v 0.01396910 -0.01118303 0.02018303
v 0.01400000 -0.01106066 0.02006066
v 0.01400000 -0.01051918 0.02040729
v 0.01396910 -0.01156965 0.01957907
v 0.01400000 -0.01140729 0.01951918
v 0.01400000 -0.01150000 0.01900000
v 0.01396910 -0.01167306 0.01900000
v 0.01393301 -0.01175000 0.01900000
v 0.01385355 -0.01173899 0.01964155
v 0.01367306 -0.01196910 0.01900000
v 0.01375000 -0.01193301 0.01900000
v 0.01385355 -0.01185355 0.01900000
v 0.01385355 -0.01131066 0.02031066
v 0.01367306 -0.01139236 0.02039236
v 0.01350000 -0.01141421 0.02041421
v 0.01350000 -0.01200000 -0.01500000
v 0.01367306 -0.01196910 -0.01500000
v 0.01375000 -0.01193301 -0.01500000
v 0.01385355 -0.01185355 -0.01500000
v 0.01393301 -0.01175000 -0.01500000
v 0.01396910 -0.01167306 -0.01500000
v 0.01400000 -0.01150000 -0.01500000
v 0.00050000 -0.01200000 0.01900000
v 0.00050000 -0.01187638 0.01969223
v 0.00050000 -0.01173205 0.02000000
v 0.00050000 -0.01141421 0.02041421
v 0.00050000 -0.01100000 0.02073205
v 0.00050000 -0.01069223 0.02087638
v 0.00006699 0.01000000 0.02075000
v 0.00014645 0.01000000 0.02085355
v 0.00014645 0.01064155 0.02073899
v 0.00025000 0.01000000 0.02093301
v 0.00032694 0.01000000 0.02096910
v 0.00032694 0.01068154 0.02084739
v 0.00014645 0.01173899 0.01964155
v 0.00003090 0.01156965 0.01957907
v 0.00003090 0.01000000 0.02067306
v 0.00003090 0.01057907 0.02056965
v 0.00003090 0.01118303 0.02018303
v 0.00032694 0.01184739 0.01968154
v 0.00032694 0.01139236 0.02039236
v 0.00014645 0.01131066 0.02031066
v 0.00003090 -0.01000000 0.02067306
v 0.00006699 -0.01000000 0.02075000
v 0.00014645 -0.01000000 0.02085355
v 0.00025000 -0.01000000 0.02093301
v 0.00032694 -0.01000000 0.02096910
v 0.00006699 -0.01175000 0.01900000
v 0.00014645 -0.01185355 0.01900000
v 0.00014645 -0.01173899 0.01964155
v 0.00025000 -0.01193301 0.01900000
v 0.00032694 -0.01196910 0.01900000
v 0.00032694 -0.01184739 0.01968154
v 0.00014645 -0.01064155 0.02073899
v 0.00003090 -0.01057907 0.02056965
v 0.00003090 -0.01156965 0.01957907
v 0.00003090 -0.01118303 0.02018303
v 0.00032694 -0.01068154 0.02084739
v 0.00032694 -0.01139236 0.02039236
v 0.00014645 -0.01131066 0.02031066
v 0.00032694 -0.01196910 -0.01500000
v 0.00050000 -0.01200000 -0.01500000
v 0.01400000 0.01208643 -0.06985418
v 0.01400000 0.00949051 -0.06999134
v 0.01400000 0.00690990 -0.06967826
v 0.01400000 0.00442209 -0.06892433
v 0.01400000 0.00210181 -0.06775220
v 0.01400000 0.00001874 -0.06619707
v 0.01400000 0.01461968 -0.06927090
v 0.01400000 0.01701419 -0.06825900
v 0.01400000 0.01919803 -0.06684889
v 0.01400000 0.02110562 -0.06508292
v 0.01400000 0.02267967 -0.06301410
v 0.01400000 0.02387290 -0.06070461
v 0.01400000 0.02464948 -0.05822378
v 0.01400000 0.02498608 -0.05564613
v 0.01400000 0.02487259 -0.05304907
v 0.01400000 -0.00176455 -0.06430566
v 0.01400000 -0.00319451 -0.06213477
v 0.01400000 -0.00422819 -0.05974958
v 0.01400000 -0.00569277 -0.05509630
v 0.01400000 -0.01019928 -0.03413010
v 0.01400000 -0.00905174 -0.04119194
v 0.01400000 -0.00754828 -0.04818664
v 0.01400000 -0.01141580 -0.01987759
v 0.01400000 -0.01098798 -0.02701925
v 0.01385355 -0.01176915 -0.01988980
v 0.01367306 -0.01188462 -0.01989378
v 0.01367306 -0.00467315 -0.05989812
v 0.01367306 -0.00614259 -0.05522939
v 0.01350000 -0.00470247 -0.05990790
v 0.01350000 -0.00617222 -0.05523816
v 0.01350000 -0.00695916 -0.05247590
v 0.01367306 -0.00800426 -0.04829679
v 0.01350000 -0.00803430 -0.04830405
v 0.01350000 -0.00926978 -0.04269446
v 0.01367306 -0.00951270 -0.04127887
v 0.01350000 -0.00954307 -0.04128460
v 0.01367306 -0.01066406 -0.03419360
v 0.01350000 -0.01069468 -0.03419778
v 0.01367306 -0.01145538 -0.02705915
v 0.01350000 -0.01148617 -0.02706177
v 0.01350000 -0.01178732 -0.02276415
v 0.01350000 -0.01191551 -0.01989485
v 0.01396910 -0.01158876 -0.01988357
v 0.01396910 -0.01116041 -0.02703397
v 0.01396910 -0.01037075 -0.03415353
v 0.01396910 -0.00922180 -0.04122401
v 0.01396910 -0.00771650 -0.04822728
v 0.01396910 -0.00585871 -0.05514540
v 0.01396910 -0.00439235 -0.05980438
v 0.01385355 -0.00456355 -0.05986153
v 0.01385355 -0.00603179 -0.05519661
v 0.01385355 -0.00789195 -0.04826966
v 0.01385355 -0.00939916 -0.04125746
v 0.01385355 -0.01054958 -0.03417796
v 0.01385355 -0.01134025 -0.02704932
v 0.00050000 -0.01189264 -0.02051748
v 0.00032694 -0.01186176 -0.02051628
v 0.00050000 -0.01178732 -0.02276415
v 0.00032694 -0.01140447 -0.02764139
v 0.00050000 -0.01143525 -0.02764414
v 0.00050000 -0.01088187 -0.03277393
v 0.00050000 -0.01061971 -0.03473875
v 0.00050000 -0.00944810 -0.04178330
v 0.00050000 -0.00926978 -0.04269446
v 0.00050000 -0.00830071 -0.04718123
v -0.00249909 -0.00566928 -0.05686479
v -0.00400000 -0.00470247 -0.05990790
v -0.00286610 -0.00538899 -0.05779610
v 0.00018398 -0.00759462 -0.05007298
v -0.00085862 -0.00667593 -0.05349471
v 0.00007103 -0.00746522 -0.05057618
v -0.01383773 -0.00534467 -0.05458615
v -0.01383773 -0.00518342 -0.05725701
v -0.01324448 -0.00533154 -0.05727903
v -0.01383773 0.02456082 -0.05014071
v -0.01383773 0.01954633 -0.06702072
v -0.01383773 0.02148868 -0.06518039
v -0.01324448 0.02160076 -0.06527971
v -0.01383773 0.01225701 -0.07018342
v -0.01383773 0.01485929 -0.06956082
v -0.01324448 0.01490670 -0.06970287
v -0.01383773 0.00436292 -0.06927773
v -0.01383773 0.00692786 -0.07003968
v -0.01324448 0.00689789 -0.07018641
v -0.01383773 -0.00018039 -0.06648868
v -0.01324448 -0.00194296 -0.06488007
v -0.01383773 -0.00202072 -0.06454633
v -0.01324448 -0.00213799 -0.06463946
v -0.01383773 -0.00349580 -0.06231393
v -0.01383773 0.00196926 -0.06808195
v -0.01324448 0.00088933 -0.06753977
v -0.01324448 -0.00027971 -0.06660075
v -0.01324448 0.00430793 -0.06941701
v -0.01324448 0.00429407 -0.06941154
v -0.01324448 0.00189091 -0.06820957
v -0.01324448 0.01227903 -0.07033154
v -0.01324448 0.01194267 -0.07037777
v -0.01383773 0.00958615 -0.07034467
v -0.01324448 0.00958211 -0.07049437
v -0.01324448 0.00805733 -0.07037777
v -0.01324448 0.01963946 -0.06713799
v -0.01324448 0.01911067 -0.06753977
v -0.01383773 0.01731393 -0.06849580
v -0.01324448 0.01738528 -0.06862746
v -0.01324448 0.01570593 -0.06941154
v -0.01383773 0.02427773 -0.06063708
v -0.01324448 0.02402482 -0.06159958
v -0.01383773 0.02308195 -0.06303074
v -0.01324448 0.02320957 -0.06310908
v -0.01324448 0.02194295 -0.06488007
v -0.01324448 0.02546941 -0.05402675
v -0.01324448 0.02549437 -0.05541789
v -0.01383773 0.02534467 -0.05541385
v -0.01324448 0.02522545 -0.05790441
v -0.01383773 0.02503969 -0.05807214
v -0.01324448 0.02518641 -0.05810211
v -0.01324448 0.02441701 -0.06069207
v -0.01324448 0.02533154 -0.05272097
v -0.01383773 0.02518342 -0.05274299
v -0.01324448 -0.00362746 -0.06238528
v -0.01324448 -0.00402482 -0.06159958
v -0.01383773 -0.00456082 -0.05985929
v -0.01324448 -0.00470287 -0.05990670
v -0.01324448 -0.00522545 -0.05790441
v -0.01428884 0.01990625 -0.04382070
v -0.01428884 0.02169701 -0.04571074
v -0.01428884 0.02313237 -0.04788303
v -0.01428884 0.02416871 -0.05027156
v -0.01428884 0.02477454 -0.05280377
v -0.01428884 0.02493145 -0.05540271
v -0.01428884 -0.00272966 -0.04718552
v -0.01428884 -0.00389324 -0.04951472
v -0.01428884 -0.00463468 -0.05201059
v -0.01428884 -0.00493145 -0.05459729
v -0.01428884 -0.00477454 -0.05719623
v -0.01428884 -0.00416871 -0.05972844
v -0.01428884 -0.00313237 -0.06211697
v -0.01428884 -0.00169701 -0.06428926
v -0.01428884 0.00009376 -0.06617930
v -0.01428884 0.00218552 -0.06772966
v -0.01428884 0.00451472 -0.06889324
v -0.01428884 0.00701059 -0.06963468
v -0.01428884 0.00959729 -0.06993145
v -0.01428884 0.01219623 -0.06977454
v -0.01428884 0.01472844 -0.06916871
v -0.01428884 0.01711697 -0.06813237
v -0.01428884 0.01928926 -0.06669701
v -0.01428884 0.02117930 -0.06490625
v -0.01428884 0.02272966 -0.06281448
v -0.01428884 0.02389324 -0.06048528
v -0.01428884 0.02463468 -0.05798941
v -0.01448972 0.01527304 -0.04164432
v -0.01448972 0.01751212 -0.04276288
v -0.01448972 0.01952295 -0.04425326
v -0.01448972 0.02124443 -0.04607017
v -0.01448972 0.02262425 -0.04815840
v -0.01448972 0.02362049 -0.05045452
v -0.01448972 0.02420288 -0.05288875
v -0.01448972 0.02435372 -0.05538713
v -0.01448972 0.02406843 -0.05787374
v -0.01448972 0.01287374 -0.04093157
v -0.01448972 0.01038713 -0.04064628
v -0.01448972 0.00788875 -0.04079713
v -0.01448972 0.00545452 -0.04137952
v -0.01448972 0.00315840 -0.04237575
v -0.01448972 0.00107016 -0.04375558
v -0.01448972 -0.00074674 -0.04547705
v -0.01448972 -0.00223712 -0.04748788
v -0.01448972 -0.00335568 -0.04972696
v -0.01448972 -0.00406843 -0.05212626
v -0.01448972 -0.00435372 -0.05461287
v -0.01448972 -0.00420288 -0.05711125
v -0.01448972 -0.00362049 -0.05954548
v -0.01448972 -0.00262425 -0.06184160
v -0.01448972 -0.00124442 -0.06392983
v -0.01448972 0.00047705 -0.06574675
v -0.01448972 0.00248788 -0.06723712
v -0.01448972 0.00472696 -0.06835568
v -0.01448972 0.00712626 -0.06906842
v -0.01448972 0.00961287 -0.06935371
v -0.01448972 0.01211125 -0.06920288
v -0.01448972 0.01454548 -0.06862049
v -0.01448972 0.01684160 -0.06762425
v -0.01448972 0.01892984 -0.06624442
v -0.01448972 0.02074675 -0.06452294
v -0.01448972 0.02223712 -0.06251212
v -0.01448972 0.02335568 -0.06027304
v 0.01396910 -0.00334674 -0.06221708
v 0.01367306 0.02533770 -0.05298806
v 0.01350000 0.02536834 -0.05298404
v 0.01350000 0.02546941 -0.05402675
v 0.01367306 0.02545474 -0.05566633
v 0.01350000 0.02548561 -0.05566766
v 0.01350000 0.02522545 -0.05790441
v 0.01367306 0.02510761 -0.05832459
v 0.01350000 0.02513780 -0.05833124
v 0.01367306 0.02430675 -0.06088301
v 0.01350000 0.02433533 -0.06089476
v 0.01350000 0.02402482 -0.06159958
v 0.01367306 0.02307620 -0.06326474
v 0.01350000 0.02310233 -0.06328125
v 0.01350000 0.02194295 -0.06488007
v 0.01367306 0.02145293 -0.06539824
v 0.01350000 0.02147581 -0.06541901
v 0.01367306 0.01948568 -0.06721944
v 0.01350000 0.01950463 -0.06724385
v 0.01350000 0.01194267 -0.07037777
v 0.01350000 0.01215598 -0.07034933
v 0.01367306 0.01215168 -0.07031872
v 0.01350000 0.01477367 -0.06974660
v 0.01367306 0.01476415 -0.06971719
v 0.01350000 0.01570593 -0.06941154
v 0.01367306 0.01723354 -0.06867366
v 0.01350000 0.01724799 -0.06870097
v 0.01350000 0.01911067 -0.06753977
v 0.01350000 0.00947353 -0.07049105
v 0.01367306 0.00947458 -0.07046017
v 0.01350000 0.00805733 -0.07037777
v 0.01367306 0.00681326 -0.07013729
v 0.01350000 0.00680690 -0.07016753
v 0.01350000 0.00429407 -0.06941154
v 0.01367306 0.00424766 -0.06935979
v 0.01350000 0.00423616 -0.06938847
v 0.01367306 0.00185481 -0.06815100
v 0.01350000 0.00183854 -0.06817728
v 0.01350000 0.00088933 -0.06753977
v 0.01367306 -0.00029340 -0.06654724
v 0.01350000 -0.00031396 -0.06657031
v 0.01350000 -0.00194296 -0.06488007
v 0.01367306 -0.00213246 -0.06459668
v 0.01350000 -0.00215670 -0.06461585
v 0.01367306 -0.00360714 -0.06235789
v 0.01350000 -0.00363433 -0.06237259
v 0.01350000 -0.00402482 -0.06159958
v 0.01396910 -0.00190028 -0.06441303
v 0.01396910 -0.00009641 -0.06632626
v 0.01396910 0.00201069 -0.06789932
v 0.01396910 0.00435774 -0.06908498
v 0.01396910 0.00687425 -0.06984761
v 0.01396910 0.00948463 -0.07016430
v 0.01396910 0.01211050 -0.07002556
v 0.01396910 0.01467298 -0.06943554
v 0.01396910 0.01709511 -0.06841198
v 0.01396910 0.01930415 -0.06698559
v 0.01396910 0.02123375 -0.06519924
v 0.01396910 0.02282596 -0.06310657
v 0.01396910 0.02403296 -0.06077042
v 0.01396910 0.02481849 -0.05826097
v 0.01396910 0.02515898 -0.05565358
v 0.01396910 0.02504418 -0.05302656
v 0.01385355 -0.00350551 -0.06230293
v 0.01385355 -0.00204184 -0.06452500
v 0.01385355 -0.00021652 -0.06646100
v 0.01385355 0.00191565 -0.06805278
v 0.01385355 0.00429062 -0.06925253
v 0.01385355 0.00683707 -0.07002423
v 0.01385355 0.00947850 -0.07034469
v 0.01385355 0.01213561 -0.07020430
v 0.01385355 0.01472857 -0.06960727
v 0.01385355 0.01717951 -0.06857152
v 0.01385355 0.01941483 -0.06712817
v 0.01385355 0.02136738 -0.06532057
v 0.01385355 0.02297853 -0.06320300
v 0.01385355 0.02419989 -0.06083907
v 0.01385355 0.02499477 -0.05829976
v 0.01385355 0.02533930 -0.05566135
v 0.01385355 0.02522314 -0.05300308
f 244 99 105
f 304 305 225
f 334 205 332
f 303 376 306
f 306 305 303
f 303 305 304
f 242 105 279
f 244 105 243
f 243 105 242
f 184 233 235
f 240 241 269
f 254 190 209
f 254 209 253
f 253 209 194
f 253 291 254
f 302 303 304
f 91 84 85
f 85 84 238
f 318 327 210
f 320 369 328
f 328 318 320
f 327 318 328
f 329 327 328
f 276 104 275
f 275 104 274
f 276 277 106
f 106 104 276
f 106 277 278
f 278 279 106
f 106 279 105
f 244 243 281
f 242 279 280
f 280 243 242
f 280 281 243
f 263 272 87
f 160 130 159
f 363 364 346
f 235 233 234
f 98 100 99
f 99 100 102
f 102 73 74
f 185 184 235
f 235 174 185
f 300 302 301
f 303 302 300
f 19 20 16
f 23 126 361
f 361 20 23
f 361 16 20
f 126 360 361
f 238 267 237
f 262 261 271
f 226 261 262
f 262 241 226
f 224 225 226
f 226 241 224
f 270 269 241
f 270 262 271
f 241 262 270
f 238 84 239
f 84 186 239
f 239 186 240
f 239 268 267
f 239 267 238
f 269 268 239
f 240 269 239
f 329 195 211
f 210 327 211
f 211 327 329
f 211 209 210
f 194 209 211
f 211 195 194
f 204 332 205
f 329 328 330
f 199 200 198
f 198 200 249
f 290 253 289
f 291 253 290
f 226 225 227
f 227 225 305
f 217 261 226
f 226 227 217
f 217 227 228
f 89 186 84
f 89 84 91
f 124 123 359
f 359 123 358
f 306 376 308
f 208 318 210
f 210 209 208
f 208 209 190
f 368 328 369
f 346 364 347
f 347 127 346
f 340 342 199
f 364 335 365
f 348 347 365
f 365 347 364
f 338 335 364
f 338 340 339
f 364 363 338
f 326 325 215
f 320 318 319
f 319 321 320
f 318 208 319
f 323 321 192
f 109 105 99
f 109 106 105
f 99 102 109
f 104 106 109
f 96 77 3
f 104 109 103
f 92 273 274
f 274 104 92
f 263 87 264
f 88 87 91
f 265 264 88
f 88 264 87
f 91 85 88
f 88 85 238
f 238 237 88
f 137 166 136
f 111 153 65
f 65 137 66
f 153 137 65
f 167 153 111
f 136 68 67
f 67 137 136
f 66 137 67
f 173 185 174
f 148 165 166
f 130 160 129
f 142 181 141
f 176 144 145
f 180 144 176
f 235 180 176
f 97 99 244
f 244 98 97
f 97 98 99
f 101 102 100
f 73 102 101
f 101 72 73
f 184 185 170
f 125 360 126
f 124 359 125
f 125 359 360
f 376 303 377
f 377 359 376
f 360 359 377
f 377 361 360
f 303 300 377
f 19 16 378
f 16 361 378
f 378 15 19
f 300 15 378
f 378 377 300
f 361 377 378
f 23 20 21
f 266 237 267
f 265 237 266
f 240 186 230
f 230 241 240
f 230 224 241
f 186 89 230
f 332 204 331
f 331 204 195
f 331 330 332
f 331 195 329
f 329 330 331
f 232 234 233
f 233 200 232
f 178 234 232
f 232 344 345
f 196 198 249
f 196 251 201
f 218 217 228
f 375 308 376
f 376 359 375
f 375 359 358
f 306 308 307
f 228 227 307
f 307 305 306
f 307 227 305
f 116 347 348
f 206 201 205
f 206 205 334
f 334 336 206
f 113 114 351
f 334 332 333
f 332 330 333
f 333 336 334
f 335 336 333
f 333 365 335
f 333 366 365
f 349 114 115
f 115 116 349
f 349 116 348
f 348 365 349
f 365 366 349
f 367 333 330
f 366 333 367
f 367 349 366
f 367 330 328
f 328 368 367
f 213 326 215
f 213 212 317
f 317 326 213
f 323 325 324
f 325 326 324
f 323 192 216
f 215 325 216
f 216 325 323
f 207 208 190
f 190 192 207
f 207 319 208
f 321 319 207
f 207 192 321
f 188 221 189
f 254 291 292
f 7 9 90
f 90 89 91
f 108 74 75
f 108 102 74
f 108 109 102
f 94 103 95
f 77 96 107
f 96 95 107
f 107 95 103
f 107 103 109
f 109 108 107
f 247 200 233
f 236 237 265
f 265 88 236
f 236 88 237
f 5 82 4
f 93 103 94
f 104 103 93
f 93 92 104
f 110 167 111
f 171 151 169
f 169 170 171
f 184 170 169
f 152 137 153
f 152 169 151
f 153 167 152
f 167 169 152
f 131 135 156
f 156 135 155
f 166 165 156
f 156 155 166
f 136 166 154
f 166 155 154
f 154 135 134
f 155 135 154
f 134 71 154
f 154 71 70
f 69 154 70
f 69 68 136
f 136 154 69
f 60 43 59
f 61 57 58
f 58 60 61
f 43 60 58
f 44 59 42
f 59 43 42
f 172 173 149
f 149 151 172
f 172 151 171
f 171 170 172
f 185 173 172
f 172 170 185
f 147 174 145
f 149 173 147
f 147 173 174
f 150 148 166
f 150 152 151
f 150 151 149
f 149 148 150
f 166 137 150
f 137 152 150
f 164 156 165
f 157 156 164
f 131 156 132
f 132 156 157
f 346 127 128
f 128 299 346
f 160 299 128
f 128 129 160
f 345 138 140
f 140 234 178
f 179 234 140
f 141 179 140
f 161 160 159
f 159 162 161
f 342 340 341
f 341 338 363
f 340 338 341
f 362 363 346
f 346 299 362
f 362 161 138
f 362 299 160
f 160 161 362
f 177 179 141
f 141 181 177
f 177 234 179
f 177 181 234
f 234 181 182
f 182 180 235
f 235 234 182
f 181 142 182
f 182 144 180
f 182 142 144
f 175 174 235
f 235 176 175
f 145 174 175
f 175 176 145
f 33 20 19
f 33 21 20
f 229 230 89
f 229 89 13
f 229 14 301
f 13 14 229
f 231 200 199
f 231 232 200
f 344 232 231
f 199 342 231
f 342 344 231
f 201 251 193
f 193 253 194
f 194 195 193
f 195 204 193
f 193 204 205
f 205 201 193
f 250 196 249
f 251 196 250
f 249 287 250
f 250 287 251
f 199 198 197
f 198 196 197
f 197 340 199
f 339 340 197
f 220 218 310
f 14 12 18
f 18 33 19
f 19 15 18
f 18 15 300
f 18 300 301
f 301 14 18
f 123 122 357
f 358 123 357
f 357 375 358
f 357 122 121
f 228 307 309
f 309 307 308
f 308 310 309
f 309 218 228
f 309 310 218
f 127 347 117
f 347 116 117
f 202 196 201
f 201 206 202
f 202 206 336
f 114 349 350
f 349 367 350
f 351 114 350
f 350 368 351
f 350 367 368
f 214 213 215
f 215 216 214
f 212 213 187
f 213 214 187
f 189 212 187
f 187 188 189
f 120 119 354
f 112 113 352
f 352 113 351
f 352 368 369
f 351 368 352
f 112 352 118
f 118 352 353
f 354 119 118
f 118 353 354
f 370 352 369
f 353 352 370
f 316 326 317
f 316 324 326
f 316 372 324
f 258 295 259
f 259 187 258
f 188 187 259
f 11 90 9
f 13 89 11
f 89 90 11
f 30 6 2
f 76 108 75
f 77 107 76
f 76 107 108
f 233 184 246
f 246 247 233
f 249 200 248
f 200 247 248
f 289 251 288
f 251 287 288
f 273 92 86
f 272 273 86
f 86 87 272
f 184 169 183
f 183 110 101
f 183 101 100
f 183 246 184
f 100 98 183
f 53 57 56
f 53 58 57
f 53 56 55
f 41 43 63
f 41 42 43
f 62 50 49
f 49 48 62
f 62 45 63
f 48 45 62
f 63 43 62
f 43 58 62
f 62 53 50
f 58 53 62
f 146 147 145
f 146 148 149
f 149 147 146
f 165 148 146
f 146 164 165
f 141 140 139
f 139 140 138
f 139 142 141
f 138 161 139
f 139 161 162
f 157 164 158
f 158 162 159
f 158 133 132
f 158 132 157
f 130 133 158
f 159 130 158
f 343 341 363
f 363 362 343
f 343 344 342
f 342 341 343
f 345 344 343
f 343 138 345
f 343 362 138
f 23 21 22
f 21 25 22
f 27 25 24
f 24 25 21
f 21 33 24
f 26 25 27
f 224 230 222
f 230 229 222
f 301 302 222
f 222 229 301
f 253 193 252
f 252 193 251
f 289 253 252
f 252 251 289
f 34 18 12
f 33 18 34
f 34 12 10
f 10 8 34
f 308 375 311
f 311 310 308
f 203 197 196
f 196 202 203
f 339 197 203
f 337 202 336
f 337 336 335
f 339 203 337
f 337 203 202
f 337 338 339
f 335 338 337
f 121 120 355
f 354 372 355
f 355 120 354
f 322 369 320
f 322 370 369
f 320 321 322
f 322 321 323
f 323 324 322
f 324 370 322
f 371 370 324
f 371 372 354
f 324 372 371
f 354 353 371
f 353 370 371
f 188 259 219
f 219 218 220
f 217 218 219
f 220 221 219
f 221 188 219
f 6 30 17
f 17 30 31
f 17 8 6
f 33 34 17
f 17 34 8
f 1 46 35
f 46 45 35
f 285 247 284
f 285 248 247
f 87 86 78
f 83 81 82
f 82 5 83
f 83 5 7
f 83 90 91
f 7 90 83
f 168 169 167
f 168 183 169
f 167 110 168
f 110 183 168
f 246 183 245
f 245 282 246
f 245 98 244
f 245 183 98
f 281 282 245
f 244 281 245
f 64 41 63
f 54 53 55
f 50 53 54
f 54 51 50
f 49 50 52
f 50 51 52
f 40 39 52
f 52 39 49
f 63 45 47
f 47 45 46
f 47 64 63
f 144 142 143
f 142 139 143
f 145 144 143
f 143 146 145
f 29 17 31
f 29 24 33
f 33 17 29
f 223 302 304
f 223 222 302
f 304 225 223
f 225 224 223
f 224 222 223
f 375 357 374
f 374 311 375
f 312 221 220
f 220 310 312
f 310 311 312
f 255 190 254
f 255 256 190
f 254 292 255
f 292 256 255
f 191 192 190
f 190 256 191
f 191 256 214
f 191 216 192
f 191 214 216
f 214 256 257
f 258 187 257
f 257 187 214
f 121 355 356
f 356 357 121
f 260 219 259
f 260 297 261
f 259 297 260
f 261 217 260
f 217 219 260
f 296 259 295
f 296 297 259
f 271 261 298
f 261 297 298
f 36 45 48
f 36 35 45
f 48 37 36
f 246 282 283
f 284 247 283
f 247 246 283
f 286 287 249
f 249 248 286
f 248 285 286
f 79 81 80
f 81 83 80
f 80 78 79
f 87 78 80
f 91 87 80
f 80 83 91
f 163 139 162
f 163 143 139
f 162 158 163
f 163 158 164
f 164 146 163
f 146 143 163
f 32 29 31
f 27 24 28
f 24 29 28
f 29 32 28
f 294 257 256
f 294 295 258
f 258 257 294
f 373 374 357
f 357 356 373
f 311 374 373
f 372 316 373
f 373 355 372
f 373 356 355
f 38 37 48
f 38 48 49
f 49 39 38
f 293 256 292
f 293 294 256
f 313 312 311
f 221 312 313
f 189 221 313
f 311 373 314
f 314 313 311
f 314 373 316
f 189 313 315
f 313 314 315
f 315 212 189
f 317 212 315
f 315 316 317
f 315 314 316
f 2 4 1
f 1 4 3
f 65 72 111
f 44 72 65
f 66 59 65
f 65 59 44
f 71 56 70
f 55 56 71
f 46 1 3
f 3 77 46
f 3 4 82
f 82 96 3
f 5 4 2
f 2 6 5
f 111 72 110
f 72 101 110
f 70 56 69
f 56 57 69
f 61 68 69
f 69 57 61
f 60 68 61
f 60 67 68
f 60 59 66
f 66 67 60
f 42 72 44
f 73 72 42
f 178 232 140
f 140 232 345
f 11 12 14
f 11 14 13
f 11 9 10
f 10 12 11
f 94 95 81
f 81 79 94
f 96 82 81
f 81 95 96
f 73 42 41
f 74 73 41
f 27 39 26
f 26 39 40
f 10 9 8
f 8 9 7
f 8 5 6
f 7 5 8
f 2 1 35
f 35 30 2
f 94 79 78
f 78 93 94
f 92 93 78
f 78 86 92
f 74 41 64
f 75 74 64
f 52 135 131
f 121 122 52
f 55 71 52
f 131 132 52
f 52 133 130
f 52 113 112
f 52 126 23
f 52 123 124
f 52 120 121
f 112 118 52
f 124 125 52
f 115 114 52
f 52 71 134
f 130 129 52
f 52 125 126
f 52 122 123
f 52 116 115
f 114 113 52
f 127 117 52
f 134 135 52
f 52 128 127
f 52 26 40
f 129 128 52
f 23 22 52
f 52 117 116
f 119 120 52
f 52 118 119
f 52 54 55
f 132 133 52
f 52 22 25
f 25 26 52
f 51 54 52
f 47 46 77
f 77 76 47
f 75 64 47
f 47 76 75
f 30 35 36
f 31 30 36
f 31 36 32
f 32 36 37
f 38 39 27
f 27 28 38
f 38 32 37
f 38 28 32
f 293 272 263
f 293 280 279
f 274 273 293
f 293 266 267
f 293 279 278
f 289 288 293
f 293 277 276
f 278 277 293
f 276 275 293
f 293 273 272
f 263 264 293
f 293 270 271
f 267 268 293
f 293 275 274
f 293 290 289
f 281 280 293
f 269 270 293
f 293 268 269
f 291 290 293
f 293 296 295
f 293 264 265
f 265 266 293
f 293 292 291
f 287 286 293
f 293 282 281
f 293 288 287
f 293 285 284
f 271 298 293
f 284 283 293
f 297 296 293
f 293 298 297
f 293 283 282
f 293 286 285
f 295 294 293

