# https://github.com/mikedh/trimesh
v -0.03300000 0.00000000 -0.04050000
v -0.03275791 0.00398992 -0.04050000
v -0.03231216 0.00670254 -0.04050000
v -0.02683561 0.01920547 -0.04050000
v -0.02834098 0.01690529 -0.04050000
v -0.02327793 0.02339098 -0.04050000
v -0.02027903 0.02603384 -0.04050000
v -0.02027903 0.02603384 -0.05351948
v -0.02170513 0.02485617 -0.05586813
v -0.02514401 0.02137238 -0.04050000
v 0.01515544 0.00875000 -0.00000000
v 0.01237437 0.01237437 -0.00000000
v 0.00875000 0.01515544 -0.00000000
v -0.00452933 -0.01690370 -0.00000000
v -0.00875000 -0.01515544 -0.00000000
v 0.00452933 0.01690370 -0.00000000
v -0.00000000 0.01750000 -0.00000000
v 0.00000000 -0.01750000 -0.00000000
v 0.00452933 -0.01690370 -0.00000000
v 0.00875000 -0.01515544 -0.00000000
v 0.01237437 -0.01237437 -0.00000000
v 0.01515544 -0.00875000 -0.00000000
v 0.01690370 -0.00452933 -0.00000000
v -0.00452933 0.01690370 -0.00000000
v -0.00875000 0.01515544 -0.00000000
v -0.01237437 0.01237437 -0.00000000
v 0.01750000 0.00000000 -0.00000000
v 0.01690370 0.00452933 -0.00000000
v -0.01515544 -0.00875000 -0.00000000
v -0.01690370 0.00452933 -0.00000000
v -0.01690370 -0.00452933 -0.00000000
v -0.01750000 0.00000000 -0.00000000
v -0.01515544 0.00875000 -0.00000000
v -0.01237437 -0.01237437 -0.00000000
v -0.02205000 -0.01500000 -0.00500000
v -0.02205000 0.01500000 -0.00500000
v 0.02895000 0.01237437 -0.05787437
v 0.02895000 0.01515544 -0.05425000
v 0.02895000 -0.01515544 -0.03675000
v 0.02895000 -0.01515544 -0.05425000
v 0.02895000 -0.01237437 -0.05787437
v 0.02895000 -0.00875000 -0.06065544
v 0.02895000 0.01690370 -0.05002933
v 0.02895000 0.01750000 -0.04550000
v 0.02895000 0.01690370 -0.04097067
v 0.02895000 0.00000000 -0.02800000
v 0.02895000 -0.00452933 -0.02859630
v 0.02895000 -0.00875000 -0.03034456
v 0.02895000 -0.01690370 -0.04097067
v 0.02895000 -0.01750000 -0.04550000
v 0.02895000 -0.01690370 -0.05002933
v 0.02895000 -0.00452933 -0.06240370
v 0.02895000 0.00000000 -0.06300000
v 0.02895000 0.01515544 -0.03675000
v 0.02895000 0.01237437 -0.03312563
v 0.02895000 0.00875000 -0.03034456
v 0.02895000 0.00452933 -0.02859630
v 0.02895000 -0.01237437 -0.03312563
v 0.02895000 0.00452933 -0.06240370
v 0.02895000 0.00875000 -0.06065544
v 0.02795000 0.00000000 -0.01700000
v 0.02795000 -0.00556007 -0.01754762
v 0.02795000 -0.01090648 -0.01916943
v 0.02795000 -0.01583375 -0.02180312
v 0.02795000 -0.02015254 -0.02534746
v 0.02795000 -0.02369688 -0.02966625
v -0.01705000 -0.02633057 -0.03459352
v 0.02795000 -0.02633057 -0.03459352
v -0.01705000 -0.02795238 -0.03993993
v 0.02795000 -0.02795238 -0.03993993
v -0.01705000 -0.02850000 -0.04550000
v 0.02795000 -0.02850000 -0.04550000
v -0.01705000 -0.02795238 -0.05106007
v 0.02795000 -0.02795238 -0.05106007
v 0.02795000 -0.02633057 -0.05640648
v 0.02795000 -0.02369688 -0.06133375
v 0.02795000 -0.02015254 -0.06565254
v 0.02795000 -0.01583375 -0.06919689
v 0.02795000 -0.01090648 -0.07183056
v 0.02795000 -0.00556007 -0.07345238
v 0.02795000 0.00000000 -0.07400000
v -0.01705000 0.02633057 -0.03459352
v -0.01705000 0.02795238 -0.03993993
v -0.01705000 0.02850000 -0.04550000
v -0.01705000 0.02795238 -0.05106007
v 0.02795000 0.01090648 -0.07183056
v 0.02795000 0.01583375 -0.06919689
v 0.02795000 0.02015254 -0.06565254
v 0.02795000 0.00556007 -0.07345238
v 0.02795000 0.01090648 -0.01916943
v 0.02795000 0.00556007 -0.01754762
v 0.02795000 0.02633057 -0.03459352
v 0.02795000 0.02369688 -0.02966625
v 0.02795000 0.02015254 -0.02534746
v 0.02795000 0.01583375 -0.02180312
v 0.02795000 0.02369688 -0.06133375
v 0.02795000 0.02633057 -0.05640648
v 0.02795000 0.02795238 -0.05106007
v 0.02795000 0.02850000 -0.04550000
v 0.02795000 0.02795238 -0.03993993
v -0.03269141 0.00398182 -0.04025000
v -0.03293301 0.00000000 -0.04025000
v -0.04025576 0.00881345 -0.07635194
v -0.04025576 -0.00881345 -0.07635194
v -0.04021279 0.00881525 -0.07551771
v -0.04017302 -0.00881687 -0.07534248
v -0.01998545 0.02611978 -0.05504088
v -0.01974289 0.02599944 -0.05624623
v -0.02101407 0.02531692 -0.05648366
v -0.02015156 0.02610515 -0.05418802
v -0.01976104 -0.02601383 -0.05615779
v -0.01998545 -0.02611978 -0.05504088
v -0.02101524 -0.02531652 -0.05648274
v -0.01974624 -0.02600216 -0.05622993
v -0.02027903 -0.02603384 -0.05351948
v -0.02170633 -0.02485580 -0.05586728
v -0.02027903 -0.02603384 -0.04050000
v -0.03905446 -0.00958736 -0.07832762
v -0.03972458 -0.01014098 -0.07564446
v -0.04008803 -0.00952515 -0.07555909
v -0.03975591 -0.01013876 -0.07629541
v -0.04012634 -0.00952306 -0.07633478
v -0.03961578 -0.01014837 -0.07693136
v -0.03995499 -0.00953213 -0.07709229
v -0.03931668 -0.01017105 -0.07750437
v -0.03958911 -0.00955326 -0.07777338
v -0.03919059 -0.01058120 -0.07624064
v -0.03909068 -0.01059015 -0.07670712
v -0.04006537 -0.00882130 -0.07716964
v -0.03978110 -0.00883365 -0.07772782
v -0.03923131 -0.00885895 -0.07835603
v -0.02691419 -0.01718172 -0.08538776
v -0.02778045 -0.01683716 -0.08474305
v -0.02728077 -0.01674032 -0.08580331
v -0.02802354 -0.01641128 -0.08515363
v -0.02598850 -0.01737638 -0.08601971
v -0.02653497 -0.01691421 -0.08649154
v -0.02348953 -0.01729449 -0.08971599
v -0.02393895 -0.01691421 -0.08999906
v -0.02433002 -0.01619223 -0.09024537
v -0.02408204 -0.01672192 -0.09008918
v -0.02341262 -0.01592184 -0.09135126
v -0.02319059 -0.01672192 -0.09105318
v -0.02277227 -0.01729449 -0.09049161
v -0.02182378 -0.01729449 -0.09095679
v -0.02077140 -0.01729449 -0.09104908
v -0.01975643 -0.01729449 -0.09075607
v -0.02201172 -0.01672192 -0.09163135
v -0.02070373 -0.01672192 -0.09174605
v -0.02066782 -0.01592184 -0.09211599
v -0.01927547 -0.01592184 -0.09171405
v -0.02343950 -0.01550000 -0.09138734
v -0.02294246 -0.01550000 -0.09170350
v -0.02211148 -0.01592184 -0.09198939
v -0.02212355 -0.01550000 -0.09203274
v -0.02095768 -0.01550000 -0.09217843
v -0.02066347 -0.01550000 -0.09216078
v -0.01925528 -0.01550000 -0.09175427
v -0.01944224 -0.01672192 -0.09138189
v -0.02343950 0.01550000 -0.09138734
v -0.02294246 0.01550000 -0.09170350
v -0.02212355 0.01550000 -0.09203274
v -0.02095768 0.01550000 -0.09217843
v -0.02066347 0.01550000 -0.09216078
v -0.01925528 0.01550000 -0.09175427
v -0.03905446 0.00958736 -0.07832762
v -0.03931668 0.01017105 -0.07750437
v -0.03958911 0.00955326 -0.07777338
v -0.03961578 0.01014837 -0.07693136
v -0.03995499 0.00953213 -0.07709229
v -0.03975591 0.01013876 -0.07629541
v -0.04012634 0.00952306 -0.07633478
v -0.03972458 0.01014098 -0.07564446
v -0.04008803 0.00952515 -0.07555909
v -0.03909068 0.01059015 -0.07670712
v -0.03919059 0.01058120 -0.07624064
v -0.03906841 0.00886682 -0.07848750
v -0.03952041 0.00884541 -0.07806997
v -0.03999878 0.00882414 -0.07732946
v -0.02691419 0.01718172 -0.08538776
v -0.02598850 0.01737638 -0.08601971
v -0.02653497 0.01691421 -0.08649154
v -0.02728077 0.01674032 -0.08580331
v -0.02802354 0.01641128 -0.08515363
v -0.02778045 0.01683716 -0.08474305
v -0.02433002 0.01619223 -0.09024537
v -0.02408204 0.01672192 -0.09008918
v -0.02393895 0.01691421 -0.08999906
v -0.02348953 0.01729449 -0.08971599
v -0.02341262 0.01592184 -0.09135126
v -0.02319059 0.01672192 -0.09105318
v -0.02201172 0.01672192 -0.09163135
v -0.01975643 0.01729449 -0.09075607
v -0.02277227 0.01729449 -0.09049161
v -0.02182378 0.01729449 -0.09095679
v -0.02077140 0.01729449 -0.09104908
v -0.01944224 0.01672192 -0.09138189
v -0.01927547 0.01592184 -0.09171405
v -0.02066782 0.01592184 -0.09211599
v -0.02070373 0.01672192 -0.09174605
v -0.02211148 0.01592184 -0.09198939
v -0.03269141 -0.00398182 -0.04025000
v -0.03275791 -0.00398992 -0.04050000
v -0.03231216 -0.00670254 -0.04050000
v -0.02834098 -0.01690529 -0.04050000
v -0.02683561 -0.01920547 -0.04050000
v -0.02514401 -0.02137238 -0.04050000
v -0.02327793 -0.02339098 -0.04050000
f 32 36 35
f 35 36 102
f 63 62 23
f 35 67 14
f 35 208 117
f 117 208 121
f 1 2 105
f 105 106 1
f 101 2 1
f 1 102 101
f 36 2 101
f 101 102 36
f 205 206 35
f 207 208 35
f 35 206 207
f 84 85 107
f 185 109 107
f 63 23 64
f 48 63 64
f 18 14 67
f 100 17 92
f 11 28 95
f 24 82 36
f 17 82 24
f 33 26 36
f 36 10 4
f 4 5 36
f 69 67 35
f 35 117 69
f 69 117 71
f 69 18 67
f 121 116 115
f 115 117 121
f 71 117 115
f 86 60 59
f 37 60 87
f 87 88 37
f 87 60 86
f 86 197 87
f 87 197 88
f 79 78 159
f 89 59 53
f 86 59 89
f 18 69 70
f 46 57 91
f 178 177 131
f 1 106 203
f 203 106 204
f 203 204 35
f 3 2 36
f 3 105 2
f 131 126 130
f 130 178 131
f 198 197 86
f 198 89 165
f 86 89 198
f 164 198 165
f 131 177 160
f 160 152 131
f 160 177 190
f 118 126 131
f 193 97 96
f 88 197 96
f 96 197 193
f 37 88 96
f 43 98 44
f 97 98 43
f 195 194 85
f 8 7 84
f 171 7 8
f 103 105 174
f 174 3 36
f 105 3 174
f 36 5 174
f 175 109 185
f 27 23 62
f 91 28 27
f 48 64 58
f 64 65 58
f 66 39 58
f 58 65 66
f 31 32 35
f 35 29 31
f 35 14 15
f 45 44 100
f 100 92 45
f 93 13 12
f 16 92 17
f 93 92 16
f 16 13 93
f 55 93 94
f 94 95 55
f 93 12 94
f 94 12 11
f 11 95 94
f 55 95 56
f 36 26 25
f 25 24 36
f 36 82 83
f 83 7 36
f 84 7 83
f 83 17 100
f 83 82 17
f 6 7 171
f 6 10 36
f 36 7 6
f 36 32 30
f 30 33 36
f 42 41 78
f 78 79 42
f 53 80 81
f 81 89 53
f 81 80 158
f 81 158 165
f 165 89 81
f 68 39 66
f 18 70 68
f 50 74 51
f 78 41 77
f 41 76 77
f 159 78 77
f 77 76 159
f 40 76 41
f 51 74 75
f 75 40 51
f 76 40 75
f 47 46 62
f 47 63 48
f 47 62 63
f 179 129 103
f 179 130 129
f 178 130 179
f 125 133 123
f 133 128 123
f 123 128 121
f 121 122 123
f 127 116 121
f 121 128 127
f 35 102 202
f 202 203 35
f 202 102 1
f 1 203 202
f 129 130 124
f 124 130 126
f 124 123 122
f 124 126 125
f 125 123 124
f 35 204 120
f 204 106 120
f 120 205 35
f 103 129 104
f 129 124 104
f 104 124 122
f 104 105 103
f 106 105 104
f 104 120 106
f 122 120 104
f 136 111 132
f 73 111 114
f 111 136 114
f 112 111 73
f 112 73 71
f 71 115 112
f 112 133 132
f 132 111 112
f 159 76 147
f 76 75 147
f 198 164 199
f 200 197 199
f 197 198 199
f 199 164 163
f 126 118 140
f 100 44 99
f 44 98 99
f 37 96 38
f 38 96 97
f 97 43 38
f 85 98 196
f 196 195 85
f 196 98 97
f 196 97 193
f 200 195 196
f 196 197 200
f 193 197 196
f 192 195 200
f 200 199 192
f 110 107 109
f 84 107 110
f 110 8 84
f 85 194 189
f 194 188 189
f 108 107 85
f 85 189 108
f 108 189 181
f 103 174 172
f 173 4 10
f 171 172 173
f 173 172 174
f 5 4 173
f 173 174 5
f 10 6 173
f 173 6 171
f 109 175 176
f 176 175 171
f 185 184 167
f 91 27 61
f 61 27 62
f 61 46 91
f 62 46 61
f 34 29 35
f 35 15 34
f 22 64 23
f 22 65 64
f 54 93 55
f 54 92 93
f 54 45 92
f 57 56 90
f 91 57 90
f 90 56 95
f 90 28 91
f 90 95 28
f 52 80 53
f 52 79 80
f 52 42 79
f 18 68 19
f 66 20 19
f 19 68 66
f 70 50 49
f 39 68 49
f 49 68 70
f 74 50 72
f 72 50 70
f 206 205 119
f 205 120 119
f 119 207 206
f 119 122 121
f 119 120 122
f 121 208 119
f 208 207 119
f 113 115 116
f 113 112 115
f 116 127 113
f 113 127 128
f 113 128 133
f 133 112 113
f 151 157 158
f 151 79 159
f 158 80 151
f 80 79 151
f 142 140 118
f 131 152 142
f 142 118 131
f 152 153 142
f 125 126 141
f 126 140 141
f 190 186 191
f 186 187 191
f 191 192 190
f 194 195 191
f 195 192 191
f 191 188 194
f 191 187 188
f 180 108 181
f 185 107 180
f 107 108 180
f 181 189 180
f 180 189 188
f 188 182 180
f 183 184 185
f 185 180 183
f 183 180 182
f 183 167 184
f 187 167 183
f 188 187 183
f 183 182 188
f 8 110 9
f 171 8 9
f 9 176 171
f 9 110 109
f 109 176 9
f 178 179 168
f 168 187 186
f 168 167 187
f 65 22 21
f 66 65 21
f 21 20 66
f 156 157 150
f 157 151 150
f 150 151 159
f 159 149 150
f 159 147 146
f 146 149 159
f 74 73 146
f 146 75 74
f 146 147 75
f 161 160 190
f 148 150 149
f 125 141 134
f 132 133 134
f 138 136 132
f 138 114 136
f 73 114 138
f 138 144 73
f 170 168 179
f 170 179 103
f 103 172 170
f 167 168 170
f 166 186 190
f 166 168 186
f 178 168 166
f 190 177 166
f 177 178 166
f 154 155 156
f 156 150 154
f 150 148 154
f 154 153 155
f 154 142 153
f 154 148 142
f 162 161 201
f 201 192 199
f 190 192 201
f 201 161 190
f 163 162 201
f 201 199 163
f 149 146 145
f 145 148 149
f 73 144 145
f 145 146 73
f 142 148 143
f 140 142 143
f 143 141 140
f 143 145 144
f 148 145 143
f 135 133 125
f 125 134 135
f 135 134 133
f 139 134 141
f 141 143 139
f 139 138 132
f 144 138 139
f 139 143 144
f 169 172 171
f 169 170 172
f 167 170 169
f 171 175 169
f 169 175 185
f 185 167 169
f 132 134 137
f 137 139 132
f 134 139 137
f 157 164 165
f 165 158 157
f 157 156 163
f 163 164 157
f 99 83 100
f 84 83 99
f 99 85 84
f 99 98 85
f 53 59 49
f 49 60 37
f 49 47 48
f 55 56 49
f 51 40 49
f 49 54 55
f 49 50 51
f 37 38 49
f 48 58 49
f 49 59 60
f 57 46 49
f 49 43 44
f 49 58 39
f 44 45 49
f 49 56 57
f 41 42 49
f 49 52 53
f 49 40 41
f 46 47 49
f 49 38 43
f 45 54 49
f 42 52 49
f 72 73 74
f 71 73 72
f 72 69 71
f 72 70 69
f 163 156 162
f 156 155 162
f 21 28 11
f 21 15 14
f 17 24 21
f 23 27 21
f 29 34 21
f 21 25 26
f 32 31 21
f 14 18 21
f 11 12 21
f 21 16 17
f 26 33 21
f 21 27 28
f 21 31 29
f 21 30 32
f 21 22 23
f 21 12 13
f 13 16 21
f 24 25 21
f 33 30 21
f 21 34 15
f 18 19 21
f 21 19 20
f 161 153 152
f 152 160 161
f 161 162 155
f 155 153 161

