# https://github.com/mikedh/trimesh
v 0.00444260 0.04370000 -0.00403278
v 0.00242933 0.04370000 -0.00548620
v 0.00000000 0.04370000 -0.00600000
v -0.00444260 0.04370000 0.00403278
v -0.01465194 0.03970000 0.00140257
v 0.00600000 0.03970000 -0.01339231
v -0.01465194 0.03970000 -0.00140257
v -0.01500000 0.03970000 -0.00000000
v 0.00851059 0.03970000 -0.01203454
v 0.00742711 0.03970000 -0.01303112
v 0.03099173 0.04370000 0.02521433
v 0.03095758 0.04370000 0.02592061
v 0.03107367 0.04370000 0.02576383
v 0.03112093 0.04370000 0.02557454
v 0.03109216 0.04370000 0.02538159
v 0.02281282 0.04370000 0.03331404
v 0.02210653 0.04370000 0.03327989
v 0.02232417 0.04370000 0.03341997
v 0.02258268 0.04370000 0.03343248
v 0.02924645 -0.00925355 0.09768934
v 0.02898801 -0.00915000 0.09744284
v 0.02892612 -0.00890000 0.09746847
v 0.02914289 -0.00890000 0.09779289
v 0.02916981 -0.00909134 0.09776598
v 0.02919026 -0.00915000 0.09774552
v 0.03066066 -0.00925355 0.09910356
v 0.03060447 -0.00915000 0.09915974
v 0.03058402 -0.00909134 0.09918019
v 0.03055711 -0.00890000 0.09920710
v 0.03090717 -0.00915000 0.09936199
v 0.03088153 -0.00890000 0.09942388
v 0.03126421 -0.00890000 0.09950000
v 0.02896128 0.00909134 0.09745391
v 0.02919026 0.00915000 0.09774552
v 0.02924645 0.00925355 0.09768934
v 0.02892612 0.00890000 0.09746847
v 0.02914289 0.00890000 0.09779289
v 0.02916981 0.00909134 0.09776598
v 0.03055711 0.00890000 0.09920710
v 0.03060447 0.00915000 0.09915974
v 0.03073388 0.00933301 0.09903033
v 0.03090717 0.00915000 0.09936199
v 0.03088153 0.00890000 0.09942388
v 0.03126421 0.00890000 0.09950000
v 0.06075000 0.02518432 0.10150000
v 0.06107678 0.02654591 0.10150000
v 0.06198594 0.02761086 0.10150000
v 0.06327941 0.02814718 0.10150000
v 0.06327941 -0.02814718 0.10150000
v 0.06198594 -0.02761086 0.10150000
v 0.06107678 -0.02654591 0.10150000
v 0.06075000 -0.02518432 0.10150000
v 0.05533694 -0.02565475 0.09950000
v 0.05533694 0.02565475 0.09950000
v 0.04958602 0.02196178 0.09950000
v 0.04958602 -0.02196178 0.09950000
v 0.08720366 -0.02082799 0.04650000
v 0.08488271 -0.02277543 0.04650000
v 0.08488271 0.02277543 0.04650000
v 0.08720366 0.02082799 0.04650000
v 0.09160299 -0.01559759 0.04650000
v 0.09160299 0.01559759 0.04650000
v 0.09463058 0.00947020 0.04650000
v 0.09611230 0.00279819 0.04650000
v 0.09463058 -0.00947020 0.04650000
v 0.09611230 -0.00279819 0.04650000
v 0.09625000 -0.00000000 0.04650000
v 0.08488271 0.02277543 0.04150000
v 0.08591031 0.02154144 0.04150000
v 0.08627870 0.01997845 0.04150000
v 0.07536608 -0.02746353 0.04150000
v 0.08168557 -0.02486061 0.04150000
v 0.08168557 0.02486061 0.04150000
v 0.07536608 0.02746353 0.04150000
v 0.08627870 -0.01997845 0.04150000
v 0.08591031 -0.02154144 0.04150000
v 0.08488271 -0.02277543 0.04150000
v -0.01435059 -0.03770000 0.01001552
v -0.01675289 -0.03770000 0.00505873
v -0.01749545 -0.03770000 -0.00039925
v 0.03746410 -0.03770000 0.02450000
v 0.03800000 -0.03770000 0.02650000
v 0.03159393 -0.03770000 0.04569544
v 0.03800000 -0.03770000 0.04250000
v 0.03246927 -0.03770000 0.04619552
v 0.01079191 -0.03770000 -0.01377623
v -0.01052654 -0.03770000 0.01398006
v 0.01453946 -0.03770000 -0.00973931
v 0.03732330 -0.03770000 0.02427387
v 0.00056649 -0.03770000 -0.01749083
v 0.00597519 -0.03770000 -0.01644832
v 0.03746410 -0.03770000 0.04450000
v 0.03600000 -0.03770000 0.04596410
v 0.03400000 -0.03770000 0.04650000
v -0.00987787 -0.03770000 -0.01444568
v -0.00489833 -0.03770000 -0.01680049
v -0.01387878 -0.03770000 -0.01065971
v -0.01650469 -0.03770000 -0.00581766
v 0.01453946 0.03770000 -0.00973931
v 0.01079191 0.03770000 -0.01377623
v 0.00597519 0.03770000 -0.01644832
v 0.00056649 0.03770000 -0.01749083
v -0.00489833 0.03770000 -0.01680049
v -0.00987787 0.03770000 -0.01444568
v -0.01387878 0.03770000 -0.01065971
v -0.01650469 0.03770000 -0.00581766
v -0.01749545 0.03770000 -0.00039925
v -0.01675289 0.03770000 0.00505873
v -0.01435059 0.03770000 0.01001552
v -0.01052654 0.03770000 0.01398006
v 0.09463058 -0.00947020 0.10150000
v 0.09611230 -0.00279819 0.10150000
v 0.06860860 -0.02848706 0.10150000
v 0.07536608 -0.02746353 0.10150000
v 0.08168557 -0.02486061 0.10150000
v 0.08720366 -0.02082799 0.10150000
v 0.09611230 0.00279819 0.10150000
v 0.09463058 0.00947020 0.10150000
v 0.09625000 -0.00000000 0.10150000
v 0.09160299 -0.01559759 0.10150000
v 0.09160299 0.01559759 0.10150000
v 0.08720366 0.02082799 0.10150000
v 0.08168557 0.02486061 0.10150000
v 0.06860860 0.02848706 0.10150000
v 0.07536608 0.02746353 0.10150000
v -0.00225139 0.04370000 -0.00556159
v -0.00599689 0.04370000 -0.00019323
v -0.00563121 0.04370000 0.00207111
v -0.00548620 0.04370000 -0.00242933
v -0.00417376 0.04370000 -0.00431042
f 66 86 67
f 55 54 110
f 54 55 47
f 123 122 59
f 88 71 89
f 72 71 88
f 86 66 75
f 35 55 110
f 110 109 35
f 35 109 34
f 44 47 43
f 129 8 127
f 108 109 5
f 5 8 108
f 33 109 36
f 46 44 45
f 46 47 44
f 17 47 48
f 48 18 17
f 54 47 17
f 110 54 17
f 17 109 110
f 4 109 17
f 124 18 48
f 11 9 1
f 126 103 104
f 3 103 126
f 69 68 62
f 73 11 15
f 15 74 73
f 62 68 60
f 71 82 81
f 89 71 81
f 53 50 56
f 51 52 32
f 32 50 51
f 30 56 50
f 86 75 76
f 42 47 55
f 42 43 47
f 102 103 3
f 7 8 129
f 129 105 7
f 108 8 107
f 128 109 4
f 128 5 109
f 128 127 8
f 8 5 128
f 36 37 38
f 38 33 36
f 37 39 38
f 34 109 38
f 109 33 38
f 12 124 125
f 63 69 62
f 70 69 63
f 10 2 1
f 1 9 10
f 104 105 130
f 130 126 104
f 130 105 129
f 68 69 100
f 101 10 100
f 100 10 9
f 100 69 70
f 116 115 58
f 31 50 32
f 31 30 50
f 20 56 26
f 56 30 26
f 65 75 66
f 65 76 75
f 61 76 65
f 55 35 41
f 8 7 106
f 106 107 8
f 106 7 105
f 34 38 40
f 40 38 39
f 40 39 43
f 43 42 40
f 40 35 34
f 40 41 35
f 40 42 55
f 55 41 40
f 124 12 16
f 13 12 125
f 67 100 64
f 70 63 64
f 64 100 70
f 3 2 6
f 2 10 6
f 6 102 3
f 101 102 6
f 6 10 101
f 99 73 68
f 68 100 99
f 99 100 9
f 9 11 99
f 11 73 99
f 86 76 77
f 77 88 86
f 72 88 77
f 61 57 77
f 77 76 61
f 113 49 85
f 85 49 83
f 113 93 92
f 92 114 113
f 84 114 92
f 27 25 20
f 20 26 27
f 27 26 30
f 23 22 24
f 22 21 24
f 25 27 24
f 20 25 78
f 25 24 78
f 78 24 21
f 78 21 22
f 18 124 19
f 124 16 19
f 14 13 125
f 125 74 14
f 14 74 15
f 94 93 113
f 113 85 94
f 28 24 27
f 28 31 29
f 30 31 28
f 28 27 30
f 87 56 20
f 20 78 87
f 53 56 87
f 87 50 53
f 87 49 50
f 83 49 87
f 44 52 45
f 32 52 44
f 82 114 84
f 71 114 82
f 22 37 36
f 23 37 22
f 125 123 73
f 73 74 125
f 73 123 59
f 59 68 73
f 60 68 59
f 59 122 60
f 115 114 71
f 115 71 72
f 116 57 120
f 120 57 61
f 39 37 23
f 23 29 39
f 90 96 103
f 103 102 90
f 103 96 95
f 104 103 95
f 97 105 95
f 95 105 104
f 121 60 122
f 62 60 121
f 63 121 118
f 62 121 63
f 67 86 100
f 31 39 29
f 43 39 31
f 32 44 31
f 44 43 31
f 65 112 111
f 66 112 65
f 111 120 65
f 65 120 61
f 119 123 125
f 125 124 119
f 45 52 119
f 119 121 122
f 119 46 45
f 116 120 119
f 113 114 119
f 48 47 119
f 122 123 119
f 117 118 119
f 119 115 116
f 52 51 119
f 47 46 119
f 119 124 48
f 119 49 113
f 114 115 119
f 119 51 50
f 119 120 111
f 111 112 119
f 118 121 119
f 50 49 119
f 119 112 66
f 119 66 67
f 79 107 80
f 108 107 79
f 91 100 86
f 101 100 91
f 91 90 102
f 91 102 101
f 97 98 106
f 106 105 97
f 80 107 106
f 106 98 80
f 117 119 64
f 64 119 67
f 64 118 117
f 64 63 118
f 77 115 72
f 77 58 115
f 77 57 116
f 116 58 77
f 78 22 36
f 36 109 78
f 108 79 78
f 78 109 108
f 129 127 14
f 4 17 14
f 1 2 14
f 18 19 14
f 14 17 18
f 14 128 4
f 15 11 14
f 14 11 1
f 14 2 3
f 3 126 14
f 127 128 14
f 14 130 129
f 126 130 14
f 14 16 12
f 12 13 14
f 14 19 16
f 28 29 23
f 23 24 28
f 87 82 84
f 89 81 87
f 87 88 89
f 87 98 97
f 86 88 87
f 87 79 80
f 87 81 82
f 97 95 87
f 87 85 83
f 96 90 87
f 87 95 96
f 80 98 87
f 87 91 86
f 84 92 87
f 90 91 87
f 87 78 79
f 87 92 93
f 93 94 87
f 87 94 85

