# https://github.com/mikedh/trimesh
v 0.00875000 0.01515544 0.00000000
v -0.00875000 -0.01515544 0.00000000
v -0.01237437 -0.01237437 0.00000000
v 0.01237437 0.01237437 0.00000000
v 0.01515544 0.00875000 0.00000000
v 0.01690370 0.00452933 0.00000000
v 0.00875000 -0.01515544 0.00000000
v 0.01237437 -0.01237437 0.00000000
v 0.01515544 -0.00875000 0.00000000
v -0.00000000 0.01750000 0.00000000
v -0.01690370 -0.00452933 0.00000000
v -0.00452933 0.01690370 0.00000000
v -0.01750000 -0.00000000 0.00000000
v -0.01690370 0.00452933 0.00000000
v -0.01515544 -0.00875000 0.00000000
v 0.00452933 0.01690370 0.00000000
v 0.01750000 0.00000000 0.00000000
v 0.01690370 -0.00452933 0.00000000
v 0.00452933 -0.01690370 0.00000000
v 0.00000000 -0.01750000 0.00000000
v -0.00452933 -0.01690370 0.00000000
v -0.01515544 0.00875000 0.00000000
v -0.01237437 0.01237437 0.00000000
v -0.00875000 0.01515544 0.00000000
v 0.00300000 0.04832500 0.00300000
v 0.01760339 0.04832500 0.04805451
v 0.01836510 0.04832500 0.04876538
v 0.01932401 0.04832500 0.04917285
v 0.02036445 0.04832500 0.04922778
v 0.02136093 0.04832500 0.04892355
v 0.02219326 0.04832500 0.04829685
v 0.02276106 0.04832500 0.04742327
v 0.02299583 0.04832500 0.04640818
v 0.02286926 0.04832500 0.04537400
v 0.00162599 0.04832500 0.02683459
v -0.00300000 0.04832500 0.01300000
v -0.00270128 0.04832500 0.01669487
v -0.00181287 0.04832500 0.02029376
v -0.00035784 0.04832500 0.02370318
v -0.00300000 0.04832500 0.00300000
v -0.02205988 0.04332500 0.01081897
v -0.02285760 0.04332500 0.01208671
v -0.02294298 0.04332500 0.01358211
v 0.03470749 0.04332500 0.04754208
v 0.03499633 0.04332500 0.04639830
v 0.03482185 0.04332500 0.04523159
v 0.02282185 0.04332500 0.01198159
v 0.02201916 0.04332500 0.01078122
v -0.02075000 0.04132500 0.00300000
v 0.02075000 0.04132500 0.00300000
v -0.02184106 0.04132500 0.00322570
v -0.02275302 0.04132500 0.00386575
v -0.02876175 0.04132500 0.01982347
v -0.02333620 0.04132500 0.00481509
v 0.02274382 0.04132500 0.00385602
v 0.02183491 0.04132500 0.00322305
v 0.02332930 0.04132500 0.00479622
v 0.03641375 0.04132500 0.04018050
v 0.03738727 0.04132500 0.04426689
v 0.03735893 0.04132500 0.04846754
v 0.00777488 0.04132500 0.05877184
v 0.01137141 0.04132500 0.06147490
v 0.01553826 0.04132500 0.06317167
v 0.02000000 0.04132500 0.06375000
v 0.02417039 0.04132500 0.06324582
v 0.02810047 0.04132500 0.06176233
v 0.03633036 0.04132500 0.05254042
v 0.03436082 0.04132500 0.05625084
v 0.03156380 0.04132500 0.05938501
v -0.02898478 0.04132500 0.02153197
v -0.02779431 0.04132500 0.02404548
v -0.02834195 0.04132500 0.02338139
v -0.02876175 -0.04132500 0.01982347
v -0.02333620 -0.04132500 0.00481509
v 0.02075000 -0.04132500 0.00300000
v 0.00777488 -0.04132500 0.05877184
v -0.02779431 -0.04132500 0.02404548
v 0.02332930 -0.04132500 0.00479622
v 0.03156380 -0.04132500 0.05938501
v 0.02810047 -0.04132500 0.06176233
v -0.02275302 -0.04132500 0.00386575
v -0.02184106 -0.04132500 0.00322570
v -0.02075000 -0.04132500 0.00300000
v 0.03641375 -0.04132500 0.04018050
v 0.03738727 -0.04132500 0.04426689
v 0.03735893 -0.04132500 0.04846754
v -0.02898478 -0.04132500 0.02153197
v -0.02834195 -0.04132500 0.02338139
v 0.02183491 -0.04132500 0.00322305
v 0.02274382 -0.04132500 0.00385602
v 0.03633036 -0.04132500 0.05254042
v 0.03436082 -0.04132500 0.05625084
v 0.02417039 -0.04132500 0.06324582
v 0.02000000 -0.04132500 0.06375000
v 0.01137141 -0.04132500 0.06147490
v 0.01553826 -0.04132500 0.06317167
f 25 55 56
f 56 50 25
f 55 47 57
f 57 47 58
f 34 47 25
f 48 55 25
f 25 47 48
f 48 47 55
f 72 39 38
f 72 38 70
f 62 27 61
f 26 71 61
f 61 27 26
f 26 72 71
f 17 90 89
f 17 56 55
f 55 90 17
f 89 18 17
f 70 42 53
f 52 40 51
f 51 40 49
f 10 40 25
f 28 62 63
f 27 62 28
f 69 68 31
f 39 72 35
f 72 26 35
f 60 44 67
f 67 44 68
f 64 65 29
f 29 28 64
f 64 28 63
f 50 56 6
f 56 17 6
f 41 42 40
f 40 52 41
f 41 52 42
f 54 53 42
f 42 52 54
f 43 42 70
f 43 36 40
f 40 42 43
f 13 81 52
f 13 52 51
f 82 81 13
f 23 49 24
f 23 22 49
f 16 10 25
f 16 50 1
f 25 50 16
f 40 10 12
f 12 49 40
f 24 49 12
f 69 31 30
f 29 65 30
f 60 59 45
f 45 44 60
f 45 34 33
f 32 45 33
f 44 45 32
f 32 31 68
f 68 44 32
f 69 30 66
f 66 30 65
f 50 6 5
f 36 43 37
f 70 38 37
f 37 43 70
f 14 13 51
f 51 49 14
f 49 22 14
f 46 59 58
f 46 45 59
f 58 47 46
f 47 34 46
f 34 45 46
f 75 83 20
f 75 18 89
f 1 50 4
f 50 5 4
f 19 75 20
f 7 75 19
f 18 75 9
f 83 3 2
f 15 3 83
f 8 75 7
f 8 9 75
f 20 83 21
f 83 2 21
f 11 83 82
f 11 15 83
f 82 13 11
f 76 71 77
f 61 71 76
f 78 90 57
f 57 90 55
f 84 78 57
f 57 58 84
f 87 88 72
f 70 87 72
f 72 88 77
f 77 71 72
f 59 85 84
f 84 58 59
f 86 85 59
f 59 60 86
f 79 92 68
f 68 69 79
f 73 87 53
f 53 87 70
f 96 63 95
f 63 62 95
f 61 76 95
f 95 62 61
f 86 60 67
f 67 91 86
f 92 91 67
f 67 68 92
f 73 53 54
f 54 74 73
f 74 54 81
f 81 54 52
f 94 63 96
f 94 64 63
f 93 65 94
f 65 64 94
f 79 69 66
f 66 80 79
f 66 65 93
f 93 80 66
f 25 40 37
f 37 34 25
f 29 30 37
f 38 39 37
f 27 28 37
f 33 34 37
f 37 32 33
f 37 26 27
f 40 36 37
f 37 28 29
f 39 35 37
f 37 35 26
f 37 30 31
f 31 32 37
f 75 87 73
f 75 78 84
f 75 81 82
f 77 88 75
f 86 91 75
f 89 90 75
f 84 85 75
f 75 92 79
f 79 80 75
f 75 88 87
f 75 76 77
f 75 85 86
f 73 74 75
f 75 90 78
f 96 95 75
f 75 91 92
f 75 94 96
f 75 95 76
f 74 81 75
f 93 94 75
f 75 80 93
f 82 83 75
f 18 9 11
f 24 12 11
f 11 17 18
f 11 23 24
f 11 16 1
f 11 19 20
f 11 6 17
f 11 14 22
f 22 23 11
f 10 16 11
f 11 12 10
f 1 4 11
f 11 5 6
f 13 14 11
f 11 8 7
f 11 4 5
f 7 19 11
f 20 21 11
f 11 2 3
f 3 15 11
f 9 8 11
f 11 21 2

