# https://github.com/mikedh/trimesh
v -0.00000000 -0.03632500 -0.01750000
v 0.01582151 -0.04028670 0.04057025
v 0.01308148 -0.04132500 0.03783021
v 0.03783021 -0.04132500 0.01308148
v 0.04762563 -0.02432500 0.07237437
v 0.05330304 -0.02432500 0.07616789
v 0.06000000 -0.02432500 0.07750000
v 0.01237437 -0.04132500 -0.01237437
v -0.01237437 -0.04132500 0.01237437
v -0.01616789 -0.04132500 0.00669696
v -0.01750000 -0.04132500 0.00000000
v -0.01616789 -0.04132500 -0.00669696
v -0.01237437 -0.04132500 -0.01237437
v 0.00669696 -0.04132500 -0.01616789
v 0.00000000 -0.04132500 -0.01750000
v -0.00669696 -0.04132500 -0.01616789
v 0.25897256 0.03070000 0.03806376
v 0.26034984 0.02870000 0.03631750
v 0.25872135 0.03070000 0.03747857
v 0.25924999 0.02870000 0.03531828
v 0.25825000 0.03070000 0.03705033
v 0.25380698 0.02870000 0.03289489
v 0.25318894 0.03070000 0.03479700
v 0.24039832 0.03070000 0.08609740
v 0.24500000 0.02870000 0.08850000
v 0.24654084 0.03070000 0.08645517
v 0.25924999 0.02870000 0.08468173
v 0.25825000 0.03070000 0.08294968
v 0.25380698 0.02870000 0.08710511
v 0.25260028 0.03070000 0.08538672
v 0.25317389 0.02870000 0.08730270
v 0.24665713 0.02870000 0.08845178
v 0.26034984 0.02870000 0.08368250
v 0.25872135 0.03070000 0.08252143
v 0.25897256 0.03070000 0.08193623
v 0.25825000 -0.03070000 0.03705033
v 0.25924999 -0.02870000 0.03531828
v 0.26034984 -0.02870000 0.03631750
v 0.25872135 -0.03070000 0.03747857
v 0.25897256 -0.03070000 0.03806376
v 0.25380698 -0.02870000 0.03289489
v 0.25260028 -0.03070000 0.03461328
v 0.25317389 -0.02870000 0.03269730
v 0.06000000 -0.01732500 0.08000000
v 0.24039832 -0.03070000 0.08609740
v 0.25825000 -0.03070000 0.08294968
v 0.25924999 -0.02870000 0.08468173
v 0.25380698 -0.02870000 0.08710511
v 0.25318894 -0.03070000 0.08520300
v 0.24500000 -0.02870000 0.08850000
v 0.24500000 -0.03070000 0.08650000
v 0.25897256 -0.03070000 0.08193623
v 0.26034984 -0.02870000 0.08368250
v 0.25872135 -0.03070000 0.08252143
v 0.24500000 0.03270000 0.07750000
v 0.26249999 0.03270000 0.06000000
v 0.26116788 0.03270000 0.05330304
v 0.25737438 0.03270000 0.04762563
v 0.25169697 0.03270000 0.04383211
v 0.26116788 0.03270000 0.06669696
v 0.25737438 0.03270000 0.07237437
v 0.25169697 0.03270000 0.07616789
v 0.26175189 0.02570000 0.08305699
v 0.26175189 0.02570000 0.03694301
v 0.26805699 0.02570000 0.04324812
v 0.27210510 0.02570000 0.05119302
v 0.27350000 0.02570000 0.06000000
v 0.27210510 0.02570000 0.06880698
v 0.26805699 0.02570000 0.07675188
v 0.25737438 -0.03270000 0.04762563
v 0.26116788 -0.03270000 0.05330304
v 0.26249999 -0.03270000 0.06000000
v 0.25737438 -0.03270000 0.07237437
v 0.25169697 -0.03270000 0.07616789
v 0.24500000 -0.03270000 0.07750000
v 0.25169697 -0.03270000 0.04383211
v 0.26116788 -0.03270000 0.06669696
v 0.26175189 -0.02570000 0.03694301
v 0.26805699 -0.02570000 0.04324812
v 0.27210510 -0.02570000 0.05119302
v 0.27350000 -0.02570000 0.06000000
v 0.27210510 -0.02570000 0.06880698
v 0.26175189 -0.02570000 0.08305699
v 0.26805699 -0.02570000 0.07675188
v 0.06000000 0.01732500 0.08000000
v -0.00000000 0.03632500 -0.01750000
v 0.01308148 0.04132500 0.03783021
v 0.01582151 0.04028670 0.04057025
v 0.03783021 0.04132500 0.01308148
v 0.04762563 0.02432500 0.07237437
v 0.05330304 0.02432500 0.07616789
v 0.06000000 0.02432500 0.07750000
v -0.01237437 0.04132500 0.01237437
v 0.01237437 0.04132500 -0.01237437
v -0.00669696 0.04132500 -0.01616789
v -0.01237437 0.04132500 -0.01237437
v 0.00000000 0.04132500 -0.01750000
v -0.01616789 0.04132500 -0.00669696
v -0.01616789 0.04132500 0.00669696
v -0.01750000 0.04132500 0.00000000
v 0.00669696 0.04132500 -0.01616789
v 0.05315960 0.01732500 0.07879385
v 0.05315960 -0.01732500 0.07879385
v 0.04714425 0.01732500 0.07532089
v 0.04714425 -0.01732500 0.07532089
f 43 15 97
f 93 104 87
f 3 4 73
f 22 43 97
f 103 7 44
f 104 91 90
f 44 7 50
f 50 7 51
f 3 51 45
f 51 7 45
f 75 51 3
f 4 8 70
f 3 105 9
f 58 94 89
f 58 89 57
f 101 22 97
f 66 17 57
f 15 43 14
f 43 42 14
f 6 103 105
f 7 103 6
f 87 104 88
f 104 90 88
f 88 90 91
f 88 91 92
f 102 91 104
f 92 91 102
f 25 50 32
f 32 26 25
f 31 32 48
f 48 32 50
f 67 66 56
f 56 66 57
f 57 89 56
f 89 60 56
f 67 56 68
f 68 56 60
f 30 32 31
f 26 32 30
f 3 73 74
f 74 75 3
f 22 101 23
f 76 42 36
f 76 14 42
f 36 70 76
f 8 14 76
f 76 70 8
f 5 6 105
f 24 88 92
f 92 25 24
f 25 26 24
f 24 26 87
f 87 88 24
f 92 102 85
f 85 25 92
f 35 60 34
f 34 68 35
f 35 68 60
f 34 60 61
f 61 60 89
f 61 89 87
f 87 62 61
f 87 26 55
f 55 62 87
f 26 30 55
f 55 30 62
f 62 30 28
f 34 61 28
f 28 61 62
f 77 73 4
f 4 72 77
f 77 54 73
f 4 70 71
f 71 72 4
f 81 72 80
f 72 71 80
f 86 95 97
f 22 23 21
f 59 23 101
f 59 101 94
f 94 58 59
f 58 21 59
f 59 21 23
f 43 22 41
f 36 42 41
f 41 42 43
f 22 21 20
f 36 41 37
f 2 105 3
f 2 5 105
f 6 5 2
f 7 6 2
f 3 45 2
f 2 45 7
f 46 74 73
f 73 54 46
f 34 28 33
f 40 80 71
f 16 1 15
f 19 21 58
f 19 66 65
f 17 66 19
f 57 17 19
f 19 58 57
f 31 48 29
f 29 30 31
f 29 28 30
f 74 46 49
f 51 75 49
f 75 74 49
f 49 46 48
f 49 50 51
f 49 48 50
f 82 72 81
f 82 77 72
f 82 84 54
f 69 33 63
f 69 68 34
f 34 33 69
f 39 71 70
f 39 40 71
f 39 70 36
f 79 80 39
f 80 40 39
f 18 20 21
f 21 19 18
f 18 19 65
f 64 20 18
f 65 64 18
f 27 33 28
f 28 29 27
f 63 33 27
f 54 77 52
f 52 82 54
f 77 82 52
f 48 46 47
f 79 39 38
f 37 78 38
f 38 78 79
f 36 37 38
f 38 39 36
f 53 46 54
f 53 47 46
f 54 84 53
f 84 83 53
f 83 47 53
f 99 10 9
f 9 93 99
f 104 93 9
f 9 105 104
f 11 10 99
f 99 100 11
f 104 105 102
f 105 103 102
f 85 102 103
f 85 103 44
f 44 50 85
f 85 50 25
f 80 66 67
f 67 81 80
f 65 66 80
f 80 79 65
f 87 89 96
f 97 95 96
f 99 93 96
f 96 100 99
f 96 93 87
f 98 100 96
f 89 94 96
f 96 101 97
f 94 101 96
f 22 20 37
f 37 41 22
f 13 96 16
f 16 96 95
f 16 86 1
f 95 86 16
f 12 100 98
f 12 11 100
f 12 8 4
f 12 4 3
f 10 11 12
f 3 9 12
f 12 9 10
f 15 14 12
f 12 14 8
f 12 16 15
f 13 16 12
f 12 96 13
f 98 96 12
f 78 37 20
f 78 20 64
f 65 79 78
f 78 64 65
f 82 81 67
f 67 68 82
f 69 82 68
f 84 82 69
f 84 69 83
f 83 69 63
f 47 29 48
f 47 27 29
f 47 83 63
f 63 27 47

