# https://github.com/mikedh/trimesh
v 0.01397256 -0.03432500 0.02193623
v 0.01534983 -0.03232500 0.02368250
v 0.01372136 -0.03432500 0.02252143
v 0.01425000 -0.03232500 0.02468172
v 0.01325000 -0.03432500 0.02294967
v 0.00818895 -0.03432500 0.02520300
v 0.00000000 -0.03432500 0.02650000
v -0.26400000 -0.03232500 0.02850000
v -0.26400000 -0.03432500 0.02650000
v -0.27724999 -0.03432500 0.02294967
v -0.27825001 -0.03232500 0.02468172
v -0.27934983 -0.03232500 0.02368250
v -0.27772135 -0.03432500 0.02252143
v -0.27797255 -0.03432500 0.02193623
v -0.27797255 -0.03432500 -0.02193623
v -0.27934983 -0.03232500 -0.02368250
v -0.27772135 -0.03432500 -0.02252143
v -0.27825001 -0.03232500 -0.02468172
v -0.27724999 -0.03432500 -0.02294967
v -0.27280697 -0.03232500 -0.02710511
v -0.27160028 -0.03432500 -0.02538672
v -0.26400000 -0.03232500 -0.02850000
v -0.26554084 -0.03432500 -0.02645517
v -0.26565713 -0.03232500 -0.02845178
v -0.27217388 -0.03232500 -0.02730270
v 0.00000000 -0.03232500 -0.02850000
v 0.00154084 -0.03432500 -0.02645517
v 0.01425000 -0.03232500 -0.02468172
v 0.01325000 -0.03432500 -0.02294967
v 0.00880698 -0.03232500 -0.02710511
v 0.00760029 -0.03432500 -0.02538672
v 0.00817389 -0.03232500 -0.02730270
v 0.00165713 -0.03232500 -0.02845178
v 0.01534983 -0.03232500 -0.02368250
v 0.01372136 -0.03432500 -0.02252143
v 0.01397256 -0.03432500 -0.02193623
v -0.27724999 0.03432500 -0.02294967
v -0.27825001 0.03232500 -0.02468172
v -0.27934983 0.03232500 -0.02368250
v -0.27772135 0.03432500 -0.02252143
v -0.27797255 0.03432500 -0.02193623
v -0.26400000 0.03232500 -0.02850000
v -0.26400000 0.03432500 -0.02650000
v 0.01325000 0.03432500 -0.02294967
v 0.01425000 0.03232500 -0.02468172
v 0.00880698 0.03232500 -0.02710511
v 0.00818895 0.03432500 -0.02520300
v 0.00000000 0.03232500 -0.02850000
v 0.00000000 0.03432500 -0.02650000
v 0.01397256 0.03432500 -0.02193623
v 0.01534983 0.03232500 -0.02368250
v 0.01372136 0.03432500 -0.02252143
v -0.27797255 0.03432500 0.02193623
v -0.27953109 0.03232500 0.02340063
v -0.27772135 0.03432500 0.02252143
v -0.27934983 0.03232500 0.02368250
v -0.27825001 0.03232500 0.02468172
v -0.27724999 0.03432500 0.02294967
v -0.27280697 0.03232500 0.02710511
v -0.27160028 0.03432500 0.02538672
v -0.26400000 0.03232500 0.02850000
v -0.26554084 0.03432500 0.02645517
v -0.26565713 0.03232500 0.02845178
v -0.27217388 0.03232500 0.02730270
v 0.00154084 0.03432500 0.02645517
v 0.01425000 0.03232500 0.02468172
v 0.01325000 0.03432500 0.02294967
v 0.00760029 0.03432500 0.02538672
v 0.01534983 0.03232500 0.02368250
v 0.01372136 0.03432500 0.02252143
v 0.01397256 0.03432500 0.02193623
v -0.27637437 -0.03632500 0.01237437
v -0.28016788 -0.03632500 0.00669696
v -0.28150001 -0.03632500 0.00000000
v -0.28016788 -0.03632500 -0.00669696
v -0.27069697 -0.03632500 -0.01616789
v -0.26400000 -0.03632500 -0.01750000
v -0.26400000 -0.03632500 0.01750000
v -0.27637437 -0.03632500 -0.01237437
v -0.27069697 -0.03632500 0.01616789
v -0.28075188 -0.02932500 0.02305698
v -0.28705698 -0.02932500 0.01675188
v -0.29110512 -0.02932500 0.00880698
v -0.29249999 -0.02932500 0.00000000
v -0.29110512 -0.02932500 -0.00880698
v -0.28075188 -0.02932500 -0.02305698
v -0.28705698 -0.02932500 -0.01675188
v -0.28150001 0.03632500 0.00000000
v -0.28016788 0.03632500 -0.00669696
v -0.27637437 0.03632500 -0.01237437
v -0.27069697 0.03632500 -0.01616789
v -0.26400000 0.03632500 -0.01750000
v -0.27637437 0.03632500 0.01237437
v -0.27069697 0.03632500 0.01616789
v -0.26400000 0.03632500 0.01750000
v -0.28016788 0.03632500 0.00669696
v -0.28075188 0.02932500 -0.02305698
v -0.29249999 0.02932500 0.00000000
v -0.28075188 0.02932500 0.02305698
v -0.28705698 0.02932500 0.01675188
v -0.28705698 0.02932500 -0.01675188
v -0.29110512 0.02932500 0.00880698
v -0.29110512 0.02932500 -0.00880698
v 0.01616789 -0.03632500 -0.00669696
v 0.01750000 -0.03632500 -0.00000000
v 0.01237437 -0.03632500 -0.01237437
v 0.00669696 -0.03632500 -0.01616789
v 0.00669696 -0.03632500 0.01616789
v 0.00000000 -0.03632500 0.01750000
v 0.01237437 -0.03632500 0.01237437
v 0.01616789 -0.03632500 0.00669696
v 0.00000000 -0.03632500 -0.01750000
v 0.01675188 -0.02932500 -0.02305698
v 0.02305698 -0.02932500 -0.01675188
v 0.01675188 -0.02932500 0.02305698
v 0.02305698 -0.02932500 0.01675188
v 0.02710511 -0.02932500 0.00880698
v 0.02850000 -0.02932500 -0.00000000
v 0.02710511 -0.02932500 -0.00880698
v 0.01616789 0.03632500 0.00669696
v 0.01750000 0.03632500 0.00000000
v 0.01616789 0.03632500 -0.00669696
v 0.01237437 0.03632500 -0.01237437
v 0.00000000 0.03632500 -0.01750000
v 0.00669696 0.03632500 -0.01616789
v 0.01237437 0.03632500 0.01237437
v 0.00669696 0.03632500 0.01616789
v 0.00000000 0.03632500 0.01750000
v 0.01675188 0.02932500 0.02305698
v 0.02305698 0.02932500 0.01675188
v 0.02710511 0.02932500 0.00880698
v 0.02850000 0.02932500 -0.00000000
v 0.02710511 0.02932500 -0.00880698
v 0.01675188 0.02932500 -0.02305698
v 0.02305698 0.02932500 -0.01675188
v -0.27218896 0.03432500 -0.02520300
v -0.27218896 -0.03432500 0.02520300
v -0.04102862 -0.02849663 0.03484834
v -0.04167941 -0.02813293 0.03485556
v -0.04167941 0.02813293 0.03485556
v -0.04102862 0.02849663 0.03484834
v -0.00360344 0.03200000 0.03521729
v -0.00446200 0.03200000 0.03534226
v -0.00446200 -0.03200000 0.03534226
v -0.00360344 -0.03200000 0.03521729
v -0.27280697 0.03232500 -0.02710511
v -0.27280697 -0.03232500 0.02710511
f 117 105 118
f 117 111 105
f 33 48 46
f 8 63 147
f 138 8 144
f 144 139 138
f 138 139 8
f 61 63 8
f 61 141 143
f 3 117 116
f 136 43 42
f 42 146 136
f 48 33 26
f 46 48 49
f 43 136 92
f 69 67 66
f 144 8 9
f 14 83 73
f 141 61 140
f 143 141 140
f 111 117 1
f 1 3 111
f 117 3 1
f 7 145 144
f 144 9 7
f 101 40 39
f 103 40 101
f 121 132 133
f 131 132 121
f 121 120 131
f 118 105 119
f 131 120 71
f 68 127 128
f 67 127 68
f 46 49 47
f 47 49 124
f 129 130 69
f 69 66 129
f 142 66 67
f 67 68 142
f 137 11 10
f 147 11 137
f 8 147 137
f 137 9 8
f 88 103 98
f 89 103 88
f 10 11 12
f 81 82 12
f 12 11 81
f 145 7 6
f 109 6 7
f 41 103 89
f 89 40 41
f 41 40 103
f 91 92 136
f 38 136 146
f 42 22 24
f 24 146 42
f 122 121 133
f 23 24 22
f 104 119 105
f 135 52 133
f 126 127 67
f 143 142 65
f 65 142 68
f 65 68 128
f 46 47 44
f 116 115 2
f 115 4 2
f 2 3 116
f 5 4 145
f 145 6 5
f 3 2 5
f 5 2 4
f 16 87 86
f 85 87 17
f 19 79 17
f 17 16 19
f 87 16 17
f 76 79 19
f 84 85 74
f 74 83 84
f 73 83 74
f 96 55 93
f 64 147 63
f 96 88 102
f 102 88 98
f 13 12 82
f 13 82 83
f 83 14 13
f 10 12 13
f 13 14 73
f 60 95 94
f 60 64 63
f 9 137 78
f 90 40 89
f 39 40 37
f 37 38 39
f 136 38 37
f 37 91 136
f 37 90 91
f 40 90 37
f 97 101 39
f 39 38 97
f 133 52 50
f 50 122 133
f 52 122 50
f 25 20 146
f 146 24 25
f 35 119 36
f 36 104 35
f 119 104 36
f 114 119 35
f 46 30 32
f 32 33 46
f 27 26 33
f 120 126 70
f 70 71 120
f 70 126 67
f 70 67 69
f 69 130 70
f 70 130 131
f 131 71 70
f 95 60 62
f 143 65 62
f 62 60 63
f 62 61 143
f 63 61 62
f 52 135 51
f 51 44 52
f 125 47 124
f 125 44 47
f 6 109 108
f 108 5 6
f 18 20 19
f 19 16 18
f 18 16 86
f 75 74 85
f 75 17 79
f 64 60 59
f 147 64 59
f 53 55 96
f 96 102 53
f 53 102 55
f 55 102 100
f 58 60 94
f 94 93 58
f 58 93 55
f 58 59 60
f 80 137 10
f 80 78 137
f 24 23 21
f 21 25 24
f 21 76 19
f 19 20 21
f 20 25 21
f 77 76 21
f 21 23 77
f 35 104 106
f 106 29 35
f 106 107 29
f 31 107 112
f 112 27 31
f 29 107 31
f 30 29 31
f 31 32 30
f 33 32 31
f 31 27 33
f 123 122 52
f 52 44 123
f 44 125 123
f 111 3 110
f 3 5 110
f 5 108 110
f 85 17 15
f 15 75 85
f 17 75 15
f 72 13 73
f 10 13 72
f 72 80 10
f 28 29 30
f 134 51 135
f 59 58 57
f 35 29 34
f 29 28 34
f 34 114 35
f 34 113 114
f 34 28 113
f 51 134 45
f 46 44 45
f 44 51 45
f 56 58 55
f 56 57 58
f 100 99 56
f 99 57 56
f 55 100 54
f 54 56 55
f 100 56 54
f 103 85 84
f 84 98 103
f 131 117 132
f 132 117 118
f 42 48 26
f 26 22 42
f 130 117 131
f 116 117 130
f 49 48 42
f 42 43 49
f 92 49 43
f 124 49 92
f 140 61 8
f 8 139 140
f 140 144 143
f 140 139 144
f 119 132 118
f 133 132 119
f 116 130 129
f 129 115 116
f 129 4 115
f 66 4 129
f 143 144 142
f 144 145 142
f 142 4 66
f 145 4 142
f 85 103 87
f 103 101 87
f 102 98 84
f 84 83 102
f 78 7 9
f 78 109 7
f 97 87 101
f 86 87 97
f 133 119 114
f 114 135 133
f 27 112 77
f 77 23 27
f 22 26 27
f 27 23 22
f 128 95 62
f 62 65 128
f 18 38 146
f 146 20 18
f 86 97 18
f 18 97 38
f 100 102 83
f 83 82 100
f 89 88 123
f 123 95 128
f 120 121 123
f 123 90 89
f 124 92 123
f 123 126 120
f 123 93 94
f 128 127 123
f 123 88 96
f 94 95 123
f 92 91 123
f 121 122 123
f 127 126 123
f 96 93 123
f 91 90 123
f 123 125 124
f 99 100 82
f 99 82 81
f 72 76 77
f 105 111 72
f 73 74 72
f 77 112 72
f 72 104 105
f 112 107 72
f 72 75 79
f 79 76 72
f 72 106 104
f 109 78 72
f 111 110 72
f 72 108 109
f 74 75 72
f 78 80 72
f 107 106 72
f 72 110 108
f 135 114 134
f 114 113 134
f 57 11 147
f 147 59 57
f 57 99 81
f 81 11 57
f 45 134 113
f 113 28 45
f 45 28 30
f 45 30 46

