# https://github.com/mikedh/trimesh
v 0.07950000 0.08630000 0.02780000
v 0.07950000 0.09030000 0.02380000
v 0.06750000 0.08630000 0.02780000
v 0.06750000 0.09030000 0.02380000
v 0.06693432 0.09030000 0.02356569
v 0.06410589 0.08630000 0.02639411
v 0.06566312 0.08630000 0.02743462
v 0.06719385 0.09030000 0.02373910
v 0.05960589 0.08630000 0.02189411
v 0.06243432 0.09030000 0.01906569
v 0.06220000 0.09030000 0.01850000
v 0.05820000 0.08630000 0.01850000
v 0.05856538 0.08630000 0.02033688
v 0.06226090 0.09030000 0.01880615
v 0.05820000 0.08630000 -0.01850000
v 0.06220000 0.09030000 -0.01850000
v 0.06243432 0.09030000 -0.01906569
v 0.05960589 0.08630000 -0.02189411
v 0.05856538 0.08630000 -0.02033688
v 0.06226090 0.09030000 -0.01880615
v 0.06410589 0.08630000 -0.02639411
v 0.06693432 0.09030000 -0.02356569
v 0.06750000 0.09030000 -0.02380000
v 0.06750000 0.08630000 -0.02780000
v 0.06566312 0.08630000 -0.02743462
v 0.06719385 0.09030000 -0.02373910
v 0.07950000 0.08630000 -0.02780000
v 0.07950000 0.09030000 -0.02380000
v 0.07950000 -0.08630000 -0.02780000
v 0.07950000 -0.09030000 -0.02380000
v 0.06750000 -0.08630000 -0.02780000
v 0.06750000 -0.09030000 -0.02380000
v 0.06693432 -0.09030000 -0.02356569
v 0.06410589 -0.08630000 -0.02639411
v 0.06566312 -0.08630000 -0.02743462
v 0.06719385 -0.09030000 -0.02373910
v 0.05960589 -0.08630000 -0.02189411
v 0.06243432 -0.09030000 -0.01906569
v 0.06220000 -0.09030000 -0.01850000
v 0.05820000 -0.08630000 -0.01850000
v 0.05856538 -0.08630000 -0.02033688
v 0.06226090 -0.09030000 -0.01880615
v 0.05820000 -0.08630000 0.01850000
v 0.06220000 -0.09030000 0.01850000
v 0.06243432 -0.09030000 0.01906569
v 0.05960589 -0.08630000 0.02189411
v 0.05856538 -0.08630000 0.02033688
v 0.06226090 -0.09030000 0.01880615
v 0.06410589 -0.08630000 0.02639411
v 0.06693432 -0.09030000 0.02356569
v 0.06750000 -0.09030000 0.02380000
v 0.06750000 -0.08630000 0.02780000
v 0.06566312 -0.08630000 0.02743462
v 0.06719385 -0.09030000 0.02373910
v 0.07950000 -0.08630000 0.02780000
v 0.07950000 -0.09030000 0.02380000
v 0.06100000 0.02300000 -0.02850000
v 0.06100000 -0.02300000 -0.02850000
v 0.06100000 0.02300000 0.02850000
v 0.06100000 -0.02300000 0.02850000
v 0.01000000 0.02386603 0.02800000
v 0.01000000 0.02350000 0.02836603
v 0.01000000 0.02300000 0.02850000
v 0.01000000 -0.02300000 0.02850000
v 0.01000000 -0.02350000 0.02836603
v 0.01000000 -0.02386603 0.02800000
v 0.01000000 -0.02300000 -0.02850000
v 0.01000000 -0.02350000 -0.02836603
v 0.01000000 -0.02386603 -0.02800000
v 0.01000000 0.02300000 -0.02850000
v 0.01000000 0.02350000 -0.02836603
v 0.01000000 0.02386603 -0.02800000
v 0.00000000 0.02015254 -0.02015254
v -0.00000000 -0.00000000 0.02850000
v -0.00000000 0.00737634 0.02752889
v 0.00000000 0.00000000 -0.02850000
v -0.00000000 -0.00737634 0.02752889
v 0.00000000 0.00737634 -0.02752889
v 0.00000000 0.01425000 -0.02468172
v 0.00000000 -0.00737634 -0.02752889
v 0.00000000 -0.01425000 -0.02468172
v 0.00000000 -0.02015254 -0.02015254
v -0.00000000 0.01425000 0.02468172
v -0.00000000 0.02015254 0.02015254
v -0.00000000 0.02468172 0.01425000
v 0.00000000 -0.02468172 -0.01425000
v -0.00000000 -0.02752889 -0.00737634
v -0.00000000 -0.02850000 0.00000000
v -0.00000000 -0.02752889 0.00737634
v -0.00000000 -0.02468172 0.01425000
v -0.00000000 -0.01425000 0.02468172
v -0.00000000 -0.02015254 0.02015254
v 0.00000000 0.02752889 0.00737634
v 0.00000000 0.02850000 -0.00000000
v 0.00000000 0.02468172 -0.01425000
v 0.00000000 0.02752889 -0.00737634
f 19 95 96
f 96 15 19
f 94 15 96
f 7 63 3
f 35 34 68
f 67 35 68
f 31 35 67
f 53 64 65
f 77 64 74
f 77 91 65
f 65 64 77
f 82 81 68
f 62 63 7
f 7 6 62
f 9 62 6
f 85 9 13
f 84 9 85
f 24 70 25
f 18 95 19
f 76 67 80
f 68 81 80
f 80 67 68
f 36 35 31
f 34 35 36
f 49 53 65
f 64 53 52
f 53 49 54
f 54 52 53
f 68 34 37
f 86 82 37
f 83 62 84
f 84 62 61
f 61 9 84
f 62 9 61
f 93 85 13
f 13 12 93
f 93 12 94
f 70 76 78
f 24 25 26
f 26 25 21
f 21 25 71
f 71 18 21
f 72 18 71
f 71 25 70
f 71 78 79
f 70 78 71
f 95 18 73
f 73 18 72
f 73 71 79
f 72 71 73
f 32 36 31
f 88 43 89
f 40 39 88
f 52 54 51
f 69 82 68
f 68 37 69
f 69 37 82
f 86 37 41
f 41 37 42
f 42 39 41
f 41 39 40
f 42 37 38
f 74 63 75
f 63 62 75
f 62 83 75
f 44 88 39
f 43 88 44
f 65 91 92
f 92 66 65
f 50 54 49
f 48 45 46
f 66 92 46
f 46 92 90
f 46 49 65
f 65 66 46
f 86 41 87
f 40 88 87
f 87 41 40
f 34 36 33
f 24 26 23
f 22 26 21
f 20 17 18
f 20 18 19
f 48 46 47
f 47 44 48
f 43 44 47
f 47 46 90
f 47 90 89
f 89 43 47
f 19 15 16
f 16 20 19
f 16 15 94
f 94 12 11
f 11 16 94
f 11 12 13
f 13 9 14
f 14 11 13
f 10 14 9
f 8 6 7
f 7 3 8
f 6 8 5
f 4 8 3
f 60 55 1
f 1 59 60
f 57 24 27
f 57 70 24
f 27 29 57
f 29 58 57
f 59 63 64
f 64 63 74
f 64 60 59
f 3 63 59
f 3 59 1
f 67 58 29
f 29 31 67
f 70 57 67
f 67 57 58
f 67 76 70
f 55 60 52
f 60 64 52
f 32 29 30
f 32 31 29
f 51 56 55
f 55 52 51
f 28 2 1
f 1 55 28
f 30 29 28
f 28 29 27
f 28 56 30
f 55 56 28
f 45 50 46
f 46 50 49
f 95 73 87
f 87 96 95
f 89 90 87
f 87 80 81
f 87 88 89
f 94 96 87
f 87 77 74
f 81 82 87
f 87 78 76
f 74 75 87
f 91 77 87
f 87 82 86
f 84 85 87
f 87 93 94
f 76 80 87
f 87 83 84
f 85 93 87
f 79 78 87
f 87 73 79
f 87 92 91
f 87 75 83
f 90 92 87
f 30 56 33
f 42 38 33
f 33 32 30
f 56 51 33
f 33 45 48
f 36 32 33
f 33 39 42
f 48 44 33
f 33 51 54
f 54 50 33
f 33 44 39
f 33 50 45
f 33 37 34
f 33 38 37
f 27 24 23
f 23 28 27
f 21 18 22
f 18 17 22
f 5 9 6
f 5 10 9
f 2 28 4
f 26 22 4
f 4 23 26
f 28 23 4
f 4 22 17
f 17 20 4
f 20 16 4
f 16 11 4
f 11 14 4
f 14 10 4
f 10 5 4
f 4 5 8
f 1 2 4
f 4 3 1

